SplineFontDB: 3.0
FontName: Inconsesi-BoldItalic
FullName: Inconsesi Bold Italic
FamilyName: Inconsesi
Weight: Bold
Copyright: Copyright (c) 2012, Alexei Vanyashin (a@cyreal.org). Based on Inconsolata by Raph Levien (firstname.lastname@gmail.com), Copyright (c) 2006-2012.
Version: 1.002
ItalicAngle: -7
UnderlinePosition: -50
UnderlineWidth: 50
Ascent: 1520
Descent: 528
sfntRevision: 0x00010083
LayerCount: 2
Layer: 0 1 "Back"  1
Layer: 1 1 "Fore"  0
XUID: [1021 481 151902280 4042828]
FSType: 0
OS2Version: 3
OS2_WeightWidthSlopeOnly: 0
OS2_UseTypoMetrics: 1
CreationTime: 1346730960
ModificationTime: 1354987189
PfmFamily: 81
TTFWeight: 700
TTFWidth: 5
LineGap: 350
VLineGap: 0
Panose: 0 0 8 0 0 0 0 0 0 0
OS2TypoAscent: 1520
OS2TypoAOffset: 0
OS2TypoDescent: -528
OS2TypoDOffset: 0
OS2TypoLinegap: 350
OS2WinAscent: 1520
OS2WinAOffset: 0
OS2WinDescent: 528
OS2WinDOffset: 0
HheadAscent: 1520
HheadAOffset: 0
HheadDescent: -528
HheadDOffset: 0
OS2SubXSize: 1331
OS2SubYSize: 1228
OS2SubXOff: -19
OS2SubYOff: 153
OS2SupXSize: 1331
OS2SupYSize: 1228
OS2SupXOff: 88
OS2SupYOff: 716
OS2StrikeYSize: 50
OS2StrikeYPos: 573
OS2Vendor: 'UKWN'
OS2CodePages: 20000093.00000000
OS2UnicodeRanges: a00000ef.500001fb.00000000.00000000
DEI: 91125
TtTable: prep
PUSHW_1
 511
SCANCTRL
PUSHB_1
 4
SCANTYPE
EndTTInstrs
ShortTable: maxp 16
  1
  0
  438
  82
  7
  0
  0
  2
  0
  1
  1
  0
  64
  0
  0
  0
EndShort
LangName: 1033 "" "" "Bold Italic" "Cyreal.org: Inconsesi Bold Italic: 2012" "" "Version 1.002" "" "Please refer to the Copyright section for the font trademark attribution notices." "Cyreal.org" "Alexei Vanyashin" "" "http://www.cyreal.org" "http://www.cyreal.org" "This Font Software is licensed under the SIL Open Font License,+AAoA-Version 1.1. This license is available with a FAQ at:+AAoA-http://scripts.sil.org/OFL" "http://scripts.sil.org/OFL" 
GaspTable: 1 65535 15 1
Encoding: UnicodeBmp
UnicodeInterp: none
NameList: AGL For New Fonts
DisplaySize: -24
AntiAlias: 1
FitToEm: 1

StartChar: exclam
Encoding: 33 33 4
Width: 1126
GlyphClass: 2
Flags: W
LayerCount: 2
Fore
SplineSet
426 406 m 1,0,-1
 483 1374 l 1,1,-1
 781 1374 l 1,2,-1
 600 406 l 1,3,-1
 426 406 l 1,0,-1
489 276 m 128,-1,5
 552 276 552 276 593 236 c 128,-1,6
 634 196 634 196 634 137 c 128,-1,7
 634 78 634 78 578.5 29 c 128,-1,8
 523 -20 523 -20 458 -20 c 128,-1,9
 393 -20 393 -20 353 17 c 128,-1,10
 313 54 313 54 313 110 c 0,11,12
 313 179 313 179 369.5 227.5 c 128,-1,4
 426 276 426 276 489 276 c 128,-1,5
EndSplineSet
EndChar

StartChar: quotedbl
Encoding: 34 34 5
Width: 1126
GlyphClass: 2
Flags: W
LayerCount: 2
Fore
SplineSet
670 1020 m 1,0,-1
 681 1521 l 1,1,-1
 917 1521 l 1,2,-1
 804 1020 l 1,3,-1
 670 1020 l 1,0,-1
299 1020 m 1,4,-1
 310 1521 l 1,5,-1
 546 1521 l 1,6,-1
 433 1020 l 1,7,-1
 299 1020 l 1,4,-1
EndSplineSet
EndChar

StartChar: numbersign
Encoding: 35 35 6
Width: 1126
GlyphClass: 2
Flags: W
LayerCount: 2
Fore
SplineSet
123 23 m 1,0,-1
 207 375 l 1,1,-1
 44 375 l 1,2,-1
 83 536 l 1,3,-1
 246 536 l 1,4,-1
 308 795 l 1,5,-1
 96 795 l 1,6,-1
 135 956 l 1,7,-1
 346 956 l 1,8,-1
 423 1276 l 1,9,-1
 634 1276 l 1,10,-1
 556 956 l 1,11,-1
 756 956 l 1,12,-1
 833 1276 l 1,13,-1
 1044 1276 l 1,14,-1
 966 956 l 1,15,-1
 1108 956 l 1,16,-1
 1069 795 l 1,17,-1
 926 795 l 1,18,-1
 863 536 l 1,19,-1
 1056 536 l 1,20,-1
 1017 375 l 1,21,-1
 824 375 l 1,22,-1
 738 23 l 1,23,-1
 533 23 l 1,24,-1
 617 375 l 1,25,-1
 414 375 l 1,26,-1
 328 23 l 1,27,-1
 123 23 l 1,0,-1
453 536 m 1,28,-1
 656 536 l 1,29,-1
 718 795 l 1,30,-1
 516 795 l 1,31,-1
 453 536 l 1,28,-1
EndSplineSet
EndChar

StartChar: dollar
Encoding: 36 36 7
Width: 1126
GlyphClass: 2
Flags: W
LayerCount: 2
Fore
SplineSet
293 364 m 2,0,-1
 293 348 l 2,1,2
 293 317 293 317 343.5 272.5 c 128,-1,3
 394 228 394 228 470 207 c 1,4,-1
 518 593 l 1,5,6
 453 630 453 630 413 657 c 128,-1,7
 373 684 373 684 334 722 c 0,8,9
 257 796 257 796 257 901 c 0,10,11
 257 1050 257 1050 353.5 1141.5 c 128,-1,12
 450 1233 450 1233 608 1245 c 1,13,-1
 623 1366 l 1,14,-1
 815 1366 l 1,15,16
 813 1346 813 1346 803 1328.5 c 128,-1,17
 793 1311 793 1311 791 1295 c 2,18,-1
 783 1233 l 1,19,20
 929 1199 929 1199 1019 1076 c 1,21,-1
 864 901 l 1,22,23
 857 908 857 908 852 927.5 c 128,-1,24
 847 947 847 947 842 965.5 c 128,-1,25
 837 984 837 984 813.5 1008 c 128,-1,26
 790 1032 790 1032 750 1050 c 1,27,-1
 710 720 l 1,28,29
 853 641 853 641 912 574 c 128,-1,30
 971 507 971 507 971 404 c 0,31,32
 971 256 971 256 876 151 c 128,-1,33
 781 46 781 46 614 22 c 1,34,-1
 599 -100 l 1,35,-1
 423 -100 l 1,36,-1
 438 23 l 1,37,38
 254 50 254 50 129 193 c 1,39,-1
 275 402 l 1,40,41
 293 384 293 384 293 364 c 2,0,-1
504.5 1016.5 m 128,-1,43
 477 984 477 984 477 929.5 c 128,-1,44
 477 875 477 875 546 821 c 1,45,-1
 575 1061 l 1,46,42
 532 1049 532 1049 504.5 1016.5 c 128,-1,43
719.5 277 m 128,-1,48
 747 317 747 317 747 378 c 128,-1,49
 747 439 747 439 682 493 c 1,50,-1
 648 217 l 1,51,47
 692 237 692 237 719.5 277 c 128,-1,48
EndSplineSet
EndChar

StartChar: percent
Encoding: 37 37 8
Width: 1126
GlyphClass: 2
Flags: W
LayerCount: 2
Fore
SplineSet
338 820 m 0,0,1
 241 820 241 820 179 885.5 c 128,-1,2
 117 951 117 951 117 1060 c 0,3,4
 117 1199 117 1199 201.5 1289 c 128,-1,5
 286 1379 286 1379 407 1379 c 0,6,7
 504 1379 504 1379 566.5 1312 c 128,-1,8
 629 1245 629 1245 629 1137 c 0,9,10
 629 994 629 994 543.5 907 c 128,-1,11
 458 820 458 820 338 820 c 0,0,1
42 0 m 1,12,-1
 928 1376 l 1,13,-1
 1105 1376 l 1,14,-1
 213 0 l 1,15,-1
 42 0 l 1,12,-1
288 1073 m 0,16,17
 288 970 288 970 357 970 c 0,18,19
 392 970 392 970 420.5 1012 c 128,-1,20
 449 1054 449 1054 449 1114 c 0,21,22
 449 1230 449 1230 384 1230 c 0,23,24
 345 1230 345 1230 316.5 1186.5 c 128,-1,25
 288 1143 288 1143 288 1073 c 0,16,17
612 458 m 0,26,27
 697 539 697 539 796.5 539 c 128,-1,28
 896 539 896 539 958.5 469.5 c 128,-1,29
 1021 400 1021 400 1021 296 c 0,30,31
 1021 161 1021 161 935 70.5 c 128,-1,32
 849 -20 849 -20 732 -20 c 0,33,34
 636 -20 636 -20 573 47.5 c 128,-1,35
 510 115 510 115 510 221 c 0,36,37
 510 360 510 360 612 458 c 0,26,27
680 231 m 0,38,39
 680 186 680 186 698 157.5 c 128,-1,40
 716 129 716 129 749.5 129 c 128,-1,41
 783 129 783 129 813 175.5 c 128,-1,42
 843 222 843 222 843 275.5 c 128,-1,43
 843 329 843 329 824.5 359 c 128,-1,44
 806 389 806 389 775 389 c 128,-1,45
 744 389 744 389 716 351 c 0,46,47
 680 301 680 301 680 231 c 0,38,39
EndSplineSet
EndChar

StartChar: ampersand
Encoding: 38 38 9
Width: 1126
GlyphClass: 2
Flags: W
LayerCount: 2
Fore
SplineSet
240 982 m 0,0,1
 240 1129 240 1129 340.5 1212.5 c 128,-1,2
 441 1296 441 1296 610 1296 c 0,3,4
 692 1296 692 1296 753.5 1275.5 c 128,-1,5
 815 1255 815 1255 850 1220 c 0,6,7
 918 1152 918 1152 918 1052 c 128,-1,8
 918 952 918 952 847 843.5 c 128,-1,9
 776 735 776 735 624 638 c 1,10,11
 692 537 692 537 802 397 c 1,12,13
 833 433 833 433 849.5 459 c 128,-1,14
 866 485 866 485 890 534 c 0,15,16
 897 548 897 548 901 583.5 c 128,-1,17
 905 619 905 619 918 639 c 1,18,-1
 1118 496 l 1,19,20
 980 319 980 319 918 248 c 1,21,22
 990 158 990 158 1029 103 c 1,23,-1
 830 -24 l 1,24,25
 791 34 791 34 746 96 c 1,26,27
 664 29 664 29 583 -2 c 128,-1,28
 502 -33 502 -33 391 -33 c 0,29,30
 212 -33 212 -33 120.5 44 c 128,-1,31
 29 121 29 121 29 257 c 0,32,33
 29 407 29 407 120 518 c 0,34,35
 197 612 197 612 338 691 c 1,36,37
 240 863 240 863 240 982 c 0,0,1
712 1027 m 0,38,39
 712 1130 712 1130 599 1130 c 0,40,41
 536 1130 536 1130 498 1098 c 128,-1,42
 460 1066 460 1066 460 1003 c 0,43,44
 460 920 460 920 532 786 c 1,45,46
 636 854 636 854 674 906.5 c 128,-1,47
 712 959 712 959 712 1027 c 0,38,39
277 318 m 2,48,-1
 276 303 l 1,49,50
 276 165 276 165 434 165 c 0,51,52
 544 165 544 165 640 241 c 1,53,54
 511 415 511 415 424 550 c 1,55,56
 358 511 358 511 319.5 449.5 c 128,-1,57
 281 388 281 388 277 318 c 2,48,-1
EndSplineSet
EndChar

StartChar: quotesingle
Encoding: 39 39 10
Width: 1126
GlyphClass: 2
Flags: W
LayerCount: 2
Fore
SplineSet
484 1020 m 1,0,-1
 495 1521 l 1,1,-1
 731 1521 l 1,2,-1
 618 1020 l 1,3,-1
 484 1020 l 1,0,-1
EndSplineSet
EndChar

StartChar: parenleft
Encoding: 40 40 11
Width: 1126
GlyphClass: 2
Flags: W
LayerCount: 2
Fore
SplineSet
939 1180 m 1,0,-1
 900 1185 l 1,1,2
 888 1185 888 1185 878 1180 c 0,3,4
 699 1095 699 1095 573.5 885.5 c 128,-1,5
 448 676 448 676 448 416 c 0,6,7
 448 219 448 219 539 54.5 c 128,-1,8
 630 -110 630 -110 793 -213 c 1,9,-1
 684 -367 l 1,10,11
 471 -251 471 -251 353 -50.5 c 128,-1,12
 235 150 235 150 235 397 c 0,13,14
 235 455 235 455 243 524 c 0,15,16
 279 822 279 822 444 1041.5 c 128,-1,17
 609 1261 609 1261 894 1379 c 1,18,-1
 968 1186 l 1,19,20
 954 1180 954 1180 939 1180 c 1,0,-1
EndSplineSet
EndChar

StartChar: parenright
Encoding: 41 41 12
Width: 1126
GlyphClass: 2
Flags: W
LayerCount: 2
Fore
SplineSet
185 -175 m 1,0,-1
 224 -180 l 1,1,2
 235 -180 235 -180 246 -175 c 0,3,4
 331 -134 331 -134 408 -60.5 c 128,-1,5
 485 13 485 13 545 110 c 128,-1,6
 605 207 605 207 640 331.5 c 128,-1,7
 675 456 675 456 675 588 c 0,8,9
 675 785 675 785 584.5 950 c 128,-1,10
 494 1115 494 1115 331 1218 c 1,11,-1
 440 1372 l 1,12,13
 652 1255 652 1255 770.5 1055 c 128,-1,14
 889 855 889 855 889 608 c 0,15,16
 889 270 889 270 715.5 12.5 c 128,-1,17
 542 -245 542 -245 230 -374 c 1,18,-1
 156 -181 l 1,19,20
 174 -175 174 -175 185 -175 c 1,0,-1
EndSplineSet
EndChar

StartChar: asterisk
Encoding: 42 42 13
Width: 1126
GlyphClass: 2
Flags: W
LayerCount: 2
Fore
SplineSet
318 506 m 1,0,-1
 172 635 l 1,1,-1
 446 913 l 1,2,-1
 139 1012 l 1,3,-1
 233 1198 l 1,4,-1
 509 1061 l 1,5,-1
 519 1376 l 1,6,-1
 760 1376 l 1,7,-1
 679 1061 l 1,8,-1
 980 1190 l 1,9,-1
 1034 1014 l 1,10,-1
 702 915 l 1,11,-1
 901 635 l 1,12,-1
 722 508 l 1,13,-1
 560 809 l 1,14,-1
 318 506 l 1,0,-1
EndSplineSet
EndChar

StartChar: plus
Encoding: 43 43 14
Width: 1126
GlyphClass: 2
Flags: W
LayerCount: 2
Fore
SplineSet
419 213 m 1,0,-1
 458 563 l 1,1,-1
 128 563 l 1,2,-1
 150 750 l 1,3,-1
 480 750 l 1,4,-1
 517 1070 l 1,5,-1
 705 1070 l 1,6,-1
 668 750 l 1,7,-1
 988 750 l 1,8,-1
 966 563 l 1,9,-1
 646 563 l 1,10,-1
 607 213 l 1,11,-1
 419 213 l 1,0,-1
EndSplineSet
EndChar

StartChar: comma
Encoding: 44 44 15
Width: 1126
GlyphClass: 2
Flags: W
LayerCount: 2
Fore
SplineSet
474 215 m 0,0,1
 521 250 521 250 594.5 250 c 128,-1,2
 668 250 668 250 707 209 c 128,-1,3
 746 168 746 168 746 94 c 0,4,5
 746 -27 746 -27 664.5 -161 c 128,-1,6
 583 -295 583 -295 410 -425 c 1,7,-1
 303 -317 l 1,8,9
 418 -218 418 -218 457 -161.5 c 128,-1,10
 496 -105 496 -105 496 -66 c 0,11,12
 496 -35 496 -35 457 1 c 0,13,14
 442 15 442 15 430 39.5 c 128,-1,15
 418 64 418 64 418 82 c 0,16,17
 418 173 418 173 474 215 c 0,0,1
EndSplineSet
EndChar

StartChar: hyphen
Encoding: 45 45 16
Width: 1126
GlyphClass: 2
Flags: W
LayerCount: 2
Fore
SplineSet
168 563 m 1,0,-1
 190 750 l 1,1,-1
 958 750 l 1,2,-1
 936 563 l 1,3,-1
 168 563 l 1,0,-1
EndSplineSet
EndChar

StartChar: period
Encoding: 46 46 17
Width: 1126
GlyphClass: 2
Flags: W
LayerCount: 2
Fore
SplineSet
436.5 216.5 m 128,-1,1
 482 258 482 258 549 258 c 128,-1,2
 616 258 616 258 659.5 219.5 c 128,-1,3
 703 181 703 181 703 118 c 128,-1,4
 703 55 703 55 656 11 c 128,-1,5
 609 -33 609 -33 540.5 -33 c 128,-1,6
 472 -33 472 -33 429 5 c 128,-1,7
 386 43 386 43 386 101 c 2,8,-1
 386 111 l 1,9,0
 391 175 391 175 436.5 216.5 c 128,-1,1
EndSplineSet
EndChar

StartChar: slash
Encoding: 47 47 18
Width: 1126
GlyphClass: 2
Flags: W
LayerCount: 2
Fore
SplineSet
77 -10 m 1,0,-1
 889 1373 l 1,1,-1
 1056 1281 l 1,2,-1
 247 -96 l 1,3,-1
 77 -10 l 1,0,-1
EndSplineSet
EndChar

StartChar: zero
Encoding: 48 48 19
Width: 1126
GlyphClass: 2
Flags: W
LayerCount: 2
Fore
SplineSet
490 -39 m 0,0,1
 311 -39 311 -39 215 91.5 c 128,-1,2
 119 222 119 222 119 461 c 0,3,4
 119 535 119 535 130 629 c 0,5,6
 169 947 169 947 307.5 1125 c 128,-1,7
 446 1303 446 1303 654 1303 c 0,8,9
 770 1303 770 1303 852 1246.5 c 128,-1,10
 934 1190 934 1190 979 1082 c 1,11,-1
 980 1079 l 1,12,13
 1027 961 1027 961 1027 792 c 0,14,15
 1027 411 1027 411 876.5 186 c 128,-1,16
 726 -39 726 -39 490 -39 c 0,0,1
632 1104 m 0,17,18
 513 1104 513 1104 429.5 941 c 128,-1,19
 346 778 346 778 339 506 c 1,20,-1
 759 1030 l 1,21,22
 713 1104 713 1104 632 1104 c 0,17,18
362 305 m 1,23,24
 404 166 404 166 520.5 166 c 128,-1,25
 637 166 637 166 723 337 c 128,-1,26
 809 508 809 508 809 786 c 0,27,28
 809 826 809 826 806 862 c 1,29,-1
 362 305 l 1,23,24
EndSplineSet
EndChar

StartChar: one
Encoding: 49 49 20
Width: 1126
GlyphClass: 2
Flags: W
LayerCount: 2
Fore
SplineSet
390 0 m 1,0,-1
 514 1016 l 1,1,-1
 287 950 l 1,2,-1
 249 1090 l 1,3,-1
 618 1276 l 1,4,-1
 782 1276 l 1,5,-1
 626 0 l 1,6,-1
 390 0 l 1,0,-1
EndSplineSet
EndChar

StartChar: two
Encoding: 50 50 21
Width: 1126
GlyphClass: 2
Flags: W
LayerCount: 2
Fore
SplineSet
352 956 m 2,0,-1
 353 938 l 1,1,2
 353 917 353 917 335 898 c 1,3,-1
 153 1047 l 1,4,5
 308 1305 308 1305 606 1305 c 0,6,7
 790 1305 790 1305 893 1216 c 128,-1,8
 996 1127 996 1127 996 988 c 0,9,10
 996 848 996 848 896 722 c 0,11,12
 814 620 814 620 674 505 c 0,13,14
 610 453 610 453 552 406 c 0,15,16
 412 290 412 290 358 201 c 1,17,-1
 845 201 l 2,18,19
 860 201 860 201 881.5 210 c 128,-1,20
 903 219 903 219 921 219 c 1,21,-1
 895 0 l 1,22,-1
 57 0 l 1,23,-1
 72 127 l 1,24,25
 129 238 129 238 242.5 364.5 c 128,-1,26
 356 491 356 491 457 582 c 0,27,28
 488 610 488 610 544 655.5 c 128,-1,29
 600 701 600 701 629 727.5 c 128,-1,30
 658 754 658 754 692 794 c 0,31,32
 756 868 756 868 756 970 c 0,33,34
 756 1040 756 1040 709.5 1077 c 128,-1,35
 663 1114 663 1114 583.5 1114 c 128,-1,36
 504 1114 504 1114 448.5 1076.5 c 128,-1,37
 393 1039 393 1039 366 997 c 0,38,39
 352 974 352 974 352 956 c 2,0,-1
EndSplineSet
EndChar

StartChar: three
Encoding: 51 51 22
Width: 1126
GlyphClass: 2
Flags: W
LayerCount: 2
Fore
SplineSet
245 295 m 1,0,-1
 243 274 l 2,1,2
 243 265 243 265 248 256 c 0,3,4
 274 211 274 211 316.5 185.5 c 128,-1,5
 359 160 359 160 440.5 160 c 128,-1,6
 522 160 522 160 583 221.5 c 128,-1,7
 644 283 644 283 644 393 c 0,8,9
 644 575 644 575 394 575 c 2,10,-1
 380 575 l 1,11,-1
 400 740 l 1,12,13
 545 740 545 740 615 803.5 c 128,-1,14
 685 867 685 867 685 976 c 0,15,16
 685 1038 685 1038 647 1075.5 c 128,-1,17
 609 1113 609 1113 540 1113 c 0,18,19
 428 1113 428 1113 312 990 c 1,20,-1
 198 1133 l 1,21,22
 351 1308 351 1308 580 1308 c 0,23,24
 733 1308 733 1308 822.5 1228.5 c 128,-1,25
 912 1149 912 1149 912 1023 c 0,26,27
 912 962 912 962 900 914 c 128,-1,28
 888 866 888 866 858 818 c 0,29,30
 799 722 799 722 628 670 c 1,31,32
 762 627 762 627 817 560 c 128,-1,33
 872 493 872 493 872 399.5 c 128,-1,34
 872 306 872 306 840.5 228.5 c 128,-1,35
 809 151 809 151 750.5 91.5 c 128,-1,36
 692 32 692 32 601.5 -2.5 c 128,-1,37
 511 -37 511 -37 400 -37 c 0,38,39
 150 -37 150 -37 34 133 c 1,40,-1
 231 332 l 1,41,42
 245 312 245 312 245 295 c 1,0,-1
EndSplineSet
EndChar

StartChar: four
Encoding: 52 52 23
Width: 1126
GlyphClass: 2
Flags: W
LayerCount: 2
Fore
SplineSet
54 263 m 1,0,-1
 69 389 l 1,1,-1
 821 1276 l 1,2,-1
 1020 1276 l 1,3,-1
 918 444 l 1,4,-1
 1054 444 l 1,5,-1
 1032 263 l 1,6,-1
 896 263 l 1,7,-1
 864 0 l 1,8,-1
 629 0 l 1,9,-1
 661 263 l 1,10,-1
 54 263 l 1,0,-1
343 444 m 1,11,-1
 682 444 l 1,12,-1
 716 723 l 1,13,-1
 749 904 l 1,14,-1
 343 444 l 1,11,-1
EndSplineSet
EndChar

StartChar: five
Encoding: 53 53 24
Width: 1126
GlyphClass: 2
Flags: W
LayerCount: 2
Fore
SplineSet
285 318 m 2,0,-1
 284 298 l 1,1,2
 284 249 284 249 342.5 204.5 c 128,-1,3
 401 160 401 160 477 160 c 0,4,5
 580 160 580 160 658 232 c 0,6,7
 696 268 696 268 719 328 c 128,-1,8
 742 388 742 388 742 473 c 128,-1,9
 742 558 742 558 691 610 c 128,-1,10
 640 662 640 662 548 662 c 0,11,12
 488 662 488 662 440 648 c 128,-1,13
 392 634 392 634 328 594 c 1,14,-1
 198 637 l 1,15,-1
 326 1272 l 1,16,-1
 1034 1272 l 1,17,-1
 1010 1077 l 1,18,-1
 485 1077 l 1,19,-1
 433 812 l 1,20,21
 513 852 513 852 623 852 c 0,22,23
 780 852 780 852 876.5 751.5 c 128,-1,24
 973 651 973 651 973 481 c 0,25,26
 973 250 973 250 829.5 103.5 c 128,-1,27
 686 -43 686 -43 457 -43 c 0,28,29
 319 -43 319 -43 215 15.5 c 128,-1,30
 111 74 111 74 56 199 c 1,31,-1
 276 346 l 1,32,33
 285 332 285 332 285 318 c 2,0,-1
EndSplineSet
EndChar

StartChar: six
Encoding: 54 54 25
Width: 1126
GlyphClass: 2
Flags: W
LayerCount: 2
Fore
SplineSet
495 -39 m 0,0,1
 295 -39 295 -39 190 87 c 128,-1,2
 85 213 85 213 85 446 c 0,3,4
 85 640 85 640 135.5 802.5 c 128,-1,5
 186 965 186 965 272.5 1073.5 c 128,-1,6
 359 1182 359 1182 476.5 1242.5 c 128,-1,7
 594 1303 594 1303 718.5 1303 c 128,-1,8
 843 1303 843 1303 919 1262.5 c 128,-1,9
 995 1222 995 1222 1059 1149 c 1,10,-1
 879 975 l 1,11,12
 865 990 865 990 862 1011.5 c 128,-1,13
 859 1033 859 1033 848 1049 c 0,14,15
 808 1106 808 1106 698 1106 c 0,16,17
 436 1106 436 1106 339 768 c 1,18,19
 466 850 466 850 625.5 850 c 128,-1,20
 785 850 785 850 888.5 754 c 128,-1,21
 992 658 992 658 992 484 c 0,22,23
 992 337 992 337 931.5 218.5 c 128,-1,24
 871 100 871 100 757 30.5 c 128,-1,25
 643 -39 643 -39 495 -39 c 0,0,1
518 156 m 0,26,27
 632 156 632 156 692.5 240 c 128,-1,28
 753 324 753 324 753 460 c 0,29,30
 753 657 753 657 551 657 c 0,31,32
 438 657 438 657 321 595 c 1,33,34
 311 507 311 507 311 453 c 0,35,36
 311 156 311 156 518 156 c 0,26,27
EndSplineSet
EndChar

StartChar: seven
Encoding: 55 55 26
Width: 1126
GlyphClass: 2
Flags: W
LayerCount: 2
Fore
SplineSet
225 0 m 1,0,1
 420 426 420 426 771 1075 c 1,2,-1
 209 1075 l 1,3,-1
 233 1276 l 1,4,-1
 1071 1276 l 1,5,-1
 1057 1159 l 1,6,7
 706 543 706 543 473 0 c 1,8,-1
 225 0 l 1,0,1
EndSplineSet
EndChar

StartChar: eight
Encoding: 56 56 27
Width: 1126
GlyphClass: 2
Flags: W
LayerCount: 2
Fore
SplineSet
216 926 m 0,0,1
 216 1101 216 1101 334.5 1205 c 128,-1,2
 453 1309 453 1309 639.5 1309 c 128,-1,3
 826 1309 826 1309 924.5 1230 c 128,-1,4
 1023 1151 1023 1151 1023 1028 c 0,5,6
 1023 834 1023 834 784 684 c 1,7,8
 872 631 872 631 932 564 c 0,9,10
 1001 487 1001 487 1001 376 c 128,-1,11
 1001 265 1001 265 929 168 c 128,-1,12
 857 71 857 71 737 16 c 128,-1,13
 617 -39 617 -39 478 -39 c 0,14,15
 291 -39 291 -39 171.5 57 c 128,-1,16
 52 153 52 153 52 302 c 0,17,18
 52 442 52 442 147 542 c 0,19,20
 225 625 225 625 348 688 c 1,21,22
 216 789 216 789 216 926 c 0,0,1
730.5 865 m 128,-1,24
 772 920 772 920 772 980.5 c 128,-1,25
 772 1041 772 1041 733 1074.5 c 128,-1,26
 694 1108 694 1108 620.5 1108 c 128,-1,27
 547 1108 547 1108 499.5 1064 c 128,-1,28
 452 1020 452 1020 452 962 c 128,-1,29
 452 904 452 904 491.5 864 c 128,-1,30
 531 824 531 824 627 771 c 1,31,23
 689 810 689 810 730.5 865 c 128,-1,24
499 593 m 1,32,33
 310 493 310 493 310 335 c 0,34,35
 310 253 310 253 365 207.5 c 128,-1,36
 420 162 420 162 511.5 162 c 128,-1,37
 603 162 603 162 668 218.5 c 128,-1,38
 733 275 733 275 733 369 c 0,39,40
 733 426 733 426 685.5 469.5 c 128,-1,41
 638 513 638 513 499 593 c 1,32,33
EndSplineSet
EndChar

StartChar: nine
Encoding: 57 57 28
Width: 1126
GlyphClass: 2
Flags: W
LayerCount: 2
Fore
SplineSet
396 158 m 0,0,1
 658 158 658 158 755 496 c 1,2,3
 628 414 628 414 468.5 414 c 128,-1,4
 309 414 309 414 205.5 510 c 128,-1,5
 102 606 102 606 102 780 c 0,6,7
 102 927 102 927 162.5 1045.5 c 128,-1,8
 223 1164 223 1164 337 1233.5 c 128,-1,9
 451 1303 451 1303 599 1303 c 0,10,11
 799 1303 799 1303 904 1177 c 128,-1,12
 1009 1051 1009 1051 1009 818 c 0,13,14
 1009 624 1009 624 958.5 461.5 c 128,-1,15
 908 299 908 299 821.5 190.5 c 128,-1,16
 735 82 735 82 617.5 21.5 c 128,-1,17
 500 -39 500 -39 375.5 -39 c 128,-1,18
 251 -39 251 -39 175 1.5 c 128,-1,19
 99 42 99 42 35 115 c 1,20,-1
 215 289 l 1,21,22
 229 274 229 274 232 252.5 c 128,-1,23
 235 231 235 231 246 215 c 0,24,25
 286 158 286 158 396 158 c 0,0,1
543 607 m 0,26,27
 656 607 656 607 773 669 c 1,28,29
 782 749 782 749 782 811 c 0,30,31
 782 1108 782 1108 576 1108 c 0,32,33
 462 1108 462 1108 401 1024 c 128,-1,34
 340 940 340 940 340 804 c 0,35,36
 340 607 340 607 543 607 c 0,26,27
EndSplineSet
EndChar

StartChar: colon
Encoding: 58 58 29
Width: 1126
GlyphClass: 2
Flags: W
LayerCount: 2
Fore
SplineSet
726 641 m 128,-1,1
 679 597 679 597 610.5 597 c 128,-1,2
 542 597 542 597 499 635 c 128,-1,3
 456 673 456 673 456 735.5 c 128,-1,4
 456 798 456 798 502.5 843 c 128,-1,5
 549 888 549 888 617.5 888 c 128,-1,6
 686 888 686 888 729.5 849.5 c 128,-1,7
 773 811 773 811 773 748 c 128,-1,0
 773 685 773 685 726 641 c 128,-1,1
420.5 216.5 m 128,-1,9
 466 258 466 258 533 258 c 128,-1,10
 600 258 600 258 643.5 219.5 c 128,-1,11
 687 181 687 181 687 118 c 128,-1,12
 687 55 687 55 640 11 c 128,-1,13
 593 -33 593 -33 524.5 -33 c 128,-1,14
 456 -33 456 -33 413 5 c 128,-1,15
 370 43 370 43 370 101 c 2,16,-1
 370 111 l 1,17,8
 375 175 375 175 420.5 216.5 c 128,-1,9
EndSplineSet
EndChar

StartChar: semicolon
Encoding: 59 59 30
Width: 1126
GlyphClass: 2
Flags: W
LayerCount: 2
Fore
SplineSet
737 641 m 128,-1,1
 690 597 690 597 621.5 597 c 128,-1,2
 553 597 553 597 510 635 c 128,-1,3
 467 673 467 673 467 735.5 c 128,-1,4
 467 798 467 798 513.5 843 c 128,-1,5
 560 888 560 888 628.5 888 c 128,-1,6
 697 888 697 888 740.5 849.5 c 128,-1,7
 784 811 784 811 784 748 c 128,-1,0
 784 685 784 685 737 641 c 128,-1,1
459 215 m 0,8,9
 506 250 506 250 579.5 250 c 128,-1,10
 653 250 653 250 692 209 c 128,-1,11
 731 168 731 168 731 94 c 0,12,13
 731 -27 731 -27 649.5 -161 c 128,-1,14
 568 -295 568 -295 395 -425 c 1,15,-1
 288 -317 l 1,16,17
 403 -218 403 -218 442 -161.5 c 128,-1,18
 481 -105 481 -105 481 -66 c 0,19,20
 481 -35 481 -35 442 1 c 0,21,22
 427 15 427 15 415 39.5 c 128,-1,23
 403 64 403 64 403 82 c 0,24,25
 403 173 403 173 459 215 c 0,8,9
EndSplineSet
EndChar

StartChar: less
Encoding: 60 60 31
Width: 1126
GlyphClass: 2
Flags: W
LayerCount: 2
Fore
SplineSet
72 604 m 1,0,-1
 87 723 l 1,1,-1
 1032 1192 l 1,2,-1
 1007 989 l 1,3,-1
 328 662 l 1,4,-1
 930 299 l 1,5,-1
 903 80 l 1,6,-1
 72 604 l 1,0,-1
EndSplineSet
EndChar

StartChar: equal
Encoding: 61 61 32
Width: 1126
GlyphClass: 2
Flags: W
LayerCount: 2
Fore
SplineSet
155 763 m 1,0,-1
 178 950 l 1,1,-1
 1021 950 l 1,2,-1
 998 763 l 1,3,-1
 155 763 l 1,0,-1
106 363 m 1,4,-1
 129 550 l 1,5,-1
 972 550 l 1,6,-1
 949 363 l 1,7,-1
 106 363 l 1,4,-1
EndSplineSet
EndChar

StartChar: greater
Encoding: 62 62 33
Width: 1126
GlyphClass: 2
Flags: W
LayerCount: 2
Fore
SplineSet
78 80 m 1,0,-1
 105 299 l 1,1,-1
 792 662 l 1,2,-1
 191 989 l 1,3,-1
 216 1192 l 1,4,-1
 1052 723 l 1,5,-1
 1037 604 l 1,6,-1
 78 80 l 1,0,-1
EndSplineSet
EndChar

StartChar: question
Encoding: 63 63 34
Width: 1126
GlyphClass: 2
Flags: W
LayerCount: 2
Fore
SplineSet
809 984 m 128,-1,1
 829 1030 829 1030 829 1084 c 128,-1,2
 829 1138 829 1138 785 1171.5 c 128,-1,3
 741 1205 741 1205 661 1205 c 128,-1,4
 581 1205 581 1205 509.5 1165.5 c 128,-1,5
 438 1126 438 1126 353 1040 c 1,6,-1
 217 1164 l 1,7,8
 324 1276 324 1276 429 1329.5 c 128,-1,9
 534 1383 534 1383 665 1383 c 0,10,11
 827 1383 827 1383 928 1304.5 c 128,-1,12
 1029 1226 1029 1226 1029 1072 c 0,13,14
 1029 952 1029 952 960 862 c 0,15,16
 911 799 911 799 812 710 c 0,17,18
 773 675 773 675 739 640 c 0,19,20
 660 559 660 559 647 472 c 1,21,-1
 632 379 l 1,22,-1
 426 379 l 1,23,-1
 440 495 l 2,24,25
 452 588 452 588 530 674 c 0,26,27
 564 712 564 712 604.5 749.5 c 128,-1,28
 645 787 645 787 684.5 824.5 c 128,-1,29
 724 862 724 862 756.5 900 c 128,-1,0
 789 938 789 938 809 984 c 128,-1,1
420.5 216.5 m 128,-1,31
 466 258 466 258 533 258 c 128,-1,32
 600 258 600 258 643.5 219.5 c 128,-1,33
 687 181 687 181 687 118 c 128,-1,34
 687 55 687 55 640 11 c 128,-1,35
 593 -33 593 -33 524.5 -33 c 128,-1,36
 456 -33 456 -33 413 5 c 128,-1,37
 370 43 370 43 370 101 c 2,38,-1
 370 111 l 1,39,30
 375 175 375 175 420.5 216.5 c 128,-1,31
EndSplineSet
EndChar

StartChar: at
Encoding: 64 64 35
Width: 1126
GlyphClass: 2
Flags: W
LayerCount: 2
Fore
SplineSet
586 -29 m 0,0,1
 328 -29 328 -29 181.5 117 c 128,-1,2
 35 263 35 263 35 524 c 0,3,4
 35 700 35 700 87 848 c 128,-1,5
 139 996 139 996 229 1096.5 c 128,-1,6
 319 1197 319 1197 441 1253 c 128,-1,7
 563 1309 563 1309 702 1309 c 0,8,9
 892 1309 892 1309 996 1211 c 128,-1,10
 1100 1113 1100 1113 1100 936 c 0,11,12
 1100 903 1100 903 1095 856 c 2,13,-1
 1030 334 l 1,14,-1
 828 334 l 1,15,-1
 850 447 l 1,16,17
 764 319 764 319 600 319 c 0,18,19
 483 319 483 319 412 384.5 c 128,-1,20
 341 450 341 450 341 562 c 0,21,22
 341 915 341 915 885 920 c 1,23,-1
 885 940 l 2,24,25
 885 1137 885 1137 668 1137 c 0,26,27
 487 1137 487 1137 364 981 c 128,-1,28
 241 825 241 825 241 555 c 0,29,30
 241 359 241 359 339 248 c 128,-1,31
 437 137 437 137 612 137 c 0,32,33
 754 137 754 137 873 221 c 1,34,-1
 943 70 l 1,35,36
 793 -29 793 -29 586 -29 c 0,0,1
656 481 m 0,37,38
 748 481 748 481 803.5 562 c 128,-1,39
 859 643 859 643 877 786 c 1,40,41
 710 784 710 784 629.5 736 c 128,-1,42
 549 688 549 688 549 583 c 0,43,44
 549 481 549 481 656 481 c 0,37,38
EndSplineSet
EndChar

StartChar: A
Encoding: 65 65 36
Width: 1126
GlyphClass: 2
Flags: W
LayerCount: 2
Fore
SplineSet
-30 0 m 1,0,-1
 580 1298 l 1,1,-1
 725 1298 l 1,2,-1
 1026 0 l 1,3,-1
 796 0 l 1,4,-1
 727 319 l 1,5,-1
 336 319 l 1,6,-1
 196 0 l 1,7,-1
 -30 0 l 1,0,-1
420 510 m 1,8,-1
 685 510 l 1,9,-1
 598 915 l 1,10,-1
 420 510 l 1,8,-1
EndSplineSet
EndChar

StartChar: B
Encoding: 66 66 37
Width: 1126
GlyphClass: 2
Flags: W
LayerCount: 2
Fore
SplineSet
687 1276 m 2,0,1
 862 1276 862 1276 953 1204 c 128,-1,2
 1044 1132 1044 1132 1044 1011 c 0,3,4
 1044 786 1044 786 836 684 c 1,5,6
 931 638 931 638 972.5 572.5 c 128,-1,7
 1014 507 1014 507 1014 416 c 0,8,9
 1014 199 1014 199 876 99.5 c 128,-1,10
 738 0 738 0 469 0 c 2,11,-1
 57 0 l 1,12,-1
 213 1276 l 1,13,-1
 687 1276 l 2,0,1
599 784 m 2,14,15
 692 784 692 784 746.5 820.5 c 128,-1,16
 801 857 801 857 801 953 c 0,17,18
 801 1017 801 1017 756 1046 c 128,-1,19
 711 1075 711 1075 605 1075 c 2,20,-1
 425 1075 l 1,21,-1
 389 784 l 1,22,-1
 599 784 l 2,14,15
515 201 m 2,23,24
 653 201 653 201 715 256 c 128,-1,25
 777 311 777 311 777 427 c 0,26,27
 777 583 777 583 590 583 c 2,28,-1
 364 583 l 1,29,-1
 317 201 l 1,30,-1
 515 201 l 2,23,24
EndSplineSet
EndChar

StartChar: C
Encoding: 67 67 38
Width: 1126
GlyphClass: 2
Flags: W
LayerCount: 2
Fore
SplineSet
835 933 m 1,0,-1
 841 977 l 1,1,2
 841 1042 841 1042 799 1078.5 c 128,-1,3
 757 1115 757 1115 691 1115 c 0,4,5
 555 1115 555 1115 469.5 994 c 128,-1,6
 384 873 384 873 354 641 c 0,7,8
 343 553 343 553 343 487 c 0,9,10
 343 321 343 321 401 238.5 c 128,-1,11
 459 156 459 156 565 156 c 0,12,13
 708 156 708 156 811 326 c 1,14,-1
 971 213 l 1,15,16
 809 -37 809 -37 526 -37 c 0,17,18
 318 -37 318 -37 209.5 93.5 c 128,-1,19
 101 224 101 224 101 468 c 0,20,21
 101 540 101 540 112 631 c 0,22,23
 153 953 153 953 308.5 1131 c 128,-1,24
 464 1309 464 1309 711 1309 c 0,25,26
 867 1309 867 1309 953.5 1233 c 128,-1,27
 1040 1157 1040 1157 1072 997 c 1,28,-1
 840 910 l 1,29,30
 835 921 835 921 835 933 c 1,0,-1
EndSplineSet
EndChar

StartChar: D
Encoding: 68 68 39
Width: 1126
GlyphClass: 2
Flags: W
LayerCount: 2
Fore
SplineSet
578 1276 m 2,0,1
 811 1276 811 1276 937.5 1142 c 128,-1,2
 1064 1008 1064 1008 1064 764 c 0,3,4
 1064 588 1064 588 1015 444 c 128,-1,5
 966 300 966 300 878.5 203 c 128,-1,6
 791 106 791 106 667.5 53 c 128,-1,7
 544 0 544 0 397 0 c 2,8,-1
 59 0 l 1,9,-1
 215 1276 l 1,10,-1
 578 1276 l 2,0,1
437 201 m 2,11,12
 608 201 608 201 719.5 345.5 c 128,-1,13
 831 490 831 490 831 734 c 0,14,15
 831 896 831 896 758.5 985.5 c 128,-1,16
 686 1075 686 1075 556 1075 c 2,17,-1
 427 1075 l 1,18,-1
 319 201 l 1,19,-1
 437 201 l 2,11,12
EndSplineSet
EndChar

StartChar: E
Encoding: 69 69 40
Width: 1126
GlyphClass: 2
Flags: W
LayerCount: 2
Fore
SplineSet
64 0 m 1,0,-1
 220 1276 l 1,1,-1
 1054 1276 l 1,2,-1
 1030 1075 l 1,3,-1
 422 1075 l 1,4,-1
 383 764 l 1,5,-1
 887 764 l 1,6,-1
 863 563 l 1,7,-1
 359 563 l 1,8,-1
 314 201 l 1,9,-1
 918 201 l 1,10,-1
 894 0 l 1,11,-1
 64 0 l 1,0,-1
EndSplineSet
EndChar

StartChar: F
Encoding: 70 70 41
Width: 1126
GlyphClass: 2
Flags: W
LayerCount: 2
Fore
SplineSet
85 0 m 1,0,-1
 241 1276 l 1,1,-1
 1040 1276 l 1,2,-1
 1016 1075 l 1,3,-1
 453 1075 l 1,4,-1
 417 787 l 1,5,-1
 871 787 l 1,6,-1
 847 586 l 1,7,-1
 393 586 l 1,8,-1
 321 0 l 1,9,-1
 85 0 l 1,0,-1
EndSplineSet
EndChar

StartChar: G
Encoding: 71 71 42
Width: 1126
GlyphClass: 2
Flags: W
LayerCount: 2
Fore
SplineSet
835 936 m 1,0,-1
 841 979 l 1,1,2
 841 1041 841 1041 798 1078 c 128,-1,3
 755 1115 755 1115 681 1115 c 0,4,5
 542 1115 542 1115 435 997.5 c 128,-1,6
 328 880 328 880 293 653 c 0,7,8
 281 578 281 578 281 512 c 0,9,10
 281 350 281 350 346.5 254 c 128,-1,11
 412 158 412 158 534 158 c 0,12,13
 583 158 583 158 641.5 172.5 c 128,-1,14
 700 187 700 187 733 211 c 1,15,-1
 762 451 l 1,16,-1
 525 451 l 1,17,-1
 550 652 l 1,18,-1
 1023 652 l 1,19,-1
 956 109 l 1,20,21
 875 42 875 42 744 2.5 c 128,-1,22
 613 -37 613 -37 495 -37 c 0,23,24
 284 -37 284 -37 163.5 100.5 c 128,-1,25
 43 238 43 238 43 493 c 0,26,27
 43 873 43 873 222.5 1091 c 128,-1,28
 402 1309 402 1309 710 1309 c 0,29,30
 1050 1309 1050 1309 1065 997 c 1,31,-1
 840 910 l 1,32,33
 835 924 835 924 835 936 c 1,0,-1
EndSplineSet
EndChar

StartChar: H
Encoding: 72 72 43
Width: 1126
GlyphClass: 2
Flags: W
LayerCount: 2
Fore
SplineSet
10 0 m 1,0,-1
 166 1276 l 1,1,-1
 418 1276 l 1,2,3
 415 1253 415 1253 405 1237.5 c 128,-1,4
 395 1222 395 1222 393 1204 c 2,5,-1
 339 762 l 1,6,-1
 805 762 l 1,7,-1
 868 1276 l 1,8,-1
 1120 1276 l 1,9,10
 1117 1253 1117 1253 1107 1237.5 c 128,-1,11
 1097 1222 1097 1222 1095 1204 c 2,12,-1
 948 0 l 1,13,-1
 712 0 l 1,14,-1
 781 561 l 1,15,-1
 315 561 l 1,16,-1
 246 0 l 1,17,-1
 10 0 l 1,0,-1
EndSplineSet
EndChar

StartChar: I
Encoding: 73 73 44
Width: 1126
GlyphClass: 2
Flags: W
LayerCount: 2
Fore
SplineSet
129 0 m 1,0,-1
 154 203 l 1,1,-1
 385 203 l 1,2,-1
 492 1075 l 1,3,-1
 261 1075 l 1,4,-1
 285 1276 l 1,5,-1
 997 1276 l 1,6,-1
 973 1075 l 1,7,-1
 728 1075 l 1,8,-1
 620 201 l 1,9,-1
 865 201 l 1,10,-1
 841 0 l 1,11,-1
 129 0 l 1,0,-1
EndSplineSet
EndChar

StartChar: J
Encoding: 74 74 45
Width: 1126
GlyphClass: 2
Flags: W
LayerCount: 2
Fore
SplineSet
238 311 m 2,0,-1
 238 299 l 2,1,2
 238 255 238 255 274 216 c 128,-1,3
 310 177 310 177 379 177 c 128,-1,4
 448 177 448 177 486.5 227.5 c 128,-1,5
 525 278 525 278 540 403 c 2,6,-1
 621 1075 l 1,7,-1
 357 1075 l 1,8,-1
 381 1276 l 1,9,-1
 1090 1276 l 1,10,-1
 1066 1075 l 1,11,-1
 857 1075 l 1,12,-1
 775 412 l 2,13,14
 760 288 760 288 720 198.5 c 128,-1,15
 680 109 680 109 622 60 c 0,16,17
 511 -35 511 -35 353 -35 c 0,18,19
 146 -35 146 -35 32 143 c 1,20,-1
 224 351 l 1,21,22
 238 333 238 333 238 311 c 2,0,-1
EndSplineSet
EndChar

StartChar: K
Encoding: 75 75 46
Width: 1126
GlyphClass: 2
Flags: W
LayerCount: 2
Fore
SplineSet
995 1276 m 2,0,-1
 1136 1276 l 1,1,-1
 625 780 l 1,2,-1
 998 2 l 1,3,-1
 718 -10 l 1,4,-1
 444 604 l 1,5,-1
 348 511 l 1,6,-1
 285 0 l 1,7,-1
 49 0 l 1,8,-1
 206 1276 l 1,9,-1
 458 1276 l 1,10,11
 455 1253 455 1253 445 1237.5 c 128,-1,12
 435 1222 435 1222 433 1204 c 2,13,-1
 382 788 l 1,14,-1
 878 1292 l 1,15,16
 948 1276 948 1276 995 1276 c 2,0,-1
EndSplineSet
EndChar

StartChar: L
Encoding: 76 76 47
Width: 1126
GlyphClass: 2
Flags: W
LayerCount: 2
Fore
SplineSet
108 0 m 1,0,-1
 264 1276 l 1,1,-1
 516 1276 l 1,2,3
 513 1253 513 1253 503 1237.5 c 128,-1,4
 493 1222 493 1222 491 1204 c 2,5,-1
 368 193 l 1,6,-1
 912 193 l 1,7,-1
 889 0 l 1,8,-1
 108 0 l 1,0,-1
EndSplineSet
EndChar

StartChar: M
Encoding: 77 77 48
Width: 1126
GlyphClass: 2
Flags: W
LayerCount: 2
Fore
SplineSet
-7 0 m 1,0,-1
 149 1276 l 1,1,-1
 397 1276 l 1,2,-1
 505 903 l 1,3,-1
 567 660 l 1,4,-1
 692 905 l 1,5,-1
 891 1278 l 1,6,-1
 1133 1278 l 1,7,-1
 977 0 l 1,8,-1
 751 0 l 1,9,-1
 834 683 l 1,10,-1
 881 935 l 1,11,-1
 770 700 l 1,12,-1
 583 364 l 1,13,-1
 467 364 l 1,14,-1
 305 936 l 1,15,-1
 293 685 l 1,16,-1
 209 0 l 1,17,-1
 -7 0 l 1,0,-1
EndSplineSet
EndChar

StartChar: N
Encoding: 78 78 49
Width: 1126
GlyphClass: 2
Flags: W
LayerCount: 2
Fore
SplineSet
1106 1276 m 1,0,1
 1106 1267 1106 1267 1096.5 1246.5 c 128,-1,2
 1087 1226 1087 1226 1083 1204 c 1,3,-1
 936 0 l 1,4,-1
 703 0 l 1,5,-1
 443 769 l 1,6,-1
 365 1023 l 1,7,-1
 354 766 l 1,8,-1
 260 0 l 1,9,-1
 44 0 l 1,10,-1
 200 1276 l 1,11,-1
 480 1276 l 1,12,-1
 680 668 l 1,13,-1
 784 362 l 1,14,-1
 804 685 l 1,15,-1
 876 1276 l 1,16,-1
 1106 1276 l 1,0,1
EndSplineSet
EndChar

StartChar: O
Encoding: 79 79 50
Width: 1126
GlyphClass: 2
Flags: W
LayerCount: 2
Fore
SplineSet
482 -37 m 0,0,1
 276 -37 276 -37 165 100.5 c 128,-1,2
 54 238 54 238 54 486 c 128,-1,3
 54 734 54 734 130 922 c 128,-1,4
 206 1110 206 1110 340.5 1209.5 c 128,-1,5
 475 1309 475 1309 648 1309 c 0,6,7
 853 1309 853 1309 963.5 1175 c 128,-1,8
 1074 1041 1074 1041 1074 790.5 c 128,-1,9
 1074 540 1074 540 996.5 350 c 128,-1,10
 919 160 919 160 785.5 61.5 c 128,-1,11
 652 -37 652 -37 482 -37 c 0,0,1
508 158 m 0,12,13
 648 158 648 158 741.5 335.5 c 128,-1,14
 835 513 835 513 835 794 c 0,15,16
 835 1114 835 1114 625 1114 c 0,17,18
 485 1114 485 1114 390 948 c 128,-1,19
 295 782 295 782 295 506 c 0,20,21
 295 344 295 344 350 251 c 128,-1,22
 405 158 405 158 508 158 c 0,12,13
EndSplineSet
EndChar

StartChar: P
Encoding: 80 80 51
Width: 1126
GlyphClass: 2
Flags: W
LayerCount: 2
Fore
SplineSet
653 1276 m 2,0,1
 838 1276 838 1276 939.5 1194.5 c 128,-1,2
 1041 1113 1041 1113 1041 961 c 0,3,4
 1041 759 1041 759 911.5 637.5 c 128,-1,5
 782 516 782 516 570 516 c 2,6,-1
 361 516 l 1,7,-1
 298 0 l 1,8,-1
 62 0 l 1,9,-1
 218 1276 l 1,10,-1
 653 1276 l 2,0,1
578 717 m 2,11,12
 685 717 685 717 743.5 768.5 c 128,-1,13
 802 820 802 820 802 924 c 0,14,15
 802 998 802 998 756 1036.5 c 128,-1,16
 710 1075 710 1075 624 1075 c 2,17,-1
 430 1075 l 1,18,-1
 386 717 l 1,19,-1
 578 717 l 2,11,12
EndSplineSet
EndChar

StartChar: Q
Encoding: 81 81 52
Width: 1126
GlyphClass: 2
Flags: W
LayerCount: 2
Fore
SplineSet
54 486 m 0,0,1
 54 861 54 861 219.5 1085 c 128,-1,2
 385 1309 385 1309 648 1309 c 0,3,4
 853 1309 853 1309 963.5 1175 c 128,-1,5
 1074 1041 1074 1041 1074 793 c 0,6,7
 1074 438 1074 438 927 216 c 128,-1,8
 780 -6 780 -6 546 -33 c 1,9,10
 546 -74 546 -74 560.5 -87 c 128,-1,11
 575 -100 575 -100 612 -100 c 0,12,13
 622 -100 622 -100 860 -92 c 1,14,-1
 828 -299 l 1,15,-1
 664 -299 l 2,16,17
 503 -299 503 -299 429 -243.5 c 128,-1,18
 355 -188 355 -188 355 -65 c 0,19,20
 355 -52 355 -52 357 -22 c 1,21,22
 210 17 210 17 132 148.5 c 128,-1,23
 54 280 54 280 54 486 c 0,0,1
508 158 m 0,24,25
 648 158 648 158 741.5 335.5 c 128,-1,26
 835 513 835 513 835 794 c 0,27,28
 835 1114 835 1114 625 1114 c 0,29,30
 485 1114 485 1114 390 948 c 128,-1,31
 295 782 295 782 295 506 c 0,32,33
 295 344 295 344 350 251 c 128,-1,34
 405 158 405 158 508 158 c 0,24,25
EndSplineSet
EndChar

StartChar: R
Encoding: 82 82 53
Width: 1126
GlyphClass: 2
Flags: W
LayerCount: 2
Fore
SplineSet
653 1276 m 2,0,1
 842 1276 842 1276 943 1201.5 c 128,-1,2
 1044 1127 1044 1127 1044 979.5 c 128,-1,3
 1044 832 1044 832 972.5 730.5 c 128,-1,4
 901 629 901 629 777 587 c 1,5,-1
 963 0 l 1,6,-1
 705 0 l 1,7,-1
 550 556 l 1,8,-1
 366 556 l 1,9,-1
 298 0 l 1,10,-1
 62 0 l 1,11,-1
 218 1276 l 1,12,-1
 653 1276 l 2,0,1
583 757 m 2,13,14
 693 757 693 757 749 797.5 c 128,-1,15
 805 838 805 838 805 942 c 0,16,17
 805 1013 805 1013 759 1044 c 128,-1,18
 713 1075 713 1075 624 1075 c 2,19,-1
 430 1075 l 1,20,-1
 391 757 l 1,21,-1
 583 757 l 2,13,14
EndSplineSet
EndChar

StartChar: S
Encoding: 83 83 54
Width: 1126
GlyphClass: 2
Flags: W
LayerCount: 2
Fore
SplineSet
218 344 m 1,0,-1
 217 326 l 2,1,2
 217 308 217 308 238.5 281 c 128,-1,3
 260 254 260 254 295.5 226.5 c 128,-1,4
 331 199 331 199 385.5 179.5 c 128,-1,5
 440 160 440 160 497 160 c 0,6,7
 586 160 586 160 650 210 c 128,-1,8
 714 260 714 260 714 353 c 0,9,10
 714 418 714 418 667 462.5 c 128,-1,11
 620 507 620 507 505 571 c 0,12,13
 353 655 353 655 300 700 c 0,14,15
 234 755 234 755 210 801 c 0,16,17
 178 864 178 864 178 930 c 0,18,19
 178 1106 178 1106 299 1207.5 c 128,-1,20
 420 1309 420 1309 617 1309 c 0,21,22
 873 1309 873 1309 1011 1122 c 1,23,-1
 842 931 l 1,24,25
 826 947 826 947 826 965 c 128,-1,26
 826 983 826 983 813.5 1007 c 128,-1,27
 801 1031 801 1031 776 1056 c 128,-1,28
 751 1081 751 1081 705 1098 c 128,-1,29
 659 1115 659 1115 590.5 1115 c 128,-1,30
 522 1115 522 1115 470.5 1079 c 128,-1,31
 419 1043 419 1043 419 967 c 0,32,33
 419 908 419 908 473 860.5 c 128,-1,34
 527 813 527 813 634 754 c 128,-1,35
 741 695 741 695 793 659.5 c 128,-1,36
 845 624 845 624 885 582 c 128,-1,37
 925 540 925 540 942 493 c 128,-1,38
 959 446 959 446 959 387 c 0,39,40
 959 205 959 205 827 84 c 128,-1,41
 695 -37 695 -37 474 -37 c 0,42,43
 208 -37 208 -37 38 156 c 1,44,-1
 198 385 l 1,45,46
 218 364 218 364 218 344 c 1,0,-1
EndSplineSet
EndChar

StartChar: T
Encoding: 84 84 55
Width: 1126
GlyphClass: 2
Flags: W
LayerCount: 2
Fore
SplineSet
348 0 m 1,0,-1
 480 1075 l 1,1,-1
 135 1075 l 1,2,-1
 159 1276 l 1,3,-1
 1099 1276 l 1,4,-1
 1075 1075 l 1,5,-1
 716 1075 l 1,6,-1
 584 0 l 1,7,-1
 348 0 l 1,0,-1
EndSplineSet
EndChar

StartChar: U
Encoding: 85 85 56
Width: 1126
GlyphClass: 2
Flags: W
LayerCount: 2
Fore
SplineSet
311 389 m 0,0,1
 311 277 311 277 364 217.5 c 128,-1,2
 417 158 417 158 513.5 158 c 128,-1,3
 610 158 610 158 683.5 235.5 c 128,-1,4
 757 313 757 313 774 455 c 2,5,-1
 875 1276 l 1,6,-1
 1101 1276 l 1,7,-1
 1000 457 l 2,8,9
 971 223 971 223 830.5 93 c 128,-1,10
 690 -37 690 -37 479 -37 c 0,11,12
 290 -37 290 -37 181.5 68 c 128,-1,13
 73 173 73 173 73 364 c 0,14,15
 73 406 73 406 79 451 c 2,16,-1
 179 1276 l 1,17,-1
 431 1276 l 1,18,19
 429 1253 429 1253 418.5 1237 c 128,-1,20
 408 1221 408 1221 406 1204 c 2,21,-1
 315 449 l 2,22,23
 311 421 311 421 311 389 c 0,0,1
EndSplineSet
EndChar

StartChar: V
Encoding: 86 86 57
Width: 1126
GlyphClass: 2
Flags: W
LayerCount: 2
Fore
SplineSet
406 0 m 1,0,-1
 128 1276 l 1,1,-1
 370 1276 l 1,2,-1
 547 371 l 1,3,-1
 932 1276 l 1,4,-1
 1168 1276 l 1,5,-1
 582 0 l 1,6,-1
 406 0 l 1,0,-1
EndSplineSet
EndChar

StartChar: W
Encoding: 87 87 58
Width: 1126
GlyphClass: 2
Flags: W
LayerCount: 2
Fore
SplineSet
309 1276 m 1,0,-1
 309 404 l 1,1,-1
 405 690 l 1,2,-1
 573 1171 l 1,3,-1
 695 1171 l 1,4,-1
 757 691 l 1,5,-1
 778 404 l 1,6,-1
 842 691 l 1,7,-1
 978 1276 l 1,8,-1
 1191 1276 l 1,9,-1
 833 0 l 1,10,-1
 661 0 l 1,11,-1
 598 536 l 1,12,-1
 579 747 l 1,13,-1
 512 537 l 1,14,-1
 300 0 l 1,15,-1
 121 0 l 1,16,-1
 91 1276 l 1,17,-1
 309 1276 l 1,0,-1
EndSplineSet
EndChar

StartChar: X
Encoding: 88 88 59
Width: 1126
GlyphClass: 2
Flags: W
LayerCount: 2
Fore
SplineSet
-25 0 m 1,0,-1
 433 653 l 1,1,-1
 105 1276 l 1,2,-1
 355 1276 l 1,3,-1
 602 812 l 1,4,-1
 931 1276 l 1,5,-1
 1159 1276 l 1,6,-1
 703 622 l 1,7,-1
 1034 0 l 1,8,-1
 776 0 l 1,9,-1
 532 464 l 1,10,-1
 225 0 l 1,11,-1
 -25 0 l 1,0,-1
EndSplineSet
EndChar

StartChar: Y
Encoding: 89 89 60
Width: 1126
GlyphClass: 2
Flags: W
LayerCount: 2
Fore
SplineSet
379 0 m 1,0,-1
 440 499 l 1,1,-1
 106 1276 l 1,2,-1
 362 1276 l 1,3,-1
 484 942 l 1,4,-1
 576 661 l 1,5,-1
 722 943 l 1,6,-1
 908 1276 l 1,7,-1
 1162 1276 l 1,8,-1
 676 497 l 1,9,-1
 615 0 l 1,10,-1
 379 0 l 1,0,-1
EndSplineSet
EndChar

StartChar: Z
Encoding: 90 90 61
Width: 1126
GlyphClass: 2
Flags: W
LayerCount: 2
Fore
SplineSet
876 201 m 2,0,1
 891 201 891 201 912.5 210 c 128,-1,2
 934 219 934 219 952 219 c 1,3,-1
 926 0 l 1,4,-1
 36 0 l 1,5,-1
 53 139 l 1,6,-1
 735 1073 l 1,7,-1
 179 1073 l 1,8,-1
 204 1276 l 1,9,-1
 1052 1276 l 1,10,-1
 1035 1137 l 1,11,-1
 363 201 l 1,12,-1
 876 201 l 2,0,1
EndSplineSet
EndChar

StartChar: bracketleft
Encoding: 91 91 62
Width: 1126
GlyphClass: 2
Flags: W
LayerCount: 2
Fore
SplineSet
134 -416 m 1,0,-1
 350 1343 l 1,1,-1
 985 1343 l 1,2,-1
 962 1153 l 1,3,-1
 542 1153 l 1,4,-1
 372 -232 l 1,5,-1
 792 -232 l 1,6,-1
 769 -416 l 1,7,-1
 134 -416 l 1,0,-1
EndSplineSet
EndChar

StartChar: backslash
Encoding: 92 92 63
Width: 1126
GlyphClass: 2
Flags: W
LayerCount: 2
Fore
SplineSet
683 -96 m 1,0,-1
 213 1280 l 1,1,-1
 403 1374 l 1,2,-1
 872 -10 l 1,3,-1
 683 -96 l 1,0,-1
EndSplineSet
EndChar

StartChar: bracketright
Encoding: 93 93 64
Width: 1126
GlyphClass: 2
Flags: W
LayerCount: 2
Fore
SplineSet
157 -226 m 1,0,-1
 577 -226 l 1,1,-1
 747 1159 l 1,2,-1
 327 1159 l 1,3,-1
 350 1343 l 1,4,-1
 985 1343 l 1,5,-1
 769 -416 l 1,6,-1
 134 -416 l 1,7,-1
 157 -226 l 1,0,-1
EndSplineSet
EndChar

StartChar: asciicircum
Encoding: 94 94 65
Width: 1126
GlyphClass: 2
Flags: W
LayerCount: 2
Fore
SplineSet
329 680 m 1,0,-1
 171 760 l 1,1,-1
 566 1280 l 1,2,-1
 640 1280 l 1,3,-1
 869 760 l 1,4,-1
 691 680 l 1,5,-1
 565 1034 l 1,6,-1
 329 680 l 1,0,-1
EndSplineSet
EndChar

StartChar: underscore
Encoding: 95 95 66
Width: 1126
GlyphClass: 2
Flags: W
LayerCount: 2
Fore
SplineSet
84 -39 m 1,0,-1
 966 -39 l 1,1,-1
 944 -226 l 1,2,-1
 62 -226 l 1,3,-1
 84 -39 l 1,0,-1
EndSplineSet
EndChar

StartChar: grave
Encoding: 96 96 67
Width: 1126
GlyphClass: 2
Flags: W
LayerCount: 2
Fore
SplineSet
566 1029 m 1,0,-1
 370 1340 l 1,1,-1
 549 1452 l 1,2,-1
 688 1096 l 1,3,-1
 566 1029 l 1,0,-1
EndSplineSet
EndChar

StartChar: a
Encoding: 97 97 68
Width: 1126
GlyphClass: 2
Flags: W
LayerCount: 2
Fore
SplineSet
404 -21 m 0,0,1
 245 -21 245 -21 156.5 88 c 128,-1,2
 68 197 68 197 68 376 c 0,3,4
 68 501 68 501 99.5 603.5 c 128,-1,5
 131 706 131 706 183 774 c 128,-1,6
 235 842 235 842 305 889 c 0,7,8
 436 977 436 977 603 977 c 0,9,10
 721 977 721 977 824 939 c 1,11,-1
 1054 962 l 1,12,13
 1051 941 1051 941 1041 915 c 128,-1,14
 1031 889 1031 889 1029 869 c 2,15,-1
 946 175 l 2,16,17
 941 130 941 130 941 85.5 c 128,-1,18
 941 41 941 41 949 0 c 1,19,-1
 726 0 l 1,20,21
 715 40 715 40 715 76 c 128,-1,22
 715 112 715 112 718 137 c 1,23,24
 692 92 692 92 652 59 c 128,-1,25
 612 26 612 26 568 10 c 0,26,27
 485 -21 485 -21 404 -21 c 0,0,1
348.5 225.5 m 128,-1,29
 395 163 395 163 491.5 163 c 128,-1,30
 588 163 588 163 658 242 c 128,-1,31
 728 321 728 321 748 453 c 1,32,-1
 789 788 l 1,33,34
 723 807 723 807 666 807 c 128,-1,35
 609 807 609 807 559.5 793.5 c 128,-1,36
 510 780 510 780 463 748 c 128,-1,37
 416 716 416 716 380.5 669.5 c 128,-1,38
 345 623 345 623 323.5 551.5 c 128,-1,39
 302 480 302 480 302 384 c 128,-1,28
 302 288 302 288 348.5 225.5 c 128,-1,29
EndSplineSet
EndChar

StartChar: b
Encoding: 98 98 69
Width: 1126
GlyphClass: 2
Flags: W
LayerCount: 2
Fore
SplineSet
722 967 m 0,0,1
 879 967 879 967 966.5 862.5 c 128,-1,2
 1054 758 1054 758 1054 576 c 0,3,4
 1054 450 1054 450 1023 347 c 128,-1,5
 992 244 992 244 940.5 175 c 128,-1,6
 889 106 889 106 819 59 c 0,7,8
 686 -30 686 -30 519 -30 c 0,9,10
 400 -30 400 -30 299 8 c 1,11,-1
 82 -14 l 1,12,-1
 246 1362 l 1,13,-1
 492 1362 l 1,14,15
 491 1338 491 1338 479.5 1316.5 c 128,-1,16
 468 1295 468 1295 466 1275 c 2,17,-1
 413 818 l 1,18,19
 531 967 531 967 722 967 c 0,0,1
332 159 m 1,20,21
 398 140 398 140 463 140 c 128,-1,22
 528 140 528 140 589 163 c 128,-1,23
 650 186 650 186 703 233 c 128,-1,24
 756 280 756 280 787.5 363.5 c 128,-1,25
 819 447 819 447 819 554.5 c 128,-1,26
 819 662 819 662 773.5 723 c 128,-1,27
 728 784 728 784 632.5 784 c 128,-1,28
 537 784 537 784 466 705.5 c 128,-1,29
 395 627 395 627 375 497 c 1,30,-1
 332 159 l 1,20,21
EndSplineSet
EndChar

StartChar: c
Encoding: 99 99 70
Width: 1126
GlyphClass: 2
Flags: W
LayerCount: 2
Fore
SplineSet
648 977 m 0,0,1
 777 977 777 977 872 927.5 c 128,-1,2
 967 878 967 878 1014 790 c 1,3,-1
 842 616 l 1,4,5
 830 632 830 632 830 648 c 2,6,-1
 830 665 l 2,7,8
 830 716 830 716 774 752 c 128,-1,9
 718 788 718 788 636 788 c 0,10,11
 499 788 499 788 417.5 686 c 128,-1,12
 336 584 336 584 336 407 c 0,13,14
 336 291 336 291 391 224 c 128,-1,15
 446 157 446 157 555 157 c 0,16,17
 693 157 693 157 820 280 c 1,18,-1
 926 119 l 1,19,20
 761 -33 761 -33 547 -33 c 128,-1,21
 333 -33 333 -33 221 84 c 128,-1,22
 109 201 109 201 109 395 c 0,23,24
 109 436 109 436 113 469 c 0,25,26
 138 694 138 694 281.5 835.5 c 128,-1,27
 425 977 425 977 648 977 c 0,0,1
EndSplineSet
EndChar

StartChar: d
Encoding: 100 100 71
Width: 1126
GlyphClass: 2
Flags: W
LayerCount: 2
Fore
SplineSet
404 -21 m 0,0,1
 245 -21 245 -21 156.5 88 c 128,-1,2
 68 197 68 197 68 376 c 0,3,4
 68 501 68 501 99.5 603.5 c 128,-1,5
 131 706 131 706 183 774 c 128,-1,6
 235 842 235 842 305 889 c 0,7,8
 436 977 436 977 603 977 c 0,9,10
 709 977 709 977 807 945 c 1,11,-1
 858 1362 l 1,12,-1
 1104 1362 l 1,13,14
 1103 1338 1103 1338 1091.5 1316.5 c 128,-1,15
 1080 1295 1080 1295 1078 1275 c 2,16,-1
 946 175 l 2,17,18
 941 130 941 130 941 85.5 c 128,-1,19
 941 41 941 41 949 0 c 1,20,-1
 726 0 l 1,21,22
 715 40 715 40 715 76 c 128,-1,23
 715 112 715 112 718 137 c 1,24,25
 692 92 692 92 652 59 c 128,-1,26
 612 26 612 26 568 10 c 0,27,28
 485 -21 485 -21 404 -21 c 0,0,1
348.5 225.5 m 128,-1,30
 395 163 395 163 491.5 163 c 128,-1,31
 588 163 588 163 658 242 c 128,-1,32
 728 321 728 321 748 453 c 1,33,-1
 788 789 l 1,34,35
 726 807 726 807 661 807 c 128,-1,36
 596 807 596 807 535 784 c 128,-1,37
 474 761 474 761 420.5 714.5 c 128,-1,38
 367 668 367 668 334.5 584.5 c 128,-1,39
 302 501 302 501 302 394.5 c 128,-1,29
 302 288 302 288 348.5 225.5 c 128,-1,30
EndSplineSet
EndChar

StartChar: e
Encoding: 101 101 72
Width: 1126
GlyphClass: 2
Flags: W
LayerCount: 2
Fore
SplineSet
625 977 m 0,0,1
 788 977 788 977 875 896 c 128,-1,2
 962 815 962 815 962 677 c 0,3,4
 962 581 962 581 914 534.5 c 128,-1,5
 866 488 866 488 751 469 c 1,6,-1
 322 408 l 1,7,8
 322 277 322 277 382.5 213.5 c 128,-1,9
 443 150 443 150 553 150 c 0,10,11
 714 150 714 150 830 266 c 1,12,-1
 953 139 l 1,13,14
 771 -33 771 -33 523 -33 c 0,15,16
 320 -33 320 -33 214.5 73 c 128,-1,17
 109 179 109 179 109 372 c 0,18,19
 109 418 109 418 115 467 c 0,20,21
 143 703 143 703 278 840 c 128,-1,22
 413 977 413 977 625 977 c 0,0,1
751 703 m 0,23,24
 751 800 751 800 619 800 c 0,25,26
 516 800 516 800 441.5 742 c 128,-1,27
 367 684 367 684 343 581 c 1,28,-1
 671 628 l 2,29,30
 711 633 711 633 731 653.5 c 128,-1,31
 751 674 751 674 751 703 c 0,23,24
EndSplineSet
EndChar

StartChar: f
Encoding: 102 102 73
Width: 1126
GlyphClass: 2
Flags: W
LayerCount: 2
Fore
SplineSet
1044 1083 m 1,0,-1
 1046 1105 l 1,1,2
 1046 1147 1046 1147 1002 1177.5 c 128,-1,3
 958 1208 958 1208 891 1208 c 0,4,5
 800 1208 800 1208 747 1141 c 128,-1,6
 694 1074 694 1074 670 905 c 1,7,-1
 1013 905 l 1,8,-1
 990 719 l 1,9,-1
 647 719 l 1,10,-1
 549 -67 l 2,11,12
 520 -296 520 -296 427 -401 c 128,-1,13
 334 -506 334 -506 193 -506 c 0,14,15
 88 -506 88 -506 -22 -453 c 1,16,-1
 22 -207 l 1,17,18
 42 -216 42 -216 47.5 -224 c 128,-1,19
 53 -232 53 -232 56 -243 c 128,-1,20
 59 -254 59 -254 71 -265 c 0,21,22
 105 -295 105 -295 166 -295 c 0,23,24
 194 -295 194 -295 215 -287.5 c 128,-1,25
 236 -280 236 -280 258 -258 c 0,26,27
 302 -214 302 -214 318 -80 c 2,28,-1
 416 719 l 1,29,-1
 179 719 l 1,30,-1
 202 905 l 1,31,-1
 439 905 l 1,32,33
 469 1160 469 1160 581 1279.5 c 128,-1,34
 693 1399 693 1399 892 1399 c 0,35,36
 988 1399 988 1399 1063 1368 c 128,-1,37
 1138 1337 1138 1337 1206 1259 c 1,38,-1
 1063 1053 l 1,39,40
 1044 1071 1044 1071 1044 1083 c 1,0,-1
EndSplineSet
EndChar

StartChar: g
Encoding: 103 103 74
Width: 1126
GlyphClass: 2
Flags: W
LayerCount: 2
Fore
SplineSet
553 -261 m 0,0,1
 638 -209 638 -209 680 -95 c 0,2,3
 703 -32 703 -32 710 48 c 2,4,-1
 718 137 l 1,5,6
 692 92 692 92 652 59 c 128,-1,7
 612 26 612 26 568 10 c 0,8,9
 485 -21 485 -21 404 -21 c 0,10,11
 245 -21 245 -21 156.5 88 c 128,-1,12
 68 197 68 197 68 376 c 0,13,14
 68 500 68 500 99.5 602.5 c 128,-1,15
 131 705 131 705 183 773.5 c 128,-1,16
 235 842 235 842 304 888 c 0,17,18
 437 977 437 977 602 977 c 0,19,20
 721 977 721 977 824 939 c 1,21,-1
 1054 962 l 1,22,23
 1051 941 1051 941 1041 915 c 128,-1,24
 1031 889 1031 889 1029 869 c 2,25,-1
 931 48 l 1,26,27
 911 -102 911 -102 861.5 -211.5 c 128,-1,28
 812 -321 812 -321 740 -384 c 0,29,30
 600 -505 600 -505 392 -505 c 128,-1,31
 184 -505 184 -505 11 -380 c 1,32,-1
 107 -130 l 1,33,34
 131 -145 131 -145 134 -169 c 128,-1,35
 137 -193 137 -193 147 -206 c 0,36,37
 174 -240 174 -240 240 -273 c 128,-1,38
 306 -306 306 -306 392.5 -306 c 128,-1,39
 479 -306 479 -306 553 -261 c 0,0,1
348.5 231 m 128,-1,41
 395 171 395 171 491.5 171 c 128,-1,42
 588 171 588 171 658 247 c 128,-1,43
 728 323 728 323 748 453 c 1,44,-1
 789 788 l 1,45,46
 723 807 723 807 659.5 807 c 128,-1,47
 596 807 596 807 535 784 c 128,-1,48
 474 761 474 761 420.5 714.5 c 128,-1,49
 367 668 367 668 334.5 585 c 128,-1,50
 302 502 302 502 302 396.5 c 128,-1,40
 302 291 302 291 348.5 231 c 128,-1,41
EndSplineSet
EndChar

StartChar: h
Encoding: 104 104 75
Width: 1126
GlyphClass: 2
Flags: W
LayerCount: 2
Fore
SplineSet
761 977 m 0,0,1
 886 977 886 977 951 917.5 c 128,-1,2
 1016 858 1016 858 1016 718 c 0,3,4
 1016 670 1016 670 1011 630 c 2,5,-1
 956 175 l 2,6,7
 951 130 951 130 951 85.5 c 128,-1,8
 951 41 951 41 959 0 c 1,9,-1
 729 0 l 1,10,11
 718 41 718 41 718 81.5 c 128,-1,12
 718 122 718 122 722 149 c 2,13,-1
 779 628 l 2,14,15
 782 649 782 649 782 668 c 0,16,17
 782 788 782 788 662 788 c 0,18,19
 563 788 563 788 467.5 723.5 c 128,-1,20
 372 659 372 659 361 573 c 2,21,-1
 290 0 l 1,22,-1
 59 0 l 1,23,-1
 226 1362 l 1,24,-1
 472 1362 l 1,25,26
 471 1338 471 1338 459.5 1316.5 c 128,-1,27
 448 1295 448 1295 446 1275 c 2,28,-1
 395 835 l 1,29,30
 546 977 546 977 761 977 c 0,0,1
EndSplineSet
EndChar

StartChar: i
Encoding: 105 105 76
Width: 1126
GlyphClass: 2
Flags: W
LayerCount: 2
Fore
SplineSet
712.5 1153 m 128,-1,1
 664 1104 664 1104 599.5 1104 c 128,-1,2
 535 1104 535 1104 492.5 1145.5 c 128,-1,3
 450 1187 450 1187 450 1251.5 c 128,-1,4
 450 1316 450 1316 499 1365 c 128,-1,5
 548 1414 548 1414 612.5 1414 c 128,-1,6
 677 1414 677 1414 719 1372.5 c 128,-1,7
 761 1331 761 1331 761 1266.5 c 128,-1,0
 761 1202 761 1202 712.5 1153 c 128,-1,1
114 0 m 1,8,-1
 137 186 l 1,9,-1
 412 186 l 1,10,-1
 484 770 l 1,11,-1
 214 770 l 1,12,-1
 237 956 l 1,13,-1
 738 956 l 1,14,-1
 643 186 l 1,15,-1
 918 186 l 1,16,-1
 895 0 l 1,17,-1
 114 0 l 1,8,-1
EndSplineSet
EndChar

StartChar: j
Encoding: 106 106 77
Width: 1126
GlyphClass: 2
Flags: W
LayerCount: 2
Fore
SplineSet
916 1147.5 m 128,-1,1
 871 1104 871 1104 805.5 1104 c 128,-1,2
 740 1104 740 1104 695.5 1148 c 128,-1,3
 651 1192 651 1192 651 1256.5 c 128,-1,4
 651 1321 651 1321 697.5 1367.5 c 128,-1,5
 744 1414 744 1414 808.5 1414 c 128,-1,6
 873 1414 873 1414 917 1369 c 128,-1,7
 961 1324 961 1324 961 1257.5 c 128,-1,0
 961 1191 961 1191 916 1147.5 c 128,-1,1
214 -52 m 2,8,-1
 213 -73 l 1,9,10
 213 -96 213 -96 248 -130 c 1,11,12
 266 -146 266 -146 300.5 -157.5 c 128,-1,13
 335 -169 335 -169 379 -169 c 0,14,15
 450 -169 450 -169 492 -121 c 128,-1,16
 534 -73 534 -73 548 46 c 2,17,-1
 635 770 l 1,18,-1
 303 770 l 1,19,-1
 326 956 l 1,20,-1
 889 956 l 1,21,-1
 777 36 l 2,22,23
 751 -171 751 -171 637 -273 c 128,-1,24
 523 -375 523 -375 358 -375 c 0,25,26
 151 -375 151 -375 39 -214 c 1,27,-1
 202 -21 l 1,28,29
 214 -35 214 -35 214 -52 c 2,8,-1
EndSplineSet
EndChar

StartChar: k
Encoding: 107 107 78
Width: 1126
GlyphClass: 2
Flags: W
LayerCount: 2
Fore
SplineSet
904 956 m 2,0,-1
 1053 956 l 1,1,-1
 611 581 l 1,2,-1
 977 2 l 1,3,-1
 697 -8 l 1,4,-1
 438 434 l 1,5,-1
 347 357 l 1,6,-1
 303 0 l 1,7,-1
 72 0 l 1,8,-1
 234 1326 l 1,9,-1
 480 1326 l 1,10,11
 479 1302 479 1302 467.5 1280.5 c 128,-1,12
 456 1259 456 1259 454 1239 c 2,13,-1
 377 604 l 1,14,-1
 790 973 l 1,15,16
 860 956 860 956 904 956 c 2,0,-1
EndSplineSet
EndChar

StartChar: l
Encoding: 108 108 79
Width: 1126
GlyphClass: 2
Flags: W
LayerCount: 2
Fore
SplineSet
82 0 m 1,0,-1
 105 186 l 1,1,-1
 367 186 l 1,2,-1
 491 1196 l 1,3,-1
 242 1196 l 1,4,-1
 265 1382 l 1,5,-1
 745 1382 l 1,6,-1
 598 186 l 1,7,-1
 860 186 l 1,8,-1
 837 0 l 1,9,-1
 82 0 l 1,0,-1
EndSplineSet
EndChar

StartChar: m
Encoding: 109 109 80
Width: 1126
GlyphClass: 2
Flags: W
LayerCount: 2
Fore
SplineSet
514 978 m 0,0,1
 575 978 575 978 621 948 c 128,-1,2
 667 918 667 918 687 858 c 1,3,4
 807 978 807 978 939 978 c 0,5,6
 1029 978 1029 978 1068.5 932.5 c 128,-1,7
 1108 887 1108 887 1108 799 c 0,8,9
 1108 770 1108 770 1103 728 c 2,10,-1
 1036 175 l 2,11,12
 1031 130 1031 130 1031 85.5 c 128,-1,13
 1031 41 1031 41 1039 0 c 1,14,-1
 829 0 l 1,15,16
 818 41 818 41 818 81.5 c 128,-1,17
 818 122 818 122 822 149 c 2,18,-1
 890 709 l 2,19,20
 892 729 892 729 892 737 c 0,21,22
 892 793 892 793 847 793 c 0,23,24
 790 793 790 793 699 708 c 1,25,-1
 610 0 l 1,26,-1
 399 0 l 1,27,-1
 479 638 l 2,28,29
 484 683 484 683 484 719 c 0,30,31
 484 793 484 793 421 793 c 0,32,33
 374 793 374 793 335.5 763 c 128,-1,34
 297 733 297 733 290 675 c 2,35,-1
 205 0 l 1,36,-1
 -7 0 l 1,37,-1
 115 956 l 1,38,-1
 318 956 l 1,39,40
 316 935 316 935 304 910 c 128,-1,41
 292 885 292 885 288 864 c 1,42,43
 382 978 382 978 514 978 c 0,0,1
EndSplineSet
EndChar

StartChar: n
Encoding: 110 110 81
Width: 1126
GlyphClass: 2
Flags: W
LayerCount: 2
Fore
SplineSet
762 977 m 0,0,1
 887 977 887 977 953.5 919.5 c 128,-1,2
 1020 862 1020 862 1020 720 c 0,3,4
 1020 680 1020 680 1014 630 c 2,5,-1
 958 175 l 2,6,7
 953 130 953 130 953 85.5 c 128,-1,8
 953 41 953 41 961 0 c 1,9,-1
 731 0 l 1,10,11
 720 41 720 41 720 81.5 c 128,-1,12
 720 122 720 122 724 149 c 2,13,-1
 783 628 l 2,14,15
 786 649 786 649 786 668 c 0,16,17
 786 788 786 788 666 788 c 0,18,19
 562 788 562 788 468 724 c 128,-1,20
 374 660 374 660 364 573 c 2,21,-1
 294 0 l 1,22,-1
 63 0 l 1,23,-1
 178 956 l 1,24,-1
 424 956 l 1,25,26
 423 932 423 932 411.5 911.5 c 128,-1,27
 400 891 400 891 398 869 c 2,28,-1
 395 838 l 1,29,-1
 398 838 l 1,30,31
 554 977 554 977 762 977 c 0,0,1
EndSplineSet
EndChar

StartChar: o
Encoding: 111 111 82
Width: 1126
GlyphClass: 2
Flags: W
LayerCount: 2
Fore
SplineSet
629 977 m 0,0,1
 826 977 826 977 932.5 870.5 c 128,-1,2
 1039 764 1039 764 1039 569 c 0,3,4
 1039 288 1039 288 895 127.5 c 128,-1,5
 751 -33 751 -33 503 -33 c 0,6,7
 308 -33 308 -33 196.5 72 c 128,-1,8
 85 177 85 177 85 375 c 0,9,10
 85 420 85 420 91 469 c 0,11,12
 121 709 121 709 260 843 c 128,-1,13
 399 977 399 977 629 977 c 0,0,1
522 154 m 0,14,15
 642 154 642 154 722 259.5 c 128,-1,16
 802 365 802 365 802 550 c 0,17,18
 802 666 802 666 750 728 c 128,-1,19
 698 790 698 790 603 790 c 0,20,21
 484 790 484 790 403.5 687.5 c 128,-1,22
 323 585 323 585 323 395 c 0,23,24
 323 279 323 279 375 216.5 c 128,-1,25
 427 154 427 154 522 154 c 0,14,15
EndSplineSet
EndChar

StartChar: p
Encoding: 112 112 83
Width: 1126
GlyphClass: 2
Flags: W
LayerCount: 2
Fore
SplineSet
728 968 m 0,0,1
 880 968 880 968 967 859 c 128,-1,2
 1054 750 1054 750 1054 572 c 0,3,4
 1054 447 1054 447 1022.5 344 c 128,-1,5
 991 241 991 241 938.5 173 c 128,-1,6
 886 105 886 105 816 58 c 0,7,8
 685 -30 685 -30 519 -30 c 0,9,10
 410 -30 410 -30 313 3 c 1,11,-1
 293 -155 l 2,12,13
 288 -200 288 -200 288 -244.5 c 128,-1,14
 288 -289 288 -289 296 -330 c 1,15,-1
 66 -330 l 1,16,17
 55 -289 55 -289 55 -248.5 c 128,-1,18
 55 -208 55 -208 59 -181 c 2,19,-1
 200 956 l 1,20,-1
 446 956 l 1,21,22
 445 932 445 932 433.5 910.5 c 128,-1,23
 422 889 422 889 420 869 c 2,24,-1
 414 818 l 1,25,26
 546 968 546 968 728 968 c 0,0,1
332 159 m 1,27,28
 398 140 398 140 455.5 140 c 128,-1,29
 513 140 513 140 562 153.5 c 128,-1,30
 611 167 611 167 658.5 199 c 128,-1,31
 706 231 706 231 741 277.5 c 128,-1,32
 776 324 776 324 797.5 395.5 c 128,-1,33
 819 467 819 467 819 563 c 128,-1,34
 819 659 819 659 772.5 721.5 c 128,-1,35
 726 784 726 784 630.5 784 c 128,-1,36
 535 784 535 784 459.5 695 c 128,-1,37
 384 606 384 606 370 465 c 1,38,-1
 332 159 l 1,27,28
EndSplineSet
EndChar

StartChar: q
Encoding: 113 113 84
Width: 1126
GlyphClass: 2
Flags: W
LayerCount: 2
Fore
SplineSet
404 -21 m 0,0,1
 245 -21 245 -21 156.5 88 c 128,-1,2
 68 197 68 197 68 376 c 0,3,4
 68 501 68 501 99.5 603.5 c 128,-1,5
 131 706 131 706 183 774 c 128,-1,6
 235 842 235 842 305 889 c 0,7,8
 436 977 436 977 603 977 c 0,9,10
 721 977 721 977 824 939 c 1,11,-1
 1054 962 l 1,12,13
 1051 941 1051 941 1041 915 c 128,-1,14
 1031 889 1031 889 1029 869 c 2,15,-1
 906 -155 l 2,16,17
 901 -200 901 -200 901 -244.5 c 128,-1,18
 901 -289 901 -289 909 -330 c 1,19,-1
 679 -330 l 1,20,21
 668 -289 668 -289 668 -248.5 c 128,-1,22
 668 -208 668 -208 672 -181 c 2,23,-1
 708 121 l 1,24,25
 657 44 657 44 572.5 11.5 c 128,-1,26
 488 -21 488 -21 404 -21 c 0,0,1
348.5 225.5 m 128,-1,28
 395 163 395 163 491 163 c 128,-1,29
 587 163 587 163 657 241 c 128,-1,30
 727 319 727 319 747 449 c 1,31,-1
 789 788 l 1,32,33
 723 807 723 807 666 807 c 128,-1,34
 609 807 609 807 559.5 793.5 c 128,-1,35
 510 780 510 780 463 748 c 128,-1,36
 416 716 416 716 380.5 669.5 c 128,-1,37
 345 623 345 623 323.5 551.5 c 128,-1,38
 302 480 302 480 302 384 c 128,-1,27
 302 288 302 288 348.5 225.5 c 128,-1,28
EndSplineSet
EndChar

StartChar: r
Encoding: 114 114 85
Width: 1126
GlyphClass: 2
Flags: W
LayerCount: 2
Fore
SplineSet
606.5 942.5 m 128,-1,1
 679 977 679 977 762 977 c 128,-1,2
 845 977 845 977 906 952 c 128,-1,3
 967 927 967 927 1018 872 c 1,4,-1
 880 636 l 1,5,6
 856 658 856 658 855.5 684 c 128,-1,7
 855 710 855 710 836 734 c 0,8,9
 797 782 797 782 712 782 c 0,10,11
 608 782 608 782 523.5 698.5 c 128,-1,12
 439 615 439 615 425 500 c 2,13,-1
 364 0 l 1,14,-1
 133 0 l 1,15,-1
 252 956 l 1,16,-1
 498 956 l 1,17,18
 497 932 497 932 486 910 c 1,19,20
 474 890 474 890 470 852 c 1,21,-1
 479 852 l 1,22,0
 534 908 534 908 606.5 942.5 c 128,-1,1
EndSplineSet
EndChar

StartChar: s
Encoding: 115 115 86
Width: 1126
GlyphClass: 2
Flags: W
LayerCount: 2
Fore
SplineSet
545 160 m 0,0,1
 711 160 711 160 711 252 c 0,2,3
 711 282 711 282 675.5 311.5 c 128,-1,4
 640 341 640 341 587 365 c 128,-1,5
 534 389 534 389 472 422 c 128,-1,6
 410 455 410 455 357 489.5 c 128,-1,7
 304 524 304 524 268.5 577.5 c 128,-1,8
 233 631 233 631 233 693 c 0,9,10
 233 834 233 834 337.5 905.5 c 128,-1,11
 442 977 442 977 615 977 c 0,12,13
 890 977 890 977 1000 811 c 1,14,-1
 859 638 l 1,15,16
 844 650 844 650 842 675 c 128,-1,17
 840 700 840 700 823 721 c 0,18,19
 763 798 763 798 607 801 c 1,20,21
 450 801 450 801 450 719 c 0,22,23
 450 685 450 685 492 656.5 c 128,-1,24
 534 628 534 628 615.5 589 c 128,-1,25
 697 550 697 550 738.5 527 c 128,-1,26
 780 504 780 504 821.5 474.5 c 128,-1,27
 863 445 863 445 888 416 c 0,28,29
 944 349 944 349 944 270 c 0,30,31
 944 132 944 132 842 49.5 c 128,-1,32
 740 -33 740 -33 529 -33 c 0,33,34
 255 -33 255 -33 86 122 c 1,35,-1
 236 353 l 1,36,37
 257 338 257 338 261 308 c 128,-1,38
 265 278 265 278 274 263 c 0,39,40
 298 224 298 224 366.5 192 c 128,-1,41
 435 160 435 160 545 160 c 0,0,1
EndSplineSet
EndChar

StartChar: t
Encoding: 116 116 87
Width: 1126
GlyphClass: 2
Flags: W
LayerCount: 2
Fore
SplineSet
488 310 m 0,0,1
 488 229 488 229 514 200.5 c 128,-1,2
 540 172 540 172 606 172 c 128,-1,3
 672 172 672 172 723.5 198.5 c 128,-1,4
 775 225 775 225 848 286 c 1,5,-1
 899 91 l 1,6,7
 825 44 825 44 787.5 23 c 128,-1,8
 750 2 750 2 687.5 -15.5 c 128,-1,9
 625 -33 625 -33 544.5 -33 c 128,-1,10
 464 -33 464 -33 405 -12.5 c 128,-1,11
 346 8 346 8 314 50.5 c 128,-1,12
 282 93 282 93 269 147.5 c 128,-1,13
 256 202 256 202 256 281 c 2,14,-1
 256 302 l 1,15,16
 260 495 260 495 320 770 c 1,17,-1
 151 770 l 1,18,-1
 170 956 l 1,19,-1
 365 956 l 1,20,21
 398 1082 398 1082 434 1187 c 1,22,-1
 701 1218 l 1,23,24
 695 1187 695 1187 672.5 1160.5 c 128,-1,25
 650 1134 650 1134 633.5 1094 c 128,-1,26
 617 1054 617 1054 592 956 c 1,27,-1
 896 956 l 1,28,-1
 877 770 l 1,29,-1
 550 770 l 1,30,31
 488 460 488 460 488 310 c 0,0,1
EndSplineSet
EndChar

StartChar: u
Encoding: 117 117 88
Width: 1126
GlyphClass: 2
Flags: W
LayerCount: 2
Fore
SplineSet
329 288 m 0,0,1
 329 168 329 168 452 168 c 0,2,3
 554 168 554 168 647 232 c 128,-1,4
 740 296 740 296 751 383 c 2,5,-1
 821 956 l 1,6,-1
 1051 956 l 1,7,-1
 954 149 l 2,8,9
 952 131 952 131 952 86 c 128,-1,10
 952 41 952 41 960 0 c 1,11,-1
 738 0 l 1,12,13
 727 41 727 41 727 74.5 c 128,-1,14
 727 108 727 108 728 117 c 1,15,-1
 717 118 l 1,16,17
 561 -21 561 -21 353 -21 c 0,18,19
 228 -21 228 -21 161.5 36.5 c 128,-1,20
 95 94 95 94 95 236 c 0,21,22
 95 276 95 276 101 326 c 2,23,-1
 179 956 l 1,24,-1
 410 956 l 1,25,-1
 332 328 l 2,26,27
 329 306 329 306 329 288 c 0,0,1
EndSplineSet
EndChar

StartChar: v
Encoding: 118 118 89
Width: 1126
GlyphClass: 2
Flags: W
LayerCount: 2
Fore
SplineSet
391 956 m 1,0,-1
 391 943 l 2,1,2
 391 921 391 921 378.5 898.5 c 128,-1,3
 366 876 366 876 366 845 c 0,4,5
 366 745 366 745 417 565.5 c 128,-1,6
 468 386 468 386 532 239 c 1,7,8
 667 435 667 435 732.5 595.5 c 128,-1,9
 798 756 798 756 839 955 c 1,10,-1
 1068 955 l 1,11,12
 1034 801 1034 801 986 674 c 0,13,14
 882 395 882 395 584 0 c 1,15,-1
 417 0 l 1,16,17
 294 217 294 217 224.5 445.5 c 128,-1,18
 155 674 155 674 127 956 c 1,19,-1
 391 956 l 1,0,-1
EndSplineSet
EndChar

StartChar: w
Encoding: 119 119 90
Width: 1126
GlyphClass: 2
Flags: W
LayerCount: 2
Fore
SplineSet
310 956 m 1,0,1
 310 926 310 926 294.5 904.5 c 128,-1,2
 279 883 279 883 279 863 c 0,3,4
 276 797 276 797 276 730 c 0,5,6
 276 483 276 483 313 241 c 1,7,-1
 507 715 l 1,8,-1
 681 715 l 1,9,10
 708 539 708 539 750 233 c 1,11,12
 897 579 897 579 920 956 c 1,13,-1
 1137 956 l 1,14,15
 1131 696 1131 696 1039 451 c 0,16,17
 992 326 992 326 947.5 229 c 128,-1,18
 903 132 903 132 834 0 c 1,19,-1
 642 0 l 1,20,21
 598 160 598 160 578 255.5 c 128,-1,22
 558 351 558 351 546 474 c 1,23,-1
 497 333 l 1,24,-1
 347 0 l 1,25,-1
 168 0 l 1,26,27
 61 460 61 460 55 956 c 1,28,-1
 310 956 l 1,0,1
EndSplineSet
EndChar

StartChar: x
Encoding: 120 120 91
Width: 1126
GlyphClass: 2
Flags: W
LayerCount: 2
Fore
SplineSet
22 0 m 1,0,-1
 416 502 l 1,1,-1
 124 956 l 1,2,-1
 382 956 l 1,3,-1
 582 648 l 1,4,-1
 813 956 l 1,5,-1
 1061 956 l 1,6,-1
 689 482 l 1,7,-1
 1002 0 l 1,8,-1
 740 0 l 1,9,-1
 527 331 l 1,10,-1
 284 0 l 1,11,-1
 22 0 l 1,0,-1
EndSplineSet
EndChar

StartChar: y
Encoding: 121 121 92
Width: 1126
GlyphClass: 2
Flags: W
LayerCount: 2
Fore
SplineSet
109 -86 m 2,0,-1
 109 -98 l 2,1,2
 109 -135 109 -135 138.5 -155.5 c 128,-1,3
 168 -176 168 -176 213 -176 c 128,-1,4
 258 -176 258 -176 308 -140 c 0,5,6
 391 -80 391 -80 443 30 c 1,7,8
 189 481 189 481 140 956 c 1,9,-1
 418 956 l 1,10,-1
 418 949 l 2,11,12
 418 933 418 933 408.5 913 c 128,-1,13
 399 893 399 893 399 874 c 0,14,15
 416 539 416 539 585 202 c 1,16,17
 708 395 708 395 761 561 c 128,-1,18
 814 727 814 727 843 956 c 1,19,-1
 1073 956 l 1,20,21
 1043 779 1043 779 1010 671 c 0,22,23
 936 436 936 436 591 -104 c 0,24,25
 426 -362 426 -362 202 -362 c 0,26,27
 119 -362 119 -362 55 -338 c 128,-1,28
 -9 -314 -9 -314 -75 -254 c 1,29,-1
 91 -46 l 1,30,31
 109 -64 109 -64 109 -86 c 2,0,-1
EndSplineSet
EndChar

StartChar: z
Encoding: 122 122 93
Width: 1126
GlyphClass: 2
Flags: W
LayerCount: 2
Fore
SplineSet
866 186 m 2,0,1
 895 186 895 186 926.5 199.5 c 128,-1,2
 958 213 958 213 988 213 c 1,3,-1
 962 0 l 1,4,-1
 44 0 l 1,5,-1
 62 143 l 1,6,-1
 735 780 l 1,7,-1
 568 770 l 1,8,-1
 161 770 l 1,9,-1
 184 956 l 1,10,-1
 1042 956 l 1,11,-1
 1024 813 l 1,12,-1
 353 176 l 1,13,-1
 539 186 l 1,14,-1
 866 186 l 2,0,1
EndSplineSet
EndChar

StartChar: braceleft
Encoding: 123 123 94
Width: 1126
GlyphClass: 2
Flags: W
LayerCount: 2
Fore
SplineSet
272 312 m 0,0,1
 272 377 272 377 247 402.5 c 128,-1,2
 222 428 222 428 170 428 c 2,3,-1
 84 428 l 1,4,-1
 107 610 l 1,5,-1
 191 610 l 2,6,7
 255 610 255 610 290.5 649.5 c 128,-1,8
 326 689 326 689 336 774 c 1,9,10
 344 873 344 873 353 945 c 0,11,12
 374 1120 374 1120 482.5 1212.5 c 128,-1,13
 591 1305 591 1305 788 1305 c 2,14,-1
 954 1305 l 1,15,-1
 931 1120 l 1,16,-1
 730 1120 l 2,17,18
 643 1120 643 1120 611 1052 c 1,19,20
 586 1002 586 1002 569 821 c 1,21,-1
 566 795 l 2,22,23
 555 707 555 707 507 635 c 128,-1,24
 459 563 459 563 387 520 c 1,25,26
 437 485 437 485 466 422 c 128,-1,27
 495 359 495 359 495 279 c 0,28,29
 495 250 495 250 478.5 127 c 128,-1,30
 462 4 462 4 462 0 c 0,31,32
 462 -74 462 -74 503.5 -109.5 c 128,-1,33
 545 -145 545 -145 631 -145 c 2,34,-1
 774 -145 l 1,35,-1
 752 -326 l 1,36,-1
 637 -326 l 2,37,38
 422 -326 422 -326 326.5 -261 c 128,-1,39
 231 -196 231 -196 231 -39 c 0,40,41
 231 15 231 15 245 109 c 0,42,43
 272 290 272 290 272 312 c 0,0,1
EndSplineSet
EndChar

StartChar: bar
Encoding: 124 124 95
Width: 1126
GlyphClass: 2
Flags: W
LayerCount: 2
Fore
SplineSet
353 -309 m 1,0,-1
 555 1335 l 1,1,-1
 775 1335 l 1,2,-1
 573 -309 l 1,3,-1
 353 -309 l 1,0,-1
EndSplineSet
EndChar

StartChar: braceright
Encoding: 125 125 96
Width: 1126
GlyphClass: 2
Flags: W
LayerCount: 2
Fore
SplineSet
366 -141 m 2,0,1
 440 -141 440 -141 474 -93 c 0,2,3
 502 -55 502 -55 516 52 c 0,4,5
 522 97 522 97 525.5 136 c 128,-1,6
 529 175 529 175 530 184 c 0,7,8
 541 272 541 272 589 344 c 128,-1,9
 637 416 637 416 709 459 c 1,10,11
 659 494 659 494 630 557 c 128,-1,12
 601 620 601 620 601 700 c 0,13,14
 601 729 601 729 617.5 852 c 128,-1,15
 634 975 634 975 634 978 c 0,16,17
 634 1053 634 1053 592.5 1088.5 c 128,-1,18
 551 1124 551 1124 465 1124 c 2,19,-1
 322 1124 l 1,20,-1
 344 1305 l 1,21,-1
 459 1305 l 2,22,23
 674 1305 674 1305 769.5 1240 c 128,-1,24
 865 1175 865 1175 865 1018 c 0,25,26
 865 977 865 977 844.5 837 c 128,-1,27
 824 697 824 697 824 667 c 0,28,29
 824 602 824 602 849 576.5 c 128,-1,30
 874 551 874 551 926 551 c 2,31,-1
 1012 551 l 1,32,-1
 989 369 l 1,33,-1
 905 369 l 2,34,35
 841 369 841 369 805.5 329.5 c 128,-1,36
 770 290 770 290 760 205 c 1,37,38
 752 106 752 106 743 34 c 0,39,40
 722 -141 722 -141 613.5 -233.5 c 128,-1,41
 505 -326 505 -326 308 -326 c 2,42,-1
 142 -326 l 1,43,-1
 165 -141 l 1,44,-1
 366 -141 l 2,0,1
EndSplineSet
EndChar

StartChar: asciitilde
Encoding: 126 126 97
Width: 1126
GlyphClass: 2
Flags: W
LayerCount: 2
Fore
SplineSet
419 999 m 0,0,1
 471 999 471 999 520.5 976 c 128,-1,2
 570 953 570 953 602 925.5 c 128,-1,3
 634 898 634 898 674.5 875 c 128,-1,4
 715 852 715 852 751 852 c 128,-1,5
 787 852 787 852 823.5 883 c 128,-1,6
 860 914 860 914 927 993 c 1,7,-1
 1055 870 l 1,8,9
 891 649 891 649 741 649 c 0,10,11
 689 649 689 649 642 672 c 128,-1,12
 595 695 595 695 566 722 c 0,13,14
 489 795 489 795 427 795 c 0,15,16
 347 795 347 795 251 664 c 1,17,-1
 99 776 l 1,18,19
 270 999 270 999 419 999 c 0,0,1
EndSplineSet
EndChar

StartChar: Zcaron
Encoding: 142 142 98
Width: 1126
GlyphClass: 2
Flags: W
LayerCount: 2
Fore
SplineSet
612 1339 m 1,0,-1
 373 1576 l 1,1,-1
 462 1668 l 1,2,-1
 668 1513 l 1,3,-1
 927 1662 l 1,4,-1
 987 1580 l 1,5,-1
 675 1339 l 1,6,-1
 612 1339 l 1,0,-1
876 201 m 2,7,8
 891 201 891 201 912.5 210 c 128,-1,9
 934 219 934 219 952 219 c 1,10,-1
 926 0 l 1,11,-1
 36 0 l 1,12,-1
 53 139 l 1,13,-1
 735 1073 l 1,14,-1
 179 1073 l 1,15,-1
 204 1276 l 1,16,-1
 1052 1276 l 1,17,-1
 1035 1137 l 1,18,-1
 363 201 l 1,19,-1
 876 201 l 2,7,8
EndSplineSet
EndChar

StartChar: zcaron
Encoding: 158 158 99
Width: 1126
GlyphClass: 2
Flags: W
LayerCount: 2
Fore
SplineSet
599 1040 m 1,0,-1
 391 1349 l 1,1,-1
 511 1437 l 1,2,-1
 609 1309 l 1,3,-1
 660 1216 l 1,4,-1
 735 1306 l 1,5,-1
 861 1435 l 1,6,-1
 948 1347 l 1,7,-1
 665 1040 l 1,8,-1
 599 1040 l 1,0,-1
866 186 m 2,9,10
 895 186 895 186 926.5 199.5 c 128,-1,11
 958 213 958 213 988 213 c 1,12,-1
 962 0 l 1,13,-1
 44 0 l 1,14,-1
 62 143 l 1,15,-1
 735 780 l 1,16,-1
 568 770 l 1,17,-1
 161 770 l 1,18,-1
 184 956 l 1,19,-1
 1042 956 l 1,20,-1
 1024 813 l 1,21,-1
 353 176 l 1,22,-1
 539 186 l 1,23,-1
 866 186 l 2,9,10
EndSplineSet
EndChar

StartChar: exclamdown
Encoding: 161 161 101
Width: 1126
GlyphClass: 2
Flags: W
LayerCount: 2
Fore
SplineSet
696 1128.5 m 128,-1,1
 642 1078 642 1078 576 1078 c 128,-1,2
 510 1078 510 1078 469.5 1117.5 c 128,-1,3
 429 1157 429 1157 429 1216.5 c 128,-1,4
 429 1276 429 1276 484.5 1325 c 128,-1,5
 540 1374 540 1374 605 1374 c 128,-1,6
 670 1374 670 1374 710 1337 c 128,-1,7
 750 1300 750 1300 750 1239.5 c 128,-1,0
 750 1179 750 1179 696 1128.5 c 128,-1,1
282 -20 m 1,8,-1
 463 948 l 1,9,-1
 637 948 l 1,10,-1
 580 -20 l 1,11,-1
 282 -20 l 1,8,-1
EndSplineSet
EndChar

StartChar: cent
Encoding: 162 162 102
Width: 1126
GlyphClass: 2
Flags: W
LayerCount: 2
Fore
SplineSet
186.5 242 m 128,-1,1
 119 348 119 348 119 501 c 128,-1,2
 119 654 119 654 181 783.5 c 128,-1,3
 243 913 243 913 358.5 991 c 128,-1,4
 474 1069 474 1069 624 1077 c 1,5,-1
 674 1278 l 1,6,-1
 856 1261 l 1,7,8
 852 1244 852 1244 839.5 1228 c 128,-1,9
 827 1212 827 1212 825 1204 c 2,10,-1
 789 1063 l 1,11,12
 955 1022 955 1022 1024 891 c 1,13,-1
 852 717 l 1,14,15
 840 733 840 733 840 749 c 2,16,-1
 840 766 l 2,17,18
 840 799 840 799 812.5 829 c 128,-1,19
 785 859 785 859 741 874 c 1,20,-1
 584 259 l 1,21,22
 710 265 710 265 830 381 c 1,23,-1
 936 220 l 1,24,25
 771 68 771 68 549 68 c 2,26,-1
 536 68 l 1,27,-1
 477 -164 l 1,28,-1
 321 -147 l 1,29,-1
 381 93 l 1,30,0
 254 136 254 136 186.5 242 c 128,-1,1
408 759 m 128,-1,32
 346 660 346 660 346 509.5 c 128,-1,33
 346 359 346 359 431 297 c 1,34,-1
 576 882 l 1,35,31
 470 858 470 858 408 759 c 128,-1,32
EndSplineSet
EndChar

StartChar: sterling
Encoding: 163 163 103
Width: 1126
GlyphClass: 2
Flags: W
LayerCount: 2
Fore
SplineSet
799 999 m 1,0,-1
 801 1024 l 1,1,2
 801 1056 801 1056 768 1084 c 128,-1,3
 735 1112 735 1112 685 1112 c 128,-1,4
 635 1112 635 1112 601 1098.5 c 128,-1,5
 567 1085 567 1085 535 1054 c 0,6,7
 466 987 466 987 460 817 c 1,8,-1
 762 817 l 1,9,-1
 739 631 l 1,10,-1
 466 631 l 1,11,12
 469 576 469 576 469 529 c 0,13,14
 469 420 469 420 450 352 c 128,-1,15
 431 284 431 284 384 236 c 1,16,17
 419 241 419 241 442 241 c 0,18,19
 502 241 502 241 570 208 c 128,-1,20
 638 175 638 175 682 175 c 128,-1,21
 726 175 726 175 759.5 191.5 c 128,-1,22
 793 208 793 208 856 257 c 1,23,-1
 915 80 l 1,24,25
 840 23 840 23 779 -3 c 128,-1,26
 718 -29 718 -29 654 -29 c 128,-1,27
 590 -29 590 -29 478 8.5 c 128,-1,28
 366 46 366 46 317 46 c 0,29,30
 222 46 222 46 57 -35 c 1,31,-1
 -2 147 l 1,32,33
 159 211 159 211 212 289 c 128,-1,34
 265 367 265 367 265 530 c 0,35,36
 265 576 265 576 262 631 c 1,37,-1
 147 631 l 1,38,-1
 170 817 l 1,39,-1
 256 817 l 1,40,41
 260 943 260 943 297 1038.5 c 128,-1,42
 334 1134 334 1134 394 1189 c 0,43,44
 513 1297 513 1297 681 1297 c 0,45,46
 789 1297 789 1297 862 1260.5 c 128,-1,47
 935 1224 935 1224 995 1151 c 1,48,-1
 823 968 l 1,49,50
 799 977 799 977 799 999 c 1,0,-1
EndSplineSet
EndChar

StartChar: currency
Encoding: 164 164 104
Width: 1126
GlyphClass: 2
Flags: W
LayerCount: 2
Fore
SplineSet
230 674 m 0,0,1
 230 781 230 781 298 874 c 1,2,-1
 199 987 l 1,3,-1
 348 1108 l 1,4,-1
 444 997 l 1,5,6
 529 1038 529 1038 613 1038 c 128,-1,7
 697 1038 697 1038 769 999 c 1,8,-1
 892 1108 l 1,9,-1
 1011 987 l 1,10,-1
 885 877 l 1,11,12
 914 819 914 819 914 750 c 0,13,14
 914 635 914 635 843 541 c 1,15,-1
 943 430 l 1,16,-1
 794 309 l 1,17,-1
 699 418 l 1,18,19
 625 378 625 378 532.5 378 c 128,-1,20
 440 378 440 378 372 420 c 1,21,-1
 250 309 l 1,22,-1
 131 430 l 1,23,-1
 258 545 l 1,24,25
 230 609 230 609 230 674 c 0,0,1
454.5 581 m 128,-1,27
 492 541 492 541 556 541 c 128,-1,28
 620 541 620 541 672 596.5 c 128,-1,29
 724 652 724 652 724 721.5 c 128,-1,30
 724 791 724 791 687 832.5 c 128,-1,31
 650 874 650 874 585.5 874 c 128,-1,32
 521 874 521 874 469 816.5 c 128,-1,33
 417 759 417 759 417 690 c 128,-1,26
 417 621 417 621 454.5 581 c 128,-1,27
EndSplineSet
EndChar

StartChar: yen
Encoding: 165 165 105
Width: 1126
GlyphClass: 2
Flags: W
LayerCount: 2
Fore
SplineSet
131 161 m 1,0,-1
 153 338 l 1,1,-1
 420 338 l 1,2,-1
 433 441 l 1,3,-1
 166 441 l 1,4,-1
 188 618 l 1,5,-1
 389 618 l 1,6,-1
 106 1276 l 1,7,-1
 362 1276 l 1,8,-1
 484 942 l 1,9,-1
 576 661 l 1,10,-1
 722 943 l 1,11,-1
 908 1276 l 1,12,-1
 1162 1276 l 1,13,-1
 751 618 l 1,14,-1
 956 618 l 1,15,-1
 934 441 l 1,16,-1
 669 441 l 1,17,-1
 656 338 l 1,18,-1
 921 338 l 1,19,-1
 899 161 l 1,20,-1
 635 161 l 1,21,-1
 615 0 l 1,22,-1
 379 0 l 1,23,-1
 399 161 l 1,24,-1
 131 161 l 1,0,-1
EndSplineSet
EndChar

StartChar: brokenbar
Encoding: 166 166 106
Width: 1126
GlyphClass: 2
Flags: W
LayerCount: 2
Fore
SplineSet
465 606 m 1,0,-1
 555 1335 l 1,1,-1
 775 1335 l 1,2,-1
 685 606 l 1,3,-1
 465 606 l 1,0,-1
353 -309 m 1,4,-1
 440 396 l 1,5,-1
 660 396 l 1,6,-1
 555 -309 l 1,7,-1
 353 -309 l 1,4,-1
EndSplineSet
EndChar

StartChar: section
Encoding: 167 167 107
Width: 1126
GlyphClass: 2
Flags: W
LayerCount: 2
Fore
SplineSet
768 1067 m 1,0,-1
 773 1102 l 1,1,2
 773 1149 773 1149 737.5 1176 c 128,-1,3
 702 1203 702 1203 633 1203 c 128,-1,4
 564 1203 564 1203 535.5 1169.5 c 128,-1,5
 507 1136 507 1136 507 1093.5 c 128,-1,6
 507 1051 507 1051 548 1016.5 c 128,-1,7
 589 982 589 982 713 906.5 c 128,-1,8
 837 831 837 831 886 772.5 c 128,-1,9
 935 714 935 714 935 639.5 c 128,-1,10
 935 565 935 565 903 512.5 c 128,-1,11
 871 460 871 460 797 398 c 1,12,13
 857 335 857 335 857 246 c 0,14,15
 857 79 857 79 744 -19 c 128,-1,16
 631 -117 631 -117 456 -117 c 0,17,18
 216 -117 216 -117 92 86 c 1,19,-1
 279 282 l 1,20,21
 289 266 289 266 289 248 c 1,22,-1
 287 215 l 1,23,24
 287 160 287 160 339.5 122 c 128,-1,25
 392 84 392 84 470 84 c 0,26,27
 635 84 635 84 635 209 c 0,28,29
 635 250 635 250 599.5 276.5 c 128,-1,30
 564 303 564 303 481 345.5 c 128,-1,31
 398 388 398 388 362.5 408 c 128,-1,32
 327 428 327 428 291.5 452.5 c 128,-1,33
 256 477 256 477 238 499 c 0,34,35
 200 547 200 547 200 611 c 0,36,37
 200 776 200 776 362 876 c 1,38,39
 316 914 316 914 294.5 954 c 128,-1,40
 273 994 273 994 273 1048 c 0,41,42
 273 1197 273 1197 383.5 1291.5 c 128,-1,43
 494 1386 494 1386 660 1386 c 0,44,45
 885 1386 885 1386 973 1192 c 1,46,-1
 777 1039 l 1,47,48
 768 1054 768 1054 768 1067 c 1,0,-1
726 600 m 0,49,50
 726 626 726 626 713.5 640 c 128,-1,51
 701 654 701 654 690.5 662.5 c 128,-1,52
 680 671 680 671 655 687 c 128,-1,53
 630 703 630 703 608 716 c 0,54,55
 545 754 545 754 457 809 c 1,56,57
 395 750 395 750 395 684 c 0,58,59
 395 644 395 644 431.5 614 c 128,-1,60
 468 584 468 584 560 539.5 c 128,-1,61
 652 495 652 495 674 483 c 1,62,63
 726 537 726 537 726 600 c 0,49,50
EndSplineSet
EndChar

StartChar: dieresis
Encoding: 168 168 108
Width: 1126
GlyphClass: 2
Flags: W
LayerCount: 2
Fore
SplineSet
863.5 1161.5 m 128,-1,1
 822 1122 822 1122 763.5 1122 c 128,-1,2
 705 1122 705 1122 663.5 1159.5 c 128,-1,3
 622 1197 622 1197 622 1252 c 128,-1,4
 622 1307 622 1307 663 1346.5 c 128,-1,5
 704 1386 704 1386 761 1386 c 128,-1,6
 818 1386 818 1386 861.5 1349 c 128,-1,7
 905 1312 905 1312 905 1256.5 c 128,-1,0
 905 1201 905 1201 863.5 1161.5 c 128,-1,1
488 1162 m 128,-1,9
 446 1122 446 1122 387.5 1122 c 128,-1,10
 329 1122 329 1122 287 1160 c 128,-1,11
 245 1198 245 1198 245 1252 c 128,-1,12
 245 1306 245 1306 286.5 1346 c 128,-1,13
 328 1386 328 1386 385 1386 c 128,-1,14
 442 1386 442 1386 486 1349 c 128,-1,15
 530 1312 530 1312 530 1257 c 128,-1,8
 530 1202 530 1202 488 1162 c 128,-1,9
EndSplineSet
EndChar

StartChar: copyright
Encoding: 169 169 109
Width: 1126
GlyphClass: 2
Flags: W
LayerCount: 2
Fore
SplineSet
512 37 m 0,0,1
 311 37 311 37 192.5 152 c 128,-1,2
 74 267 74 267 74 471 c 0,3,4
 74 752 74 752 234.5 916.5 c 128,-1,5
 395 1081 395 1081 648 1081 c 0,6,7
 853 1081 853 1081 973 965.5 c 128,-1,8
 1093 850 1093 850 1093 646 c 0,9,10
 1093 507 1093 507 1047.5 391 c 128,-1,11
 1002 275 1002 275 923.5 198.5 c 128,-1,12
 845 122 845 122 739 79.5 c 128,-1,13
 633 37 633 37 512 37 c 0,0,1
537 156 m 0,14,15
 724 156 724 156 843 285.5 c 128,-1,16
 962 415 962 415 962 636 c 0,17,18
 962 792 962 792 875.5 879.5 c 128,-1,19
 789 967 789 967 636 967 c 0,20,21
 450 967 450 967 330.5 836.5 c 128,-1,22
 211 706 211 706 211 486 c 0,23,24
 211 330 211 330 297.5 243 c 128,-1,25
 384 156 384 156 537 156 c 0,14,15
713 625 m 2,26,-1
 717 658 l 1,27,28
 717 684 717 684 694 709.5 c 128,-1,29
 671 735 671 735 622 735 c 0,30,31
 547 735 547 735 500 681.5 c 128,-1,32
 453 628 453 628 453 532 c 0,33,34
 453 459 453 459 488 423 c 128,-1,35
 523 387 523 387 585 387 c 0,36,37
 666 387 666 387 720 474 c 1,38,-1
 831 390 l 1,39,40
 789 320 789 320 717 280 c 128,-1,41
 645 240 645 240 559 240 c 0,42,43
 443 240 443 240 373.5 311.5 c 128,-1,44
 304 383 304 383 304 508 c 0,45,46
 304 676 304 676 397 777.5 c 128,-1,47
 490 879 490 879 623 879 c 0,48,49
 841 879 841 879 881 676 c 1,50,-1
 714 615 l 1,51,52
 713 619 713 619 713 625 c 2,26,-1
EndSplineSet
EndChar

StartChar: ordfeminine
Encoding: 170 170 110
Width: 1126
GlyphClass: 2
Flags: W
LayerCount: 2
Fore
SplineSet
420 514 m 0,0,1
 322 514 322 514 257.5 566 c 128,-1,2
 193 618 193 618 193 698.5 c 128,-1,3
 193 779 193 779 235 835 c 128,-1,4
 277 891 277 891 350 922 c 0,5,6
 492 981 492 981 691 981 c 1,7,8
 693 1001 693 1001 693 1010 c 0,9,10
 693 1115 693 1115 578 1115 c 128,-1,11
 463 1115 463 1115 352 1029 c 1,12,-1
 257 1143 l 1,13,14
 364 1219 364 1219 444.5 1247.5 c 128,-1,15
 525 1276 525 1276 628 1276 c 0,16,17
 765 1276 765 1276 839 1217.5 c 128,-1,18
 913 1159 913 1159 913 1046 c 0,19,20
 913 1025 913 1025 910 1001 c 2,21,-1
 852 535 l 1,22,-1
 638 535 l 1,23,-1
 648 616 l 1,24,25
 609 571 609 571 549.5 542.5 c 128,-1,26
 490 514 490 514 420 514 c 0,0,1
510 671 m 0,27,28
 577 671 577 671 623.5 715 c 128,-1,29
 670 759 670 759 681 852 c 1,30,31
 527 852 527 852 465.5 827.5 c 128,-1,32
 404 803 404 803 404 741 c 0,33,34
 404 671 404 671 510 671 c 0,27,28
98 293 m 1,35,-1
 117 453 l 1,36,-1
 911 453 l 1,37,-1
 892 293 l 1,38,-1
 98 293 l 1,35,-1
EndSplineSet
EndChar

StartChar: guillemotleft
Encoding: 171 171 111
Width: 1126
GlyphClass: 2
Flags: W
LayerCount: 2
Fore
SplineSet
512 465 m 1,0,-1
 520 532 l 1,1,-1
 894 856 l 1,2,-1
 1010 719 l 1,3,-1
 748 496 l 1,4,-1
 960 231 l 1,5,-1
 808 96 l 1,6,-1
 512 465 l 1,0,-1
416 96 m 1,7,-1
 120 465 l 1,8,-1
 128 532 l 1,9,-1
 504 856 l 1,10,-1
 618 719 l 1,11,-1
 358 496 l 1,12,-1
 570 231 l 1,13,-1
 416 96 l 1,7,-1
EndSplineSet
EndChar

StartChar: logicalnot
Encoding: 172 172 112
Width: 1126
GlyphClass: 2
Flags: W
LayerCount: 2
Fore
SplineSet
151 563 m 1,0,-1
 174 750 l 1,1,-1
 1045 750 l 1,2,-1
 991 315 l 1,3,-1
 776 315 l 1,4,-1
 807 563 l 1,5,-1
 151 563 l 1,0,-1
EndSplineSet
EndChar

StartChar: uni00AD
Encoding: 173 173 113
Width: 1126
GlyphClass: 2
Flags: W
LayerCount: 2
Fore
SplineSet
168 563 m 1,0,-1
 190 750 l 1,1,-1
 958 750 l 1,2,-1
 936 563 l 1,3,-1
 168 563 l 1,0,-1
EndSplineSet
EndChar

StartChar: registered
Encoding: 174 174 114
Width: 1126
GlyphClass: 2
Flags: W
LayerCount: 2
Fore
SplineSet
512 37 m 0,0,1
 311 37 311 37 192.5 152 c 128,-1,2
 74 267 74 267 74 471 c 0,3,4
 74 752 74 752 234.5 916.5 c 128,-1,5
 395 1081 395 1081 648 1081 c 0,6,7
 853 1081 853 1081 973 965.5 c 128,-1,8
 1093 850 1093 850 1093 646 c 0,9,10
 1093 507 1093 507 1047.5 391 c 128,-1,11
 1002 275 1002 275 923.5 198.5 c 128,-1,12
 845 122 845 122 739 79.5 c 128,-1,13
 633 37 633 37 512 37 c 0,0,1
537 156 m 0,14,15
 724 156 724 156 843 285.5 c 128,-1,16
 962 415 962 415 962 636 c 0,17,18
 962 792 962 792 875.5 879.5 c 128,-1,19
 789 967 789 967 636 967 c 0,20,21
 450 967 450 967 330.5 836.5 c 128,-1,22
 211 706 211 706 211 486 c 0,23,24
 211 330 211 330 297.5 243 c 128,-1,25
 384 156 384 156 537 156 c 0,14,15
613 856 m 2,26,27
 840 856 840 856 840 707 c 0,28,29
 840 647 840 647 808.5 597.5 c 128,-1,30
 777 548 777 548 713 522 c 1,31,-1
 803 281 l 1,32,-1
 647 281 l 1,33,-1
 586 504 l 1,34,-1
 510 504 l 1,35,-1
 483 281 l 1,36,-1
 341 281 l 1,37,-1
 411 856 l 1,38,-1
 613 856 l 2,26,27
610 618 m 2,39,40
 645 618 645 618 667.5 636 c 128,-1,41
 690 654 690 654 690 680 c 0,42,43
 690 731 690 731 618 731 c 2,44,-1
 538 731 l 1,45,-1
 524 618 l 1,46,-1
 610 618 l 2,39,40
EndSplineSet
EndChar

StartChar: macron
Encoding: 175 175 115
Width: 1126
GlyphClass: 2
Flags: W
LayerCount: 2
Fore
SplineSet
281 1133 m 1,0,-1
 301 1293 l 1,1,-1
 855 1293 l 1,2,-1
 835 1133 l 1,3,-1
 281 1133 l 1,0,-1
EndSplineSet
EndChar

StartChar: degree
Encoding: 176 176 116
Width: 1126
GlyphClass: 2
Flags: W
LayerCount: 2
Fore
SplineSet
487 782 m 0,0,1
 358 782 358 782 288.5 845.5 c 128,-1,2
 219 909 219 909 219 1024 c 0,3,4
 219 1181 219 1181 312 1272.5 c 128,-1,5
 405 1364 405 1364 559 1364 c 0,6,7
 687 1364 687 1364 757 1300.5 c 128,-1,8
 827 1237 827 1237 827 1122 c 0,9,10
 827 964 827 964 734 873 c 128,-1,11
 641 782 641 782 487 782 c 0,0,1
415 1049 m 0,12,13
 415 948 415 948 514 948 c 0,14,15
 564 948 564 948 599 989 c 128,-1,16
 634 1030 634 1030 634 1090 c 0,17,18
 634 1204 634 1204 539 1204 c 0,19,20
 484 1204 484 1204 449.5 1162 c 128,-1,21
 415 1120 415 1120 415 1049 c 0,12,13
EndSplineSet
EndChar

StartChar: plusminus
Encoding: 177 177 117
Width: 1126
GlyphClass: 2
Flags: W
LayerCount: 2
Fore
SplineSet
440 361 m 1,0,-1
 479 681 l 1,1,-1
 159 681 l 1,2,-1
 182 868 l 1,3,-1
 502 868 l 1,4,-1
 541 1188 l 1,5,-1
 729 1188 l 1,6,-1
 690 868 l 1,7,-1
 1010 868 l 1,8,-1
 987 681 l 1,9,-1
 667 681 l 1,10,-1
 628 361 l 1,11,-1
 440 361 l 1,0,-1
77 8 m 1,12,-1
 100 195 l 1,13,-1
 928 195 l 1,14,-1
 905 8 l 1,15,-1
 77 8 l 1,12,-1
EndSplineSet
EndChar

StartChar: twosuperior
Encoding: 178 178 118
Width: 1126
GlyphClass: 2
Flags: W
LayerCount: 2
Fore
SplineSet
627 1135 m 128,-1,1
 604 1155 604 1155 559.5 1155 c 128,-1,2
 515 1155 515 1155 478 1134 c 1,3,4
 423 1101 423 1101 416 1054 c 0,5,6
 413 1038 413 1038 401 1023 c 1,7,-1
 267 1118 l 1,8,9
 332 1214 332 1214 407.5 1259 c 128,-1,10
 483 1304 483 1304 590.5 1304 c 128,-1,11
 698 1304 698 1304 763.5 1254 c 128,-1,12
 829 1204 829 1204 829 1113 c 0,13,14
 829 982 829 982 695 850 c 0,15,16
 618 773 618 773 504 681 c 0,17,18
 499 678 499 678 497 676 c 128,-1,19
 495 674 495 674 491 671 c 128,-1,20
 487 668 487 668 484 665 c 1,21,-1
 719 665 l 2,22,23
 739 665 739 665 762.5 674.5 c 128,-1,24
 786 684 786 684 811 684 c 1,25,-1
 789 502 l 1,26,-1
 214 502 l 1,27,-1
 228 621 l 1,28,29
 243 633 243 633 271 657 c 0,30,31
 495 846 495 846 557 911 c 0,32,33
 649 1009 649 1009 650 1078 c 0,34,0
 650 1115 650 1115 627 1135 c 128,-1,1
EndSplineSet
EndChar

StartChar: threesuperior
Encoding: 179 179 119
Width: 1126
GlyphClass: 2
Flags: W
LayerCount: 2
Fore
SplineSet
497 651 m 0,0,1
 554 651 554 651 589 683 c 128,-1,2
 624 715 624 715 624 777 c 0,3,4
 624 852 624 852 524 852 c 2,5,-1
 437 852 l 1,6,-1
 454 991 l 1,7,-1
 537 991 l 2,8,9
 586 991 586 991 615.5 1016.5 c 128,-1,10
 645 1042 645 1042 645 1088 c 0,11,12
 645 1155 645 1155 560.5 1155 c 128,-1,13
 476 1155 476 1155 384 1088 c 1,14,-1
 322 1207 l 1,15,16
 462 1312 462 1312 593 1312 c 0,17,18
 694 1312 694 1312 754.5 1262.5 c 128,-1,19
 815 1213 815 1213 815 1131 c 0,20,21
 815 1074 815 1074 784.5 1019 c 128,-1,22
 754 964 754 964 688 929 c 1,23,24
 793 871 793 871 793 770 c 0,25,26
 793 650 793 650 699 572 c 128,-1,27
 605 494 605 494 471 494 c 0,28,29
 390 494 390 494 326 526.5 c 128,-1,30
 262 559 262 559 203 631 c 1,31,-1
 330 784 l 1,32,33
 348 767 348 767 350 747 c 128,-1,34
 352 727 352 727 363 712 c 0,35,36
 409 651 409 651 497 651 c 0,0,1
EndSplineSet
EndChar

StartChar: acute
Encoding: 180 180 120
Width: 1126
GlyphClass: 2
Flags: W
LayerCount: 2
Fore
SplineSet
443 1019 m 1,0,-1
 334 1076 l 1,1,-1
 537 1446 l 1,2,-1
 695 1350 l 1,3,-1
 443 1019 l 1,0,-1
EndSplineSet
EndChar

StartChar: uni00B5
Encoding: 181 181 121
Width: 1126
GlyphClass: 2
Flags: W
LayerCount: 2
Fore
SplineSet
243 -315 m 1,0,-1
 32 -315 l 1,1,-1
 159 418 l 1,2,-1
 225 956 l 1,3,-1
 444 956 l 1,4,-1
 369 347 l 2,5,6
 366 321 366 321 366 301 c 0,7,8
 366 227 366 227 399 191.5 c 128,-1,9
 432 156 432 156 490.5 156 c 128,-1,10
 549 156 549 156 593 204.5 c 128,-1,11
 637 253 637 253 648 343 c 2,12,-1
 723 956 l 1,13,-1
 938 956 l 1,14,-1
 852 256 l 2,15,16
 848 218 848 218 848 209 c 0,17,18
 848 164 848 164 875 164 c 0,19,20
 893 164 893 164 918.5 189.5 c 128,-1,21
 944 215 944 215 996 295 c 1,22,-1
 1070 121 l 1,23,24
 954 -18 954 -18 830 -18 c 0,25,26
 775 -18 775 -18 740 11.5 c 128,-1,27
 705 41 705 41 690 117 c 1,28,29
 631 36 631 36 575 9 c 128,-1,30
 519 -18 519 -18 453.5 -18 c 128,-1,31
 388 -18 388 -18 338.5 9.5 c 128,-1,32
 289 37 289 37 243 109 c 1,33,-1
 243 -315 l 1,0,-1
EndSplineSet
EndChar

StartChar: paragraph
Encoding: 182 182 122
Width: 1126
GlyphClass: 2
Flags: W
LayerCount: 2
Fore
SplineSet
149 950 m 0,0,1
 149 1046 149 1046 176.5 1118.5 c 128,-1,2
 204 1191 204 1191 267 1248 c 0,3,4
 395 1364 395 1364 708 1364 c 2,5,-1
 1024 1364 l 1,6,-1
 840 -141 l 1,7,-1
 635 -141 l 1,8,-1
 797 1182 l 1,9,-1
 717 1182 l 1,10,-1
 555 -141 l 1,11,-1
 350 -141 l 1,12,-1
 447 649 l 1,13,14
 298 668 298 668 223.5 745.5 c 128,-1,15
 149 823 149 823 149 950 c 0,0,1
EndSplineSet
EndChar

StartChar: periodcentered
Encoding: 183 183 123
Width: 1126
GlyphClass: 2
Flags: W
LayerCount: 2
Fore
SplineSet
642.5 533 m 128,-1,1
 598 492 598 492 539.5 492 c 128,-1,2
 481 492 481 492 441.5 529.5 c 128,-1,3
 402 567 402 567 402 621.5 c 128,-1,4
 402 676 402 676 446 717.5 c 128,-1,5
 490 759 490 759 548.5 759 c 128,-1,6
 607 759 607 759 647 721 c 128,-1,7
 687 683 687 683 687 628.5 c 128,-1,0
 687 574 687 574 642.5 533 c 128,-1,1
EndSplineSet
EndChar

StartChar: cedilla
Encoding: 184 184 124
Width: 1126
GlyphClass: 2
Flags: W
LayerCount: 2
Fore
SplineSet
557 -263 m 0,0,1
 612 -263 612 -263 634.5 -251.5 c 128,-1,2
 657 -240 657 -240 657 -216.5 c 128,-1,3
 657 -193 657 -193 646 -181 c 0,4,5
 621 -152 621 -152 488 -152 c 1,6,-1
 534 0 l 1,7,-1
 688 0 l 1,8,-1
 672 -59 l 1,9,10
 755 -68 755 -68 791 -101 c 128,-1,11
 827 -134 827 -134 827 -195 c 0,12,13
 827 -284 827 -284 756.5 -344 c 128,-1,14
 686 -404 686 -404 546 -404 c 128,-1,15
 406 -404 406 -404 291 -309 c 1,16,-1
 361 -194 l 1,17,18
 437 -263 437 -263 557 -263 c 0,0,1
EndSplineSet
EndChar

StartChar: onesuperior
Encoding: 185 185 125
Width: 1126
GlyphClass: 2
Flags: W
LayerCount: 2
Fore
SplineSet
491 497 m 1,0,-1
 563 1087 l 1,1,-1
 373 1034 l 1,2,-1
 347 1144 l 1,3,-1
 655 1297 l 1,4,-1
 788 1297 l 1,5,-1
 690 497 l 1,6,-1
 491 497 l 1,0,-1
EndSplineSet
EndChar

StartChar: ordmasculine
Encoding: 186 186 126
Width: 1126
GlyphClass: 2
Flags: W
LayerCount: 2
Fore
SplineSet
503 511 m 0,0,1
 346 511 346 511 260.5 591 c 128,-1,2
 175 671 175 671 175 817 c 0,3,4
 175 1029 175 1029 293.5 1153 c 128,-1,5
 412 1277 412 1277 605 1277 c 0,6,7
 761 1277 761 1277 846 1195 c 128,-1,8
 931 1113 931 1113 931 965 c 0,9,10
 931 756 931 756 813 633.5 c 128,-1,11
 695 511 695 511 503 511 c 0,0,1
528 697 m 0,12,13
 603 697 603 697 650 762.5 c 128,-1,14
 697 828 697 828 697 940 c 0,15,16
 697 1013 697 1013 666.5 1053.5 c 128,-1,17
 636 1094 636 1094 579 1094 c 0,18,19
 505 1094 505 1094 457 1026.5 c 128,-1,20
 409 959 409 959 409 846 c 0,21,22
 409 774 409 774 439.5 735.5 c 128,-1,23
 470 697 470 697 528 697 c 0,12,13
98 293 m 1,24,-1
 117 453 l 1,25,-1
 911 453 l 1,26,-1
 892 293 l 1,27,-1
 98 293 l 1,24,-1
EndSplineSet
EndChar

StartChar: guillemotright
Encoding: 187 187 127
Width: 1126
GlyphClass: 2
Flags: W
LayerCount: 2
Fore
SplineSet
511 231 m 1,0,-1
 787 496 l 1,1,-1
 583 719 l 1,2,-1
 731 856 l 1,3,-1
 1027 532 l 1,4,-1
 1019 465 l 1,5,-1
 631 96 l 1,6,-1
 511 231 l 1,0,-1
239 96 m 1,7,-1
 121 231 l 1,8,-1
 397 496 l 1,9,-1
 191 719 l 1,10,-1
 341 856 l 1,11,-1
 635 532 l 1,12,-1
 627 465 l 1,13,-1
 239 96 l 1,7,-1
EndSplineSet
EndChar

StartChar: onequarter
Encoding: 188 188 128
Width: 1126
GlyphClass: 2
Flags: W
LayerCount: 2
Fore
SplineSet
197 667 m 1,0,-1
 260 1179 l 1,1,-1
 116 1143 l 1,2,-1
 87 1250 l 1,3,-1
 345 1377 l 1,4,-1
 460 1377 l 1,5,-1
 372 667 l 1,6,-1
 197 667 l 1,0,-1
40 0 m 1,7,-1
 856 1376 l 1,8,-1
 1033 1376 l 1,9,-1
 211 0 l 1,10,-1
 40 0 l 1,7,-1
440 129 m 1,11,-1
 452 224 l 1,12,-1
 853 710 l 1,13,-1
 1026 710 l 1,14,-1
 970 255 l 1,15,-1
 1043 255 l 1,16,-1
 1027 129 l 1,17,-1
 954 129 l 1,18,-1
 938 0 l 1,19,-1
 773 0 l 1,20,-1
 789 129 l 1,21,-1
 440 129 l 1,11,-1
639 255 m 1,22,-1
 805 255 l 1,23,-1
 823 400 l 1,24,-1
 848 520 l 1,25,-1
 639 255 l 1,22,-1
EndSplineSet
EndChar

StartChar: onehalf
Encoding: 189 189 129
Width: 1126
GlyphClass: 2
Flags: W
LayerCount: 2
Fore
SplineSet
197 667 m 1,0,-1
 260 1179 l 1,1,-1
 116 1143 l 1,2,-1
 87 1250 l 1,3,-1
 345 1377 l 1,4,-1
 460 1377 l 1,5,-1
 372 667 l 1,6,-1
 197 667 l 1,0,-1
40 0 m 1,7,-1
 856 1376 l 1,8,-1
 1033 1376 l 1,9,-1
 211 0 l 1,10,-1
 40 0 l 1,7,-1
839 579 m 0,11,12
 801 579 801 579 768 562 c 0,13,14
 717 537 717 537 712 496 c 0,15,16
 711 482 711 482 701 471 c 1,17,-1
 581 554 l 1,18,19
 637 631 637 631 703.5 671.5 c 128,-1,20
 770 712 770 712 864.5 712 c 128,-1,21
 959 712 959 712 1017.5 668 c 128,-1,22
 1076 624 1076 624 1076 544 c 0,23,24
 1076 452 1076 452 1009 367 c 0,25,26
 983 334 983 334 965 314 c 128,-1,27
 947 294 947 294 907 257.5 c 128,-1,28
 867 221 867 221 846 203.5 c 128,-1,29
 825 186 825 186 776 144 c 1,30,-1
 959 144 l 2,31,32
 982 144 982 144 1002 151 c 128,-1,33
 1022 158 1022 158 1029 158 c 2,34,-1
 1033 158 l 1,35,-1
 1013 0 l 1,36,-1
 528 0 l 1,37,-1
 541 105 l 1,38,39
 761 294 761 294 807 338 c 0,40,41
 915 443 915 443 915 511 c 128,-1,42
 915 579 915 579 839 579 c 0,11,12
EndSplineSet
EndChar

StartChar: threequarters
Encoding: 190 190 130
Width: 1126
GlyphClass: 2
Flags: W
LayerCount: 2
Fore
SplineSet
233 670 m 0,0,1
 157 670 157 670 99.5 702 c 128,-1,2
 42 734 42 734 -7 807 c 1,3,-1
 117 927 l 1,4,5
 132 911 132 911 134 891 c 128,-1,6
 136 871 136 871 141 864 c 0,7,8
 180 810 180 810 251 810 c 0,9,10
 305 810 305 810 336 838.5 c 128,-1,11
 367 867 367 867 367 919 c 0,12,13
 367 988 367 988 276 988 c 2,14,-1
 198 988 l 1,15,-1
 212 1109 l 1,16,-1
 286 1109 l 2,17,18
 329 1109 329 1109 355 1133 c 128,-1,19
 381 1157 381 1157 381 1190 c 0,20,21
 381 1256 381 1256 308.5 1256 c 128,-1,22
 236 1256 236 1256 164 1205 c 1,23,-1
 107 1310 l 1,24,25
 172 1359 172 1359 223.5 1377.5 c 128,-1,26
 275 1396 275 1396 350.5 1396 c 128,-1,27
 426 1396 426 1396 481.5 1351.5 c 128,-1,28
 537 1307 537 1307 537 1239 c 0,29,30
 537 1120 537 1120 432 1063 c 1,31,32
 475 1035 475 1035 495 1002.5 c 128,-1,33
 515 970 515 970 515 922 c 0,34,35
 515 815 515 815 433.5 742.5 c 128,-1,36
 352 670 352 670 233 670 c 0,0,1
79 0 m 1,37,-1
 895 1376 l 1,38,-1
 1072 1376 l 1,39,-1
 250 0 l 1,40,-1
 79 0 l 1,37,-1
439 129 m 1,41,-1
 451 224 l 1,42,-1
 851 710 l 1,43,-1
 1024 710 l 1,44,-1
 969 255 l 1,45,-1
 1042 255 l 1,46,-1
 1026 129 l 1,47,-1
 953 129 l 1,48,-1
 937 0 l 1,49,-1
 772 0 l 1,50,-1
 788 129 l 1,51,-1
 439 129 l 1,41,-1
638 255 m 1,52,-1
 804 255 l 1,53,-1
 821 400 l 1,54,-1
 847 520 l 1,55,-1
 638 255 l 1,52,-1
EndSplineSet
EndChar

StartChar: questiondown
Encoding: 191 191 131
Width: 1126
GlyphClass: 2
Flags: W
LayerCount: 2
Fore
SplineSet
707.5 1132 m 128,-1,1
 661 1087 661 1087 592.5 1087 c 128,-1,2
 524 1087 524 1087 480.5 1125.5 c 128,-1,3
 437 1164 437 1164 437 1227 c 128,-1,4
 437 1290 437 1290 484 1334 c 128,-1,5
 531 1378 531 1378 599.5 1378 c 128,-1,6
 668 1378 668 1378 711 1340 c 128,-1,7
 754 1302 754 1302 754 1239.5 c 128,-1,0
 754 1177 754 1177 707.5 1132 c 128,-1,1
94 273 m 1,8,-1
 95 293 l 2,9,10
 99 371 99 371 136 438.5 c 128,-1,11
 173 506 173 506 225 555.5 c 128,-1,12
 277 605 277 605 330 652 c 0,13,14
 460 765 460 765 477 873 c 2,15,-1
 492 966 l 1,16,-1
 698 966 l 1,17,-1
 684 850 l 2,18,19
 672 756 672 756 594 671 c 0,20,21
 558 632 558 632 478.5 557.5 c 128,-1,22
 399 483 399 483 366 445 c 0,23,24
 294 360 294 360 294 266 c 0,25,26
 294 207 294 207 338 173.5 c 128,-1,27
 382 140 382 140 462.5 140 c 128,-1,28
 543 140 543 140 614.5 179.5 c 128,-1,29
 686 219 686 219 771 305 c 1,30,-1
 907 181 l 1,31,32
 800 69 800 69 695 15.5 c 128,-1,33
 590 -38 590 -38 459 -38 c 0,34,35
 301 -38 301 -38 200 37 c 0,36,37
 150 74 150 74 122 134.5 c 128,-1,38
 94 195 94 195 94 273 c 1,8,-1
EndSplineSet
EndChar

StartChar: Agrave
Encoding: 192 192 132
Width: 1126
GlyphClass: 2
Flags: W
LayerCount: 2
Fore
SplineSet
398 1494 m 1,0,-1
 471 1680 l 1,1,-1
 846 1445 l 1,2,-1
 808 1338 l 1,3,-1
 398 1494 l 1,0,-1
-30 0 m 1,4,-1
 580 1298 l 1,5,-1
 725 1298 l 1,6,-1
 1026 0 l 1,7,-1
 796 0 l 1,8,-1
 727 319 l 1,9,-1
 336 319 l 1,10,-1
 196 0 l 1,11,-1
 -30 0 l 1,4,-1
420 510 m 1,12,-1
 685 510 l 1,13,-1
 598 915 l 1,14,-1
 420 510 l 1,12,-1
EndSplineSet
EndChar

StartChar: Aacute
Encoding: 193 193 133
Width: 1126
GlyphClass: 2
Flags: W
LayerCount: 2
Fore
SplineSet
548 1339 m 1,0,-1
 506 1440 l 1,1,-1
 878 1679 l 1,2,-1
 958 1500 l 1,3,-1
 548 1339 l 1,0,-1
-30 0 m 1,4,-1
 580 1298 l 1,5,-1
 725 1298 l 1,6,-1
 1026 0 l 1,7,-1
 796 0 l 1,8,-1
 727 319 l 1,9,-1
 336 319 l 1,10,-1
 196 0 l 1,11,-1
 -30 0 l 1,4,-1
420 510 m 1,12,-1
 685 510 l 1,13,-1
 598 915 l 1,14,-1
 420 510 l 1,12,-1
EndSplineSet
EndChar

StartChar: Acircumflex
Encoding: 194 194 134
Width: 1126
GlyphClass: 2
Flags: W
LayerCount: 2
Fore
SplineSet
407 1325 m 1,0,-1
 347 1407 l 1,1,-1
 659 1648 l 1,2,-1
 722 1648 l 1,3,-1
 961 1411 l 1,4,-1
 872 1319 l 1,5,-1
 666 1474 l 1,6,-1
 407 1325 l 1,0,-1
-30 0 m 1,7,-1
 580 1298 l 1,8,-1
 725 1298 l 1,9,-1
 1026 0 l 1,10,-1
 796 0 l 1,11,-1
 727 319 l 1,12,-1
 336 319 l 1,13,-1
 196 0 l 1,14,-1
 -30 0 l 1,7,-1
420 510 m 1,15,-1
 685 510 l 1,16,-1
 598 915 l 1,17,-1
 420 510 l 1,15,-1
EndSplineSet
EndChar

StartChar: Atilde
Encoding: 195 195 135
Width: 1126
GlyphClass: 2
Flags: W
LayerCount: 2
Fore
SplineSet
455 1618 m 128,-1,1
 519 1661 519 1661 580.5 1661 c 128,-1,2
 642 1661 642 1661 695.5 1635.5 c 128,-1,3
 749 1610 749 1610 790.5 1584.5 c 128,-1,4
 832 1559 832 1559 862.5 1559 c 128,-1,5
 893 1559 893 1559 916.5 1576.5 c 128,-1,6
 940 1594 940 1594 971 1636 c 1,7,-1
 1080 1530 l 1,8,9
 1019 1459 1019 1459 971.5 1429.5 c 128,-1,10
 924 1400 924 1400 872 1400 c 128,-1,11
 820 1400 820 1400 771 1425 c 128,-1,12
 722 1450 722 1450 676 1474.5 c 128,-1,13
 630 1499 630 1499 593.5 1499 c 128,-1,14
 557 1499 557 1499 518.5 1475 c 128,-1,15
 480 1451 480 1451 422 1386 c 1,16,-1
 317 1474 l 1,17,0
 391 1575 391 1575 455 1618 c 128,-1,1
-30 0 m 1,18,-1
 580 1298 l 1,19,-1
 725 1298 l 1,20,-1
 1026 0 l 1,21,-1
 796 0 l 1,22,-1
 727 319 l 1,23,-1
 336 319 l 1,24,-1
 196 0 l 1,25,-1
 -30 0 l 1,18,-1
420 510 m 1,26,-1
 685 510 l 1,27,-1
 598 915 l 1,28,-1
 420 510 l 1,26,-1
EndSplineSet
EndChar

StartChar: Adieresis
Encoding: 196 196 136
Width: 1126
GlyphClass: 2
Flags: W
LayerCount: 2
Fore
SplineSet
932.5 1442.5 m 128,-1,1
 886 1401 886 1401 828 1401 c 128,-1,2
 770 1401 770 1401 730 1437.5 c 128,-1,3
 690 1474 690 1474 690 1527 c 128,-1,4
 690 1580 690 1580 732.5 1623.5 c 128,-1,5
 775 1667 775 1667 836.5 1667 c 128,-1,6
 898 1667 898 1667 938.5 1630.5 c 128,-1,7
 979 1594 979 1594 979 1539 c 128,-1,0
 979 1484 979 1484 932.5 1442.5 c 128,-1,1
559.5 1442.5 m 128,-1,9
 513 1401 513 1401 455 1401 c 128,-1,10
 397 1401 397 1401 357 1437.5 c 128,-1,11
 317 1474 317 1474 317 1527 c 128,-1,12
 317 1580 317 1580 359.5 1623.5 c 128,-1,13
 402 1667 402 1667 463.5 1667 c 128,-1,14
 525 1667 525 1667 565.5 1630.5 c 128,-1,15
 606 1594 606 1594 606 1539 c 128,-1,8
 606 1484 606 1484 559.5 1442.5 c 128,-1,9
-30 0 m 1,16,-1
 580 1298 l 1,17,-1
 725 1298 l 1,18,-1
 1026 0 l 1,19,-1
 796 0 l 1,20,-1
 727 319 l 1,21,-1
 336 319 l 1,22,-1
 196 0 l 1,23,-1
 -30 0 l 1,16,-1
420 510 m 1,24,-1
 685 510 l 1,25,-1
 598 915 l 1,26,-1
 420 510 l 1,24,-1
EndSplineSet
EndChar

StartChar: Aring
Encoding: 197 197 137
Width: 1126
GlyphClass: 2
Flags: W
LayerCount: 2
Fore
SplineSet
453 1456 m 0,0,1
 453 1549 453 1549 517.5 1609 c 128,-1,2
 582 1669 582 1669 671.5 1669 c 128,-1,3
 761 1669 761 1669 820 1614.5 c 128,-1,4
 879 1560 879 1560 879 1473 c 0,5,6
 879 1403 879 1403 838 1349.5 c 128,-1,7
 797 1296 797 1296 731 1274 c 1,8,-1
 1026 0 l 1,9,-1
 796 0 l 1,10,-1
 727 319 l 1,11,-1
 336 319 l 1,12,-1
 196 0 l 1,13,-1
 -30 0 l 1,14,-1
 571 1278 l 1,15,16
 517 1300 517 1300 485 1347 c 128,-1,17
 453 1394 453 1394 453 1456 c 0,0,1
662 1393 m 0,18,19
 697 1393 697 1393 719 1413.5 c 128,-1,20
 741 1434 741 1434 742 1468 c 1,21,22
 742 1546 742 1546 672 1546 c 0,23,24
 637 1546 637 1546 614 1524.5 c 128,-1,25
 591 1503 591 1503 591 1468 c 0,26,27
 591 1393 591 1393 662 1393 c 0,18,19
420 510 m 1,28,-1
 685 510 l 1,29,-1
 598 915 l 1,30,-1
 420 510 l 1,28,-1
EndSplineSet
EndChar

StartChar: AE
Encoding: 198 198 138
Width: 1126
GlyphClass: 2
Flags: W
LayerCount: 2
Fore
SplineSet
-52 0 m 1,0,-1
 527 1276 l 1,1,-1
 1144 1276 l 1,2,-1
 1120 1076 l 1,3,-1
 798 1076 l 1,4,-1
 759 764 l 1,5,-1
 1030 764 l 1,6,-1
 1006 563 l 1,7,-1
 735 563 l 1,8,-1
 691 205 l 1,9,-1
 1009 205 l 1,10,-1
 984 0 l 1,11,-1
 433 0 l 1,12,-1
 474 328 l 1,13,-1
 300 328 l 1,14,-1
 169 0 l 1,15,-1
 -52 0 l 1,0,-1
374 514 m 1,16,-1
 498 514 l 1,17,-1
 561 1007 l 1,18,-1
 498 824 l 1,19,-1
 374 514 l 1,16,-1
EndSplineSet
EndChar

StartChar: Ccedilla
Encoding: 199 199 139
Width: 1126
GlyphClass: 2
Flags: W
LayerCount: 2
Fore
SplineSet
835 933 m 1,0,-1
 841 977 l 1,1,2
 841 1042 841 1042 799 1078.5 c 128,-1,3
 757 1115 757 1115 691 1115 c 0,4,5
 555 1115 555 1115 469.5 994 c 128,-1,6
 384 873 384 873 354 641 c 0,7,8
 343 553 343 553 343 487 c 0,9,10
 343 321 343 321 401 238.5 c 128,-1,11
 459 156 459 156 565 156 c 0,12,13
 708 156 708 156 811 326 c 1,14,-1
 971 213 l 1,15,16
 836 4 836 4 614 -31 c 1,17,-1
 606 -59 l 1,18,19
 689 -68 689 -68 725 -101 c 128,-1,20
 761 -134 761 -134 761 -195 c 0,21,22
 761 -284 761 -284 690.5 -344 c 128,-1,23
 620 -404 620 -404 480 -404 c 128,-1,24
 340 -404 340 -404 225 -309 c 1,25,-1
 295 -194 l 1,26,27
 371 -263 371 -263 491 -263 c 0,28,29
 546 -263 546 -263 568.5 -251.5 c 128,-1,30
 591 -240 591 -240 591 -216.5 c 128,-1,31
 591 -193 591 -193 580 -181 c 0,32,33
 555 -152 555 -152 422 -152 c 1,34,-1
 458 -33 l 1,35,36
 283 -12 283 -12 192 116.5 c 128,-1,37
 101 245 101 245 101 468 c 0,38,39
 101 540 101 540 112 631 c 0,40,41
 153 953 153 953 308.5 1131 c 128,-1,42
 464 1309 464 1309 711 1309 c 0,43,44
 867 1309 867 1309 953.5 1233 c 128,-1,45
 1040 1157 1040 1157 1072 997 c 1,46,-1
 840 910 l 1,47,48
 835 921 835 921 835 933 c 1,0,-1
EndSplineSet
EndChar

StartChar: Egrave
Encoding: 200 200 140
Width: 1126
GlyphClass: 2
Flags: W
LayerCount: 2
Fore
SplineSet
398 1494 m 1,0,-1
 471 1680 l 1,1,-1
 846 1445 l 1,2,-1
 808 1338 l 1,3,-1
 398 1494 l 1,0,-1
64 0 m 1,4,-1
 220 1276 l 1,5,-1
 1054 1276 l 1,6,-1
 1030 1075 l 1,7,-1
 422 1075 l 1,8,-1
 383 764 l 1,9,-1
 887 764 l 1,10,-1
 863 563 l 1,11,-1
 359 563 l 1,12,-1
 314 201 l 1,13,-1
 918 201 l 1,14,-1
 894 0 l 1,15,-1
 64 0 l 1,4,-1
EndSplineSet
EndChar

StartChar: Eacute
Encoding: 201 201 141
Width: 1126
GlyphClass: 2
Flags: W
LayerCount: 2
Fore
SplineSet
548 1339 m 1,0,-1
 506 1440 l 1,1,-1
 878 1679 l 1,2,-1
 958 1500 l 1,3,-1
 548 1339 l 1,0,-1
64 0 m 1,4,-1
 220 1276 l 1,5,-1
 1054 1276 l 1,6,-1
 1030 1075 l 1,7,-1
 422 1075 l 1,8,-1
 383 764 l 1,9,-1
 887 764 l 1,10,-1
 863 563 l 1,11,-1
 359 563 l 1,12,-1
 314 201 l 1,13,-1
 918 201 l 1,14,-1
 894 0 l 1,15,-1
 64 0 l 1,4,-1
EndSplineSet
EndChar

StartChar: Ecircumflex
Encoding: 202 202 142
Width: 1126
GlyphClass: 2
Flags: W
LayerCount: 2
Fore
SplineSet
407 1325 m 1,0,-1
 347 1407 l 1,1,-1
 659 1648 l 1,2,-1
 722 1648 l 1,3,-1
 961 1411 l 1,4,-1
 872 1319 l 1,5,-1
 666 1474 l 1,6,-1
 407 1325 l 1,0,-1
64 0 m 1,7,-1
 220 1276 l 1,8,-1
 1054 1276 l 1,9,-1
 1030 1075 l 1,10,-1
 422 1075 l 1,11,-1
 383 764 l 1,12,-1
 887 764 l 1,13,-1
 863 563 l 1,14,-1
 359 563 l 1,15,-1
 314 201 l 1,16,-1
 918 201 l 1,17,-1
 894 0 l 1,18,-1
 64 0 l 1,7,-1
EndSplineSet
EndChar

StartChar: Edieresis
Encoding: 203 203 143
Width: 1126
GlyphClass: 2
Flags: W
LayerCount: 2
Fore
SplineSet
932.5 1442.5 m 128,-1,1
 886 1401 886 1401 828 1401 c 128,-1,2
 770 1401 770 1401 730 1437.5 c 128,-1,3
 690 1474 690 1474 690 1527 c 128,-1,4
 690 1580 690 1580 732.5 1623.5 c 128,-1,5
 775 1667 775 1667 836.5 1667 c 128,-1,6
 898 1667 898 1667 938.5 1630.5 c 128,-1,7
 979 1594 979 1594 979 1539 c 128,-1,0
 979 1484 979 1484 932.5 1442.5 c 128,-1,1
559.5 1442.5 m 128,-1,9
 513 1401 513 1401 455 1401 c 128,-1,10
 397 1401 397 1401 357 1437.5 c 128,-1,11
 317 1474 317 1474 317 1527 c 128,-1,12
 317 1580 317 1580 359.5 1623.5 c 128,-1,13
 402 1667 402 1667 463.5 1667 c 128,-1,14
 525 1667 525 1667 565.5 1630.5 c 128,-1,15
 606 1594 606 1594 606 1539 c 128,-1,8
 606 1484 606 1484 559.5 1442.5 c 128,-1,9
64 0 m 1,16,-1
 220 1276 l 1,17,-1
 1054 1276 l 1,18,-1
 1030 1075 l 1,19,-1
 422 1075 l 1,20,-1
 383 764 l 1,21,-1
 887 764 l 1,22,-1
 863 563 l 1,23,-1
 359 563 l 1,24,-1
 314 201 l 1,25,-1
 918 201 l 1,26,-1
 894 0 l 1,27,-1
 64 0 l 1,16,-1
EndSplineSet
EndChar

StartChar: Igrave
Encoding: 204 204 144
Width: 1126
GlyphClass: 2
Flags: W
LayerCount: 2
Fore
SplineSet
399 1494 m 1,0,-1
 472 1680 l 1,1,-1
 847 1445 l 1,2,-1
 809 1338 l 1,3,-1
 399 1494 l 1,0,-1
129 0 m 1,4,-1
 154 203 l 1,5,-1
 385 203 l 1,6,-1
 492 1075 l 1,7,-1
 261 1075 l 1,8,-1
 285 1276 l 1,9,-1
 997 1276 l 1,10,-1
 973 1075 l 1,11,-1
 728 1075 l 1,12,-1
 620 201 l 1,13,-1
 865 201 l 1,14,-1
 841 0 l 1,15,-1
 129 0 l 1,4,-1
EndSplineSet
EndChar

StartChar: Iacute
Encoding: 205 205 145
Width: 1126
GlyphClass: 2
Flags: W
LayerCount: 2
Fore
SplineSet
549 1339 m 1,0,-1
 507 1440 l 1,1,-1
 879 1679 l 1,2,-1
 959 1500 l 1,3,-1
 549 1339 l 1,0,-1
129 0 m 1,4,-1
 154 203 l 1,5,-1
 385 203 l 1,6,-1
 492 1075 l 1,7,-1
 261 1075 l 1,8,-1
 285 1276 l 1,9,-1
 997 1276 l 1,10,-1
 973 1075 l 1,11,-1
 728 1075 l 1,12,-1
 620 201 l 1,13,-1
 865 201 l 1,14,-1
 841 0 l 1,15,-1
 129 0 l 1,4,-1
EndSplineSet
EndChar

StartChar: Icircumflex
Encoding: 206 206 146
Width: 1126
GlyphClass: 2
Flags: W
LayerCount: 2
Fore
SplineSet
408 1325 m 1,0,-1
 348 1407 l 1,1,-1
 660 1648 l 1,2,-1
 723 1648 l 1,3,-1
 962 1411 l 1,4,-1
 873 1319 l 1,5,-1
 667 1474 l 1,6,-1
 408 1325 l 1,0,-1
129 0 m 1,7,-1
 154 203 l 1,8,-1
 385 203 l 1,9,-1
 492 1075 l 1,10,-1
 261 1075 l 1,11,-1
 285 1276 l 1,12,-1
 997 1276 l 1,13,-1
 973 1075 l 1,14,-1
 728 1075 l 1,15,-1
 620 201 l 1,16,-1
 865 201 l 1,17,-1
 841 0 l 1,18,-1
 129 0 l 1,7,-1
EndSplineSet
EndChar

StartChar: Idieresis
Encoding: 207 207 147
Width: 1126
GlyphClass: 2
Flags: W
LayerCount: 2
Fore
SplineSet
933.5 1442.5 m 128,-1,1
 887 1401 887 1401 829 1401 c 128,-1,2
 771 1401 771 1401 731 1437.5 c 128,-1,3
 691 1474 691 1474 691 1527 c 128,-1,4
 691 1580 691 1580 733.5 1623.5 c 128,-1,5
 776 1667 776 1667 837.5 1667 c 128,-1,6
 899 1667 899 1667 939.5 1630.5 c 128,-1,7
 980 1594 980 1594 980 1539 c 128,-1,0
 980 1484 980 1484 933.5 1442.5 c 128,-1,1
560.5 1442.5 m 128,-1,9
 514 1401 514 1401 456 1401 c 128,-1,10
 398 1401 398 1401 358 1437.5 c 128,-1,11
 318 1474 318 1474 318 1527 c 128,-1,12
 318 1580 318 1580 360.5 1623.5 c 128,-1,13
 403 1667 403 1667 464.5 1667 c 128,-1,14
 526 1667 526 1667 566.5 1630.5 c 128,-1,15
 607 1594 607 1594 607 1539 c 128,-1,8
 607 1484 607 1484 560.5 1442.5 c 128,-1,9
129 0 m 1,16,-1
 154 203 l 1,17,-1
 385 203 l 1,18,-1
 492 1075 l 1,19,-1
 261 1075 l 1,20,-1
 285 1276 l 1,21,-1
 997 1276 l 1,22,-1
 973 1075 l 1,23,-1
 728 1075 l 1,24,-1
 620 201 l 1,25,-1
 865 201 l 1,26,-1
 841 0 l 1,27,-1
 129 0 l 1,16,-1
EndSplineSet
EndChar

StartChar: Eth
Encoding: 208 208 148
Width: 1126
GlyphClass: 2
Flags: W
LayerCount: 2
Fore
SplineSet
578 1276 m 2,0,1
 811 1276 811 1276 937.5 1142 c 128,-1,2
 1064 1008 1064 1008 1064 764 c 0,3,4
 1064 588 1064 588 1015 444 c 128,-1,5
 966 300 966 300 878.5 203 c 128,-1,6
 791 106 791 106 667.5 53 c 128,-1,7
 544 0 544 0 397 0 c 2,8,-1
 59 0 l 1,9,-1
 128 563 l 1,10,-1
 29 563 l 1,11,-1
 52 750 l 1,12,-1
 151 750 l 1,13,-1
 215 1276 l 1,14,-1
 578 1276 l 2,0,1
437 201 m 2,15,16
 608 201 608 201 719.5 345.5 c 128,-1,17
 831 490 831 490 831 734 c 0,18,19
 831 896 831 896 758.5 985.5 c 128,-1,20
 686 1075 686 1075 556 1075 c 2,21,-1
 427 1075 l 1,22,-1
 387 750 l 1,23,-1
 650 750 l 1,24,-1
 627 563 l 1,25,-1
 364 563 l 1,26,-1
 319 201 l 1,27,-1
 437 201 l 2,15,16
EndSplineSet
EndChar

StartChar: Ntilde
Encoding: 209 209 149
Width: 1126
GlyphClass: 2
Flags: W
LayerCount: 2
Fore
SplineSet
494 1618 m 128,-1,1
 558 1661 558 1661 619.5 1661 c 128,-1,2
 681 1661 681 1661 734.5 1635.5 c 128,-1,3
 788 1610 788 1610 829.5 1584.5 c 128,-1,4
 871 1559 871 1559 901.5 1559 c 128,-1,5
 932 1559 932 1559 955.5 1576.5 c 128,-1,6
 979 1594 979 1594 1010 1636 c 1,7,-1
 1119 1530 l 1,8,9
 1058 1459 1058 1459 1010.5 1429.5 c 128,-1,10
 963 1400 963 1400 911 1400 c 128,-1,11
 859 1400 859 1400 810 1425 c 128,-1,12
 761 1450 761 1450 715 1474.5 c 128,-1,13
 669 1499 669 1499 632.5 1499 c 128,-1,14
 596 1499 596 1499 557.5 1475 c 128,-1,15
 519 1451 519 1451 461 1386 c 1,16,-1
 356 1474 l 1,17,0
 430 1575 430 1575 494 1618 c 128,-1,1
1106 1276 m 1,18,19
 1106 1267 1106 1267 1096.5 1246.5 c 128,-1,20
 1087 1226 1087 1226 1083 1204 c 1,21,-1
 936 0 l 1,22,-1
 703 0 l 1,23,-1
 443 769 l 1,24,-1
 365 1023 l 1,25,-1
 354 766 l 1,26,-1
 260 0 l 1,27,-1
 44 0 l 1,28,-1
 200 1276 l 1,29,-1
 480 1276 l 1,30,-1
 680 668 l 1,31,-1
 784 362 l 1,32,-1
 804 685 l 1,33,-1
 876 1276 l 1,34,-1
 1106 1276 l 1,18,19
EndSplineSet
EndChar

StartChar: Ograve
Encoding: 210 210 150
Width: 1126
GlyphClass: 2
Flags: W
LayerCount: 2
Fore
SplineSet
394 1494 m 1,0,-1
 467 1680 l 1,1,-1
 842 1445 l 1,2,-1
 804 1338 l 1,3,-1
 394 1494 l 1,0,-1
482 -37 m 0,4,5
 276 -37 276 -37 165 100.5 c 128,-1,6
 54 238 54 238 54 486 c 128,-1,7
 54 734 54 734 130 922 c 128,-1,8
 206 1110 206 1110 340.5 1209.5 c 128,-1,9
 475 1309 475 1309 648 1309 c 0,10,11
 853 1309 853 1309 963.5 1175 c 128,-1,12
 1074 1041 1074 1041 1074 790.5 c 128,-1,13
 1074 540 1074 540 996.5 350 c 128,-1,14
 919 160 919 160 785.5 61.5 c 128,-1,15
 652 -37 652 -37 482 -37 c 0,4,5
508 158 m 0,16,17
 648 158 648 158 741.5 335.5 c 128,-1,18
 835 513 835 513 835 794 c 0,19,20
 835 1114 835 1114 625 1114 c 0,21,22
 485 1114 485 1114 390 948 c 128,-1,23
 295 782 295 782 295 506 c 0,24,25
 295 344 295 344 350 251 c 128,-1,26
 405 158 405 158 508 158 c 0,16,17
EndSplineSet
EndChar

StartChar: Oacute
Encoding: 211 211 151
Width: 1126
GlyphClass: 2
Flags: W
LayerCount: 2
Fore
SplineSet
544 1339 m 1,0,-1
 502 1440 l 1,1,-1
 874 1679 l 1,2,-1
 954 1500 l 1,3,-1
 544 1339 l 1,0,-1
482 -37 m 0,4,5
 276 -37 276 -37 165 100.5 c 128,-1,6
 54 238 54 238 54 486 c 128,-1,7
 54 734 54 734 130 922 c 128,-1,8
 206 1110 206 1110 340.5 1209.5 c 128,-1,9
 475 1309 475 1309 648 1309 c 0,10,11
 853 1309 853 1309 963.5 1175 c 128,-1,12
 1074 1041 1074 1041 1074 790.5 c 128,-1,13
 1074 540 1074 540 996.5 350 c 128,-1,14
 919 160 919 160 785.5 61.5 c 128,-1,15
 652 -37 652 -37 482 -37 c 0,4,5
508 158 m 0,16,17
 648 158 648 158 741.5 335.5 c 128,-1,18
 835 513 835 513 835 794 c 0,19,20
 835 1114 835 1114 625 1114 c 0,21,22
 485 1114 485 1114 390 948 c 128,-1,23
 295 782 295 782 295 506 c 0,24,25
 295 344 295 344 350 251 c 128,-1,26
 405 158 405 158 508 158 c 0,16,17
EndSplineSet
EndChar

StartChar: Ocircumflex
Encoding: 212 212 152
Width: 1126
GlyphClass: 2
Flags: W
LayerCount: 2
Fore
SplineSet
403 1325 m 1,0,-1
 343 1407 l 1,1,-1
 655 1648 l 1,2,-1
 718 1648 l 1,3,-1
 957 1411 l 1,4,-1
 868 1319 l 1,5,-1
 662 1474 l 1,6,-1
 403 1325 l 1,0,-1
482 -37 m 0,7,8
 276 -37 276 -37 165 100.5 c 128,-1,9
 54 238 54 238 54 486 c 128,-1,10
 54 734 54 734 130 922 c 128,-1,11
 206 1110 206 1110 340.5 1209.5 c 128,-1,12
 475 1309 475 1309 648 1309 c 0,13,14
 853 1309 853 1309 963.5 1175 c 128,-1,15
 1074 1041 1074 1041 1074 790.5 c 128,-1,16
 1074 540 1074 540 996.5 350 c 128,-1,17
 919 160 919 160 785.5 61.5 c 128,-1,18
 652 -37 652 -37 482 -37 c 0,7,8
508 158 m 0,19,20
 648 158 648 158 741.5 335.5 c 128,-1,21
 835 513 835 513 835 794 c 0,22,23
 835 1114 835 1114 625 1114 c 0,24,25
 485 1114 485 1114 390 948 c 128,-1,26
 295 782 295 782 295 506 c 0,27,28
 295 344 295 344 350 251 c 128,-1,29
 405 158 405 158 508 158 c 0,19,20
EndSplineSet
EndChar

StartChar: Otilde
Encoding: 213 213 153
Width: 1126
GlyphClass: 2
Flags: W
LayerCount: 2
Fore
SplineSet
451 1618 m 128,-1,1
 515 1661 515 1661 576.5 1661 c 128,-1,2
 638 1661 638 1661 691.5 1635.5 c 128,-1,3
 745 1610 745 1610 786.5 1584.5 c 128,-1,4
 828 1559 828 1559 858.5 1559 c 128,-1,5
 889 1559 889 1559 912.5 1576.5 c 128,-1,6
 936 1594 936 1594 967 1636 c 1,7,-1
 1076 1530 l 1,8,9
 1015 1459 1015 1459 967.5 1429.5 c 128,-1,10
 920 1400 920 1400 868 1400 c 128,-1,11
 816 1400 816 1400 767 1425 c 128,-1,12
 718 1450 718 1450 672 1474.5 c 128,-1,13
 626 1499 626 1499 589.5 1499 c 128,-1,14
 553 1499 553 1499 514.5 1475 c 128,-1,15
 476 1451 476 1451 418 1386 c 1,16,-1
 313 1474 l 1,17,0
 387 1575 387 1575 451 1618 c 128,-1,1
482 -37 m 0,18,19
 276 -37 276 -37 165 100.5 c 128,-1,20
 54 238 54 238 54 486 c 128,-1,21
 54 734 54 734 130 922 c 128,-1,22
 206 1110 206 1110 340.5 1209.5 c 128,-1,23
 475 1309 475 1309 648 1309 c 0,24,25
 853 1309 853 1309 963.5 1175 c 128,-1,26
 1074 1041 1074 1041 1074 790.5 c 128,-1,27
 1074 540 1074 540 996.5 350 c 128,-1,28
 919 160 919 160 785.5 61.5 c 128,-1,29
 652 -37 652 -37 482 -37 c 0,18,19
508 158 m 0,30,31
 648 158 648 158 741.5 335.5 c 128,-1,32
 835 513 835 513 835 794 c 0,33,34
 835 1114 835 1114 625 1114 c 0,35,36
 485 1114 485 1114 390 948 c 128,-1,37
 295 782 295 782 295 506 c 0,38,39
 295 344 295 344 350 251 c 128,-1,40
 405 158 405 158 508 158 c 0,30,31
EndSplineSet
EndChar

StartChar: Odieresis
Encoding: 214 214 154
Width: 1126
GlyphClass: 2
Flags: W
LayerCount: 2
Fore
SplineSet
928.5 1442.5 m 128,-1,1
 882 1401 882 1401 824 1401 c 128,-1,2
 766 1401 766 1401 726 1437.5 c 128,-1,3
 686 1474 686 1474 686 1527 c 128,-1,4
 686 1580 686 1580 728.5 1623.5 c 128,-1,5
 771 1667 771 1667 832.5 1667 c 128,-1,6
 894 1667 894 1667 934.5 1630.5 c 128,-1,7
 975 1594 975 1594 975 1539 c 128,-1,0
 975 1484 975 1484 928.5 1442.5 c 128,-1,1
555.5 1442.5 m 128,-1,9
 509 1401 509 1401 451 1401 c 128,-1,10
 393 1401 393 1401 353 1437.5 c 128,-1,11
 313 1474 313 1474 313 1527 c 128,-1,12
 313 1580 313 1580 355.5 1623.5 c 128,-1,13
 398 1667 398 1667 459.5 1667 c 128,-1,14
 521 1667 521 1667 561.5 1630.5 c 128,-1,15
 602 1594 602 1594 602 1539 c 128,-1,8
 602 1484 602 1484 555.5 1442.5 c 128,-1,9
482 -37 m 0,16,17
 276 -37 276 -37 165 100.5 c 128,-1,18
 54 238 54 238 54 486 c 128,-1,19
 54 734 54 734 130 922 c 128,-1,20
 206 1110 206 1110 340.5 1209.5 c 128,-1,21
 475 1309 475 1309 648 1309 c 0,22,23
 853 1309 853 1309 963.5 1175 c 128,-1,24
 1074 1041 1074 1041 1074 790.5 c 128,-1,25
 1074 540 1074 540 996.5 350 c 128,-1,26
 919 160 919 160 785.5 61.5 c 128,-1,27
 652 -37 652 -37 482 -37 c 0,16,17
508 158 m 0,28,29
 648 158 648 158 741.5 335.5 c 128,-1,30
 835 513 835 513 835 794 c 0,31,32
 835 1114 835 1114 625 1114 c 0,33,34
 485 1114 485 1114 390 948 c 128,-1,35
 295 782 295 782 295 506 c 0,36,37
 295 344 295 344 350 251 c 128,-1,38
 405 158 405 158 508 158 c 0,28,29
EndSplineSet
EndChar

StartChar: multiply
Encoding: 215 215 155
Width: 1126
GlyphClass: 2
Flags: W
LayerCount: 2
Fore
SplineSet
281 311 m 1,0,-1
 148 444 l 1,1,-1
 423 664 l 1,2,-1
 190 898 l 1,3,-1
 337 1014 l 1,4,-1
 571 781 l 1,5,-1
 823 981 l 1,6,-1
 956 848 l 1,7,-1
 704 648 l 1,8,-1
 930 422 l 1,9,-1
 782 305 l 1,10,-1
 556 531 l 1,11,-1
 281 311 l 1,0,-1
EndSplineSet
EndChar

StartChar: Oslash
Encoding: 216 216 156
Width: 1126
GlyphClass: 2
Flags: W
LayerCount: 2
Fore
SplineSet
53 486 m 0,0,1
 53 555 53 555 64 641 c 0,2,3
 103 955 103 955 257 1132 c 128,-1,4
 411 1309 411 1309 648 1309 c 0,5,6
 771 1309 771 1309 861 1260 c 1,7,-1
 951 1401 l 1,8,-1
 1085 1314 l 1,9,-1
 981 1152 l 1,10,11
 1074 1019 1074 1019 1074 793 c 0,12,13
 1074 603 1074 603 1029.5 446 c 128,-1,14
 985 289 985 289 906 183.5 c 128,-1,15
 827 78 827 78 718.5 20.5 c 128,-1,16
 610 -37 610 -37 480.5 -37 c 128,-1,17
 351 -37 351 -37 256 21 c 1,18,-1
 159 -130 l 1,19,-1
 28 -49 l 1,20,-1
 143 131 l 1,21,22
 53 265 53 265 53 486 c 0,0,1
625 1114 m 0,23,24
 485 1114 485 1114 389.5 948 c 128,-1,25
 294 782 294 782 294 506 c 0,26,27
 294 438 294 438 304 385 c 1,28,-1
 744 1076 l 1,29,30
 697 1114 697 1114 625 1114 c 0,23,24
508 158 m 0,31,32
 648 158 648 158 741.5 335.5 c 128,-1,33
 835 513 835 513 835 794 c 0,34,35
 835 858 835 858 826 910 c 1,36,-1
 379 213 l 1,37,38
 429 158 429 158 508 158 c 0,31,32
EndSplineSet
EndChar

StartChar: Ugrave
Encoding: 217 217 157
Width: 1126
GlyphClass: 2
Flags: W
LayerCount: 2
Fore
SplineSet
414 1494 m 1,0,-1
 487 1680 l 1,1,-1
 862 1445 l 1,2,-1
 824 1338 l 1,3,-1
 414 1494 l 1,0,-1
311 389 m 0,4,5
 311 277 311 277 364 217.5 c 128,-1,6
 417 158 417 158 513.5 158 c 128,-1,7
 610 158 610 158 683.5 235.5 c 128,-1,8
 757 313 757 313 774 455 c 2,9,-1
 875 1276 l 1,10,-1
 1101 1276 l 1,11,-1
 1000 457 l 2,12,13
 971 223 971 223 830.5 93 c 128,-1,14
 690 -37 690 -37 479 -37 c 0,15,16
 290 -37 290 -37 181.5 68 c 128,-1,17
 73 173 73 173 73 364 c 0,18,19
 73 406 73 406 79 451 c 2,20,-1
 179 1276 l 1,21,-1
 431 1276 l 1,22,23
 429 1253 429 1253 418.5 1237 c 128,-1,24
 408 1221 408 1221 406 1204 c 2,25,-1
 315 449 l 2,26,27
 311 421 311 421 311 389 c 0,4,5
EndSplineSet
EndChar

StartChar: Uacute
Encoding: 218 218 158
Width: 1126
GlyphClass: 2
Flags: W
LayerCount: 2
Fore
SplineSet
564 1339 m 1,0,-1
 522 1440 l 1,1,-1
 894 1679 l 1,2,-1
 974 1500 l 1,3,-1
 564 1339 l 1,0,-1
311 389 m 0,4,5
 311 277 311 277 364 217.5 c 128,-1,6
 417 158 417 158 513.5 158 c 128,-1,7
 610 158 610 158 683.5 235.5 c 128,-1,8
 757 313 757 313 774 455 c 2,9,-1
 875 1276 l 1,10,-1
 1101 1276 l 1,11,-1
 1000 457 l 2,12,13
 971 223 971 223 830.5 93 c 128,-1,14
 690 -37 690 -37 479 -37 c 0,15,16
 290 -37 290 -37 181.5 68 c 128,-1,17
 73 173 73 173 73 364 c 0,18,19
 73 406 73 406 79 451 c 2,20,-1
 179 1276 l 1,21,-1
 431 1276 l 1,22,23
 429 1253 429 1253 418.5 1237 c 128,-1,24
 408 1221 408 1221 406 1204 c 2,25,-1
 315 449 l 2,26,27
 311 421 311 421 311 389 c 0,4,5
EndSplineSet
EndChar

StartChar: Ucircumflex
Encoding: 219 219 159
Width: 1126
GlyphClass: 2
Flags: W
LayerCount: 2
Fore
SplineSet
423 1325 m 1,0,-1
 363 1407 l 1,1,-1
 675 1648 l 1,2,-1
 738 1648 l 1,3,-1
 977 1411 l 1,4,-1
 888 1319 l 1,5,-1
 682 1474 l 1,6,-1
 423 1325 l 1,0,-1
311 389 m 0,7,8
 311 277 311 277 364 217.5 c 128,-1,9
 417 158 417 158 513.5 158 c 128,-1,10
 610 158 610 158 683.5 235.5 c 128,-1,11
 757 313 757 313 774 455 c 2,12,-1
 875 1276 l 1,13,-1
 1101 1276 l 1,14,-1
 1000 457 l 2,15,16
 971 223 971 223 830.5 93 c 128,-1,17
 690 -37 690 -37 479 -37 c 0,18,19
 290 -37 290 -37 181.5 68 c 128,-1,20
 73 173 73 173 73 364 c 0,21,22
 73 406 73 406 79 451 c 2,23,-1
 179 1276 l 1,24,-1
 431 1276 l 1,25,26
 429 1253 429 1253 418.5 1237 c 128,-1,27
 408 1221 408 1221 406 1204 c 2,28,-1
 315 449 l 2,29,30
 311 421 311 421 311 389 c 0,7,8
EndSplineSet
EndChar

StartChar: Udieresis
Encoding: 220 220 160
Width: 1126
GlyphClass: 2
Flags: W
LayerCount: 2
Fore
SplineSet
948.5 1442.5 m 128,-1,1
 902 1401 902 1401 844 1401 c 128,-1,2
 786 1401 786 1401 746 1437.5 c 128,-1,3
 706 1474 706 1474 706 1527 c 128,-1,4
 706 1580 706 1580 748.5 1623.5 c 128,-1,5
 791 1667 791 1667 852.5 1667 c 128,-1,6
 914 1667 914 1667 954.5 1630.5 c 128,-1,7
 995 1594 995 1594 995 1539 c 128,-1,0
 995 1484 995 1484 948.5 1442.5 c 128,-1,1
575.5 1442.5 m 128,-1,9
 529 1401 529 1401 471 1401 c 128,-1,10
 413 1401 413 1401 373 1437.5 c 128,-1,11
 333 1474 333 1474 333 1527 c 128,-1,12
 333 1580 333 1580 375.5 1623.5 c 128,-1,13
 418 1667 418 1667 479.5 1667 c 128,-1,14
 541 1667 541 1667 581.5 1630.5 c 128,-1,15
 622 1594 622 1594 622 1539 c 128,-1,8
 622 1484 622 1484 575.5 1442.5 c 128,-1,9
311 389 m 0,16,17
 311 277 311 277 364 217.5 c 128,-1,18
 417 158 417 158 513.5 158 c 128,-1,19
 610 158 610 158 683.5 235.5 c 128,-1,20
 757 313 757 313 774 455 c 2,21,-1
 875 1276 l 1,22,-1
 1101 1276 l 1,23,-1
 1000 457 l 2,24,25
 971 223 971 223 830.5 93 c 128,-1,26
 690 -37 690 -37 479 -37 c 0,27,28
 290 -37 290 -37 181.5 68 c 128,-1,29
 73 173 73 173 73 364 c 0,30,31
 73 406 73 406 79 451 c 2,32,-1
 179 1276 l 1,33,-1
 431 1276 l 1,34,35
 429 1253 429 1253 418.5 1237 c 128,-1,36
 408 1221 408 1221 406 1204 c 2,37,-1
 315 449 l 2,38,39
 311 421 311 421 311 389 c 0,16,17
EndSplineSet
EndChar

StartChar: Yacute
Encoding: 221 221 161
Width: 1126
GlyphClass: 2
Flags: W
LayerCount: 2
Fore
SplineSet
549 1339 m 1,0,-1
 507 1440 l 1,1,-1
 879 1679 l 1,2,-1
 959 1500 l 1,3,-1
 549 1339 l 1,0,-1
379 0 m 1,4,-1
 440 499 l 1,5,-1
 106 1276 l 1,6,-1
 362 1276 l 1,7,-1
 484 942 l 1,8,-1
 576 661 l 1,9,-1
 722 943 l 1,10,-1
 908 1276 l 1,11,-1
 1162 1276 l 1,12,-1
 676 497 l 1,13,-1
 615 0 l 1,14,-1
 379 0 l 1,4,-1
EndSplineSet
EndChar

StartChar: Thorn
Encoding: 222 222 162
Width: 1126
GlyphClass: 2
Flags: W
LayerCount: 2
Fore
SplineSet
636 1057 m 2,0,1
 832 1057 832 1057 927.5 967 c 128,-1,2
 1023 877 1023 877 1023 733 c 0,3,4
 1023 552 1023 552 908 428 c 0,5,6
 852 367 852 367 760.5 332 c 128,-1,7
 669 297 669 297 553 297 c 2,8,-1
 348 297 l 1,9,-1
 312 0 l 1,10,-1
 76 0 l 1,11,-1
 232 1276 l 1,12,-1
 483 1276 l 1,13,14
 482 1255 482 1255 471.5 1236 c 128,-1,15
 461 1217 461 1217 459 1200 c 2,16,-1
 441 1057 l 1,17,-1
 636 1057 l 2,0,1
560 492 m 2,18,19
 784 492 784 492 784 693 c 0,20,21
 784 854 784 854 607 854 c 2,22,-1
 417 854 l 1,23,-1
 372 492 l 1,24,-1
 560 492 l 2,18,19
EndSplineSet
EndChar

StartChar: germandbls
Encoding: 223 223 163
Width: 1126
GlyphClass: 2
Flags: W
LayerCount: 2
Fore
SplineSet
591 1401 m 0,0,1
 696 1401 696 1401 775 1373 c 128,-1,2
 854 1345 854 1345 899 1296 c 0,3,4
 988 1199 988 1199 988 1062 c 0,5,6
 988 818 988 818 769 729 c 1,7,8
 895 681 895 681 952.5 610.5 c 128,-1,9
 1010 540 1010 540 1010 430 c 0,10,11
 1010 228 1010 228 891.5 98.5 c 128,-1,12
 773 -31 773 -31 562 -31 c 0,13,14
 419 -31 419 -31 306 36 c 1,15,-1
 434 221 l 1,16,17
 497 168 497 168 569 168 c 0,18,19
 649 168 649 168 714 223 c 0,20,21
 745 250 745 250 764 297.5 c 128,-1,22
 783 345 783 345 783 405 c 0,23,24
 783 505 783 505 714.5 566 c 128,-1,25
 646 627 646 627 514 627 c 2,26,-1
 456 627 l 1,27,-1
 478 809 l 1,28,-1
 557 809 l 2,29,30
 641 809 641 809 699.5 869 c 128,-1,31
 758 929 758 929 758 1039 c 0,32,33
 758 1121 758 1121 712 1169 c 128,-1,34
 666 1217 666 1217 572.5 1217 c 128,-1,35
 479 1217 479 1217 422 1150.5 c 128,-1,36
 365 1084 365 1084 349 948 c 2,37,-1
 233 0 l 1,38,-1
 -2 0 l 1,39,-1
 116 974 l 2,40,41
 142 1188 142 1188 265.5 1294.5 c 128,-1,42
 389 1401 389 1401 591 1401 c 0,0,1
EndSplineSet
EndChar

StartChar: agrave
Encoding: 224 224 164
Width: 1126
GlyphClass: 2
Flags: W
LayerCount: 2
Fore
SplineSet
688 1029 m 1,0,-1
 492 1340 l 1,1,-1
 671 1452 l 1,2,-1
 810 1096 l 1,3,-1
 688 1029 l 1,0,-1
404 -21 m 0,4,5
 245 -21 245 -21 156.5 88 c 128,-1,6
 68 197 68 197 68 376 c 0,7,8
 68 501 68 501 99.5 603.5 c 128,-1,9
 131 706 131 706 183 774 c 128,-1,10
 235 842 235 842 305 889 c 0,11,12
 436 977 436 977 603 977 c 0,13,14
 721 977 721 977 824 939 c 1,15,-1
 1054 962 l 1,16,17
 1051 941 1051 941 1041 915 c 128,-1,18
 1031 889 1031 889 1029 869 c 2,19,-1
 946 175 l 2,20,21
 941 130 941 130 941 85.5 c 128,-1,22
 941 41 941 41 949 0 c 1,23,-1
 726 0 l 1,24,25
 715 40 715 40 715 76 c 128,-1,26
 715 112 715 112 718 137 c 1,27,28
 692 92 692 92 652 59 c 128,-1,29
 612 26 612 26 568 10 c 0,30,31
 485 -21 485 -21 404 -21 c 0,4,5
348.5 225.5 m 128,-1,33
 395 163 395 163 491.5 163 c 128,-1,34
 588 163 588 163 658 242 c 128,-1,35
 728 321 728 321 748 453 c 1,36,-1
 789 788 l 1,37,38
 723 807 723 807 666 807 c 128,-1,39
 609 807 609 807 559.5 793.5 c 128,-1,40
 510 780 510 780 463 748 c 128,-1,41
 416 716 416 716 380.5 669.5 c 128,-1,42
 345 623 345 623 323.5 551.5 c 128,-1,43
 302 480 302 480 302 384 c 128,-1,32
 302 288 302 288 348.5 225.5 c 128,-1,33
EndSplineSet
EndChar

StartChar: aacute
Encoding: 225 225 165
Width: 1126
GlyphClass: 2
Flags: W
LayerCount: 2
Fore
SplineSet
516 1076 m 1,0,-1
 719 1446 l 1,1,-1
 877 1350 l 1,2,-1
 625 1019 l 1,3,-1
 516 1076 l 1,0,-1
404 -21 m 0,4,5
 245 -21 245 -21 156.5 88 c 128,-1,6
 68 197 68 197 68 376 c 0,7,8
 68 501 68 501 99.5 603.5 c 128,-1,9
 131 706 131 706 183 774 c 128,-1,10
 235 842 235 842 305 889 c 0,11,12
 436 977 436 977 603 977 c 0,13,14
 721 977 721 977 824 939 c 1,15,-1
 1054 962 l 1,16,17
 1051 941 1051 941 1041 915 c 128,-1,18
 1031 889 1031 889 1029 869 c 2,19,-1
 946 175 l 2,20,21
 941 130 941 130 941 85.5 c 128,-1,22
 941 41 941 41 949 0 c 1,23,-1
 726 0 l 1,24,25
 715 40 715 40 715 76 c 128,-1,26
 715 112 715 112 718 137 c 1,27,28
 692 92 692 92 652 59 c 128,-1,29
 612 26 612 26 568 10 c 0,30,31
 485 -21 485 -21 404 -21 c 0,4,5
348.5 225.5 m 128,-1,33
 395 163 395 163 491.5 163 c 128,-1,34
 588 163 588 163 658 242 c 128,-1,35
 728 321 728 321 748 453 c 1,36,-1
 789 788 l 1,37,38
 723 807 723 807 666 807 c 128,-1,39
 609 807 609 807 559.5 793.5 c 128,-1,40
 510 780 510 780 463 748 c 128,-1,41
 416 716 416 716 380.5 669.5 c 128,-1,42
 345 623 345 623 323.5 551.5 c 128,-1,43
 302 480 302 480 302 384 c 128,-1,32
 302 288 302 288 348.5 225.5 c 128,-1,33
EndSplineSet
EndChar

StartChar: acircumflex
Encoding: 226 226 166
Width: 1126
GlyphClass: 2
Flags: W
LayerCount: 2
Fore
SplineSet
468 1066 m 1,0,-1
 368 1153 l 1,1,-1
 642 1457 l 1,2,-1
 716 1457 l 1,3,-1
 934 1138 l 1,4,-1
 804 1052 l 1,5,-1
 706 1188 l 1,6,-1
 661 1275 l 1,7,-1
 581 1181 l 1,8,-1
 468 1066 l 1,0,-1
404 -21 m 0,9,10
 245 -21 245 -21 156.5 88 c 128,-1,11
 68 197 68 197 68 376 c 0,12,13
 68 501 68 501 99.5 603.5 c 128,-1,14
 131 706 131 706 183 774 c 128,-1,15
 235 842 235 842 305 889 c 0,16,17
 436 977 436 977 603 977 c 0,18,19
 721 977 721 977 824 939 c 1,20,-1
 1054 962 l 1,21,22
 1051 941 1051 941 1041 915 c 128,-1,23
 1031 889 1031 889 1029 869 c 2,24,-1
 946 175 l 2,25,26
 941 130 941 130 941 85.5 c 128,-1,27
 941 41 941 41 949 0 c 1,28,-1
 726 0 l 1,29,30
 715 40 715 40 715 76 c 128,-1,31
 715 112 715 112 718 137 c 1,32,33
 692 92 692 92 652 59 c 128,-1,34
 612 26 612 26 568 10 c 0,35,36
 485 -21 485 -21 404 -21 c 0,9,10
348.5 225.5 m 128,-1,38
 395 163 395 163 491.5 163 c 128,-1,39
 588 163 588 163 658 242 c 128,-1,40
 728 321 728 321 748 453 c 1,41,-1
 789 788 l 1,42,43
 723 807 723 807 666 807 c 128,-1,44
 609 807 609 807 559.5 793.5 c 128,-1,45
 510 780 510 780 463 748 c 128,-1,46
 416 716 416 716 380.5 669.5 c 128,-1,47
 345 623 345 623 323.5 551.5 c 128,-1,48
 302 480 302 480 302 384 c 128,-1,37
 302 288 302 288 348.5 225.5 c 128,-1,38
EndSplineSet
EndChar

StartChar: atilde
Encoding: 227 227 167
Width: 1126
GlyphClass: 2
Flags: W
LayerCount: 2
Fore
SplineSet
544 1420 m 0,0,1
 589 1420 589 1420 631.5 1402 c 128,-1,2
 674 1384 674 1384 700 1363 c 0,3,4
 772 1306 772 1306 824 1306 c 0,5,6
 855 1306 855 1306 881.5 1327 c 128,-1,7
 908 1348 908 1348 945 1402 c 1,8,-1
 1044 1297 l 1,9,10
 984 1204 984 1204 936 1171 c 128,-1,11
 888 1138 888 1138 841 1138 c 128,-1,12
 794 1138 794 1138 751.5 1156 c 128,-1,13
 709 1174 709 1174 680 1196 c 0,14,15
 605 1254 605 1254 549 1254 c 0,16,17
 512 1254 512 1254 472.5 1225.5 c 128,-1,18
 433 1197 433 1197 381 1132 c 1,19,-1
 280 1217 l 1,20,21
 363 1330 363 1330 418.5 1375 c 128,-1,22
 474 1420 474 1420 544 1420 c 0,0,1
404 -21 m 0,23,24
 245 -21 245 -21 156.5 88 c 128,-1,25
 68 197 68 197 68 376 c 0,26,27
 68 501 68 501 99.5 603.5 c 128,-1,28
 131 706 131 706 183 774 c 128,-1,29
 235 842 235 842 305 889 c 0,30,31
 436 977 436 977 603 977 c 0,32,33
 721 977 721 977 824 939 c 1,34,-1
 1054 962 l 1,35,36
 1051 941 1051 941 1041 915 c 128,-1,37
 1031 889 1031 889 1029 869 c 2,38,-1
 946 175 l 2,39,40
 941 130 941 130 941 85.5 c 128,-1,41
 941 41 941 41 949 0 c 1,42,-1
 726 0 l 1,43,44
 715 40 715 40 715 76 c 128,-1,45
 715 112 715 112 718 137 c 1,46,47
 692 92 692 92 652 59 c 128,-1,48
 612 26 612 26 568 10 c 0,49,50
 485 -21 485 -21 404 -21 c 0,23,24
348.5 225.5 m 128,-1,52
 395 163 395 163 491.5 163 c 128,-1,53
 588 163 588 163 658 242 c 128,-1,54
 728 321 728 321 748 453 c 1,55,-1
 789 788 l 1,56,57
 723 807 723 807 666 807 c 128,-1,58
 609 807 609 807 559.5 793.5 c 128,-1,59
 510 780 510 780 463 748 c 128,-1,60
 416 716 416 716 380.5 669.5 c 128,-1,61
 345 623 345 623 323.5 551.5 c 128,-1,62
 302 480 302 480 302 384 c 128,-1,51
 302 288 302 288 348.5 225.5 c 128,-1,52
EndSplineSet
EndChar

StartChar: adieresis
Encoding: 228 228 168
Width: 1126
GlyphClass: 2
Flags: W
LayerCount: 2
Fore
SplineSet
974.5 1161.5 m 128,-1,1
 933 1122 933 1122 874.5 1122 c 128,-1,2
 816 1122 816 1122 774.5 1159.5 c 128,-1,3
 733 1197 733 1197 733 1252 c 128,-1,4
 733 1307 733 1307 774 1346.5 c 128,-1,5
 815 1386 815 1386 872 1386 c 128,-1,6
 929 1386 929 1386 972.5 1349 c 128,-1,7
 1016 1312 1016 1312 1016 1256.5 c 128,-1,0
 1016 1201 1016 1201 974.5 1161.5 c 128,-1,1
599 1162 m 128,-1,9
 557 1122 557 1122 498.5 1122 c 128,-1,10
 440 1122 440 1122 398 1160 c 128,-1,11
 356 1198 356 1198 356 1252 c 128,-1,12
 356 1306 356 1306 397.5 1346 c 128,-1,13
 439 1386 439 1386 496 1386 c 128,-1,14
 553 1386 553 1386 597 1349 c 128,-1,15
 641 1312 641 1312 641 1257 c 128,-1,8
 641 1202 641 1202 599 1162 c 128,-1,9
404 -21 m 0,16,17
 245 -21 245 -21 156.5 88 c 128,-1,18
 68 197 68 197 68 376 c 0,19,20
 68 501 68 501 99.5 603.5 c 128,-1,21
 131 706 131 706 183 774 c 128,-1,22
 235 842 235 842 305 889 c 0,23,24
 436 977 436 977 603 977 c 0,25,26
 721 977 721 977 824 939 c 1,27,-1
 1054 962 l 1,28,29
 1051 941 1051 941 1041 915 c 128,-1,30
 1031 889 1031 889 1029 869 c 2,31,-1
 946 175 l 2,32,33
 941 130 941 130 941 85.5 c 128,-1,34
 941 41 941 41 949 0 c 1,35,-1
 726 0 l 1,36,37
 715 40 715 40 715 76 c 128,-1,38
 715 112 715 112 718 137 c 1,39,40
 692 92 692 92 652 59 c 128,-1,41
 612 26 612 26 568 10 c 0,42,43
 485 -21 485 -21 404 -21 c 0,16,17
348.5 225.5 m 128,-1,45
 395 163 395 163 491.5 163 c 128,-1,46
 588 163 588 163 658 242 c 128,-1,47
 728 321 728 321 748 453 c 1,48,-1
 789 788 l 1,49,50
 723 807 723 807 666 807 c 128,-1,51
 609 807 609 807 559.5 793.5 c 128,-1,52
 510 780 510 780 463 748 c 128,-1,53
 416 716 416 716 380.5 669.5 c 128,-1,54
 345 623 345 623 323.5 551.5 c 128,-1,55
 302 480 302 480 302 384 c 128,-1,44
 302 288 302 288 348.5 225.5 c 128,-1,45
EndSplineSet
EndChar

StartChar: aring
Encoding: 229 229 169
Width: 1126
GlyphClass: 2
Flags: W
LayerCount: 2
Fore
SplineSet
820.5 1132 m 128,-1,1
 757 1069 757 1069 664 1069 c 128,-1,2
 571 1069 571 1069 514.5 1124.5 c 128,-1,3
 458 1180 458 1180 458 1265.5 c 128,-1,4
 458 1351 458 1351 520.5 1413.5 c 128,-1,5
 583 1476 583 1476 676 1476 c 128,-1,6
 769 1476 769 1476 826.5 1420.5 c 128,-1,7
 884 1365 884 1365 884 1280 c 128,-1,0
 884 1195 884 1195 820.5 1132 c 128,-1,1
608.5 1213.5 m 128,-1,9
 627 1190 627 1190 664.5 1190 c 128,-1,10
 702 1190 702 1190 727 1214.5 c 128,-1,11
 752 1239 752 1239 752 1276 c 128,-1,12
 752 1313 752 1313 732 1338 c 128,-1,13
 712 1363 712 1363 674.5 1363 c 128,-1,14
 637 1363 637 1363 613.5 1337.5 c 128,-1,15
 590 1312 590 1312 590 1274.5 c 128,-1,8
 590 1237 590 1237 608.5 1213.5 c 128,-1,9
404 -21 m 0,16,17
 245 -21 245 -21 156.5 88 c 128,-1,18
 68 197 68 197 68 376 c 0,19,20
 68 501 68 501 99.5 603.5 c 128,-1,21
 131 706 131 706 183 774 c 128,-1,22
 235 842 235 842 305 889 c 0,23,24
 436 977 436 977 603 977 c 0,25,26
 721 977 721 977 824 939 c 1,27,-1
 1054 962 l 1,28,29
 1051 941 1051 941 1041 915 c 128,-1,30
 1031 889 1031 889 1029 869 c 2,31,-1
 946 175 l 2,32,33
 941 130 941 130 941 85.5 c 128,-1,34
 941 41 941 41 949 0 c 1,35,-1
 726 0 l 1,36,37
 715 40 715 40 715 76 c 128,-1,38
 715 112 715 112 718 137 c 1,39,40
 692 92 692 92 652 59 c 128,-1,41
 612 26 612 26 568 10 c 0,42,43
 485 -21 485 -21 404 -21 c 0,16,17
348.5 225.5 m 128,-1,45
 395 163 395 163 491.5 163 c 128,-1,46
 588 163 588 163 658 242 c 128,-1,47
 728 321 728 321 748 453 c 1,48,-1
 789 788 l 1,49,50
 723 807 723 807 666 807 c 128,-1,51
 609 807 609 807 559.5 793.5 c 128,-1,52
 510 780 510 780 463 748 c 128,-1,53
 416 716 416 716 380.5 669.5 c 128,-1,54
 345 623 345 623 323.5 551.5 c 128,-1,55
 302 480 302 480 302 384 c 128,-1,44
 302 288 302 288 348.5 225.5 c 128,-1,45
EndSplineSet
EndChar

StartChar: ae
Encoding: 230 230 170
Width: 1126
GlyphClass: 2
Flags: W
LayerCount: 2
Fore
SplineSet
491 649 m 0,0,1
 491 725 491 725 460 768 c 128,-1,2
 429 811 429 811 372 811 c 0,3,4
 272 811 272 811 194 708 c 1,5,-1
 100 842 l 1,6,7
 161 908 161 908 242 941.5 c 128,-1,8
 323 975 323 975 400 975 c 0,9,10
 558 975 558 975 622 834 c 1,11,12
 670 907 670 907 736.5 941 c 128,-1,13
 803 975 803 975 866.5 975 c 128,-1,14
 930 975 930 975 974 950.5 c 128,-1,15
 1018 926 1018 926 1042 884 c 0,16,17
 1088 802 1088 802 1088 698 c 0,18,19
 1088 558 1088 558 1036 512 c 0,20,21
 1009 489 1009 489 979 480.5 c 128,-1,22
 949 472 949 472 901 469 c 1,23,-1
 656 460 l 1,24,25
 649 397 649 397 649 342 c 0,26,27
 649 230 649 230 681 186.5 c 128,-1,28
 713 143 713 143 773.5 143 c 128,-1,29
 834 143 834 143 872.5 168 c 128,-1,30
 911 193 911 193 957 252 c 1,31,-1
 1060 109 l 1,32,33
 928 -25 928 -25 767 -25 c 128,-1,34
 606 -25 606 -25 532 110 c 1,35,36
 493 42 493 42 422.5 8.5 c 128,-1,37
 352 -25 352 -25 265 -25 c 0,38,39
 144 -25 144 -25 79 37.5 c 128,-1,40
 14 100 14 100 14 215 c 0,41,42
 14 244 14 244 16 259 c 0,43,44
 46 567 46 567 488 601 c 1,45,46
 491 626 491 626 491 649 c 0,0,1
914.5 639.5 m 128,-1,48
 930 658 930 658 930 703.5 c 128,-1,49
 930 749 930 749 904.5 780 c 128,-1,50
 879 811 879 811 833 811 c 0,51,52
 771 811 771 811 731 755 c 128,-1,53
 691 699 691 699 679 611 c 1,54,-1
 855 619 l 2,55,47
 899 621 899 621 914.5 639.5 c 128,-1,48
201 228 m 0,56,57
 201 150 201 150 291 150 c 0,58,59
 347 150 347 150 381 174 c 0,60,61
 452 225 452 225 478 451 c 1,62,63
 340 438 340 438 275.5 391 c 128,-1,64
 211 344 211 344 202 244 c 0,65,66
 201 238 201 238 201 228 c 0,56,57
EndSplineSet
EndChar

StartChar: ccedilla
Encoding: 231 231 171
Width: 1126
GlyphClass: 2
Flags: W
LayerCount: 2
Fore
SplineSet
525 -263 m 0,0,1
 580 -263 580 -263 602.5 -251.5 c 128,-1,2
 625 -240 625 -240 625 -216.5 c 128,-1,3
 625 -193 625 -193 614 -181 c 0,4,5
 589 -152 589 -152 456 -152 c 1,6,-1
 493 -31 l 1,7,8
 308 -18 308 -18 208.5 97.5 c 128,-1,9
 109 213 109 213 109 386.5 c 128,-1,10
 109 560 109 560 175 692 c 128,-1,11
 241 824 241 824 365 900.5 c 128,-1,12
 489 977 489 977 648 977 c 0,13,14
 777 977 777 977 872 927.5 c 128,-1,15
 967 878 967 878 1014 790 c 1,16,-1
 842 616 l 1,17,18
 830 632 830 632 830 648 c 2,19,-1
 830 665 l 2,20,21
 830 716 830 716 774 752 c 128,-1,22
 718 788 718 788 636 788 c 0,23,24
 499 788 499 788 417.5 686 c 128,-1,25
 336 584 336 584 336 407 c 0,26,27
 336 291 336 291 391 224 c 128,-1,28
 446 157 446 157 555 157 c 0,29,30
 693 157 693 157 820 280 c 1,31,-1
 926 119 l 1,32,33
 802 5 802 5 650 -23 c 1,34,-1
 640 -59 l 1,35,36
 723 -68 723 -68 759 -101 c 128,-1,37
 795 -134 795 -134 795 -195 c 0,38,39
 795 -284 795 -284 724.5 -344 c 128,-1,40
 654 -404 654 -404 514 -404 c 128,-1,41
 374 -404 374 -404 259 -309 c 1,42,-1
 329 -194 l 1,43,44
 405 -263 405 -263 525 -263 c 0,0,1
EndSplineSet
EndChar

StartChar: egrave
Encoding: 232 232 172
Width: 1126
GlyphClass: 2
Flags: W
LayerCount: 2
Fore
SplineSet
661 1029 m 1,0,-1
 465 1340 l 1,1,-1
 644 1452 l 1,2,-1
 783 1096 l 1,3,-1
 661 1029 l 1,0,-1
625 977 m 0,4,5
 788 977 788 977 875 896 c 128,-1,6
 962 815 962 815 962 677 c 0,7,8
 962 581 962 581 914 534.5 c 128,-1,9
 866 488 866 488 751 469 c 1,10,-1
 322 408 l 1,11,12
 322 277 322 277 382.5 213.5 c 128,-1,13
 443 150 443 150 553 150 c 0,14,15
 714 150 714 150 830 266 c 1,16,-1
 953 139 l 1,17,18
 771 -33 771 -33 523 -33 c 0,19,20
 320 -33 320 -33 214.5 73 c 128,-1,21
 109 179 109 179 109 372 c 0,22,23
 109 418 109 418 115 467 c 0,24,25
 143 703 143 703 278 840 c 128,-1,26
 413 977 413 977 625 977 c 0,4,5
751 703 m 0,27,28
 751 800 751 800 619 800 c 0,29,30
 516 800 516 800 441.5 742 c 128,-1,31
 367 684 367 684 343 581 c 1,32,-1
 671 628 l 2,33,34
 711 633 711 633 731 653.5 c 128,-1,35
 751 674 751 674 751 703 c 0,27,28
EndSplineSet
EndChar

StartChar: eacute
Encoding: 233 233 173
Width: 1126
GlyphClass: 2
Flags: W
LayerCount: 2
Fore
SplineSet
598 1019 m 1,0,-1
 489 1076 l 1,1,-1
 692 1446 l 1,2,-1
 850 1350 l 1,3,-1
 598 1019 l 1,0,-1
625 977 m 0,4,5
 788 977 788 977 875 896 c 128,-1,6
 962 815 962 815 962 677 c 0,7,8
 962 581 962 581 914 534.5 c 128,-1,9
 866 488 866 488 751 469 c 1,10,-1
 322 408 l 1,11,12
 322 277 322 277 382.5 213.5 c 128,-1,13
 443 150 443 150 553 150 c 0,14,15
 714 150 714 150 830 266 c 1,16,-1
 953 139 l 1,17,18
 771 -33 771 -33 523 -33 c 0,19,20
 320 -33 320 -33 214.5 73 c 128,-1,21
 109 179 109 179 109 372 c 0,22,23
 109 418 109 418 115 467 c 0,24,25
 143 703 143 703 278 840 c 128,-1,26
 413 977 413 977 625 977 c 0,4,5
751 703 m 0,27,28
 751 800 751 800 619 800 c 0,29,30
 516 800 516 800 441.5 742 c 128,-1,31
 367 684 367 684 343 581 c 1,32,-1
 671 628 l 2,33,34
 711 633 711 633 731 653.5 c 128,-1,35
 751 674 751 674 751 703 c 0,27,28
EndSplineSet
EndChar

StartChar: ecircumflex
Encoding: 234 234 174
Width: 1126
GlyphClass: 2
Flags: W
LayerCount: 2
Fore
SplineSet
441 1066 m 1,0,-1
 341 1153 l 1,1,-1
 615 1457 l 1,2,-1
 689 1457 l 1,3,-1
 907 1138 l 1,4,-1
 777 1052 l 1,5,-1
 679 1188 l 1,6,-1
 634 1275 l 1,7,-1
 554 1181 l 1,8,-1
 441 1066 l 1,0,-1
625 977 m 0,9,10
 788 977 788 977 875 896 c 128,-1,11
 962 815 962 815 962 677 c 0,12,13
 962 581 962 581 914 534.5 c 128,-1,14
 866 488 866 488 751 469 c 1,15,-1
 322 408 l 1,16,17
 322 277 322 277 382.5 213.5 c 128,-1,18
 443 150 443 150 553 150 c 0,19,20
 714 150 714 150 830 266 c 1,21,-1
 953 139 l 1,22,23
 771 -33 771 -33 523 -33 c 0,24,25
 320 -33 320 -33 214.5 73 c 128,-1,26
 109 179 109 179 109 372 c 0,27,28
 109 418 109 418 115 467 c 0,29,30
 143 703 143 703 278 840 c 128,-1,31
 413 977 413 977 625 977 c 0,9,10
751 703 m 0,32,33
 751 800 751 800 619 800 c 0,34,35
 516 800 516 800 441.5 742 c 128,-1,36
 367 684 367 684 343 581 c 1,37,-1
 671 628 l 2,38,39
 711 633 711 633 731 653.5 c 128,-1,40
 751 674 751 674 751 703 c 0,32,33
EndSplineSet
EndChar

StartChar: edieresis
Encoding: 235 235 175
Width: 1126
GlyphClass: 2
Flags: W
LayerCount: 2
Fore
SplineSet
947.5 1161.5 m 128,-1,1
 906 1122 906 1122 847.5 1122 c 128,-1,2
 789 1122 789 1122 747.5 1159.5 c 128,-1,3
 706 1197 706 1197 706 1252 c 128,-1,4
 706 1307 706 1307 747 1346.5 c 128,-1,5
 788 1386 788 1386 845 1386 c 128,-1,6
 902 1386 902 1386 945.5 1349 c 128,-1,7
 989 1312 989 1312 989 1256.5 c 128,-1,0
 989 1201 989 1201 947.5 1161.5 c 128,-1,1
572 1162 m 128,-1,9
 530 1122 530 1122 471.5 1122 c 128,-1,10
 413 1122 413 1122 371 1160 c 128,-1,11
 329 1198 329 1198 329 1252 c 128,-1,12
 329 1306 329 1306 370.5 1346 c 128,-1,13
 412 1386 412 1386 469 1386 c 128,-1,14
 526 1386 526 1386 570 1349 c 128,-1,15
 614 1312 614 1312 614 1257 c 128,-1,8
 614 1202 614 1202 572 1162 c 128,-1,9
625 977 m 0,16,17
 788 977 788 977 875 896 c 128,-1,18
 962 815 962 815 962 677 c 0,19,20
 962 581 962 581 914 534.5 c 128,-1,21
 866 488 866 488 751 469 c 1,22,-1
 322 408 l 1,23,24
 322 277 322 277 382.5 213.5 c 128,-1,25
 443 150 443 150 553 150 c 0,26,27
 714 150 714 150 830 266 c 1,28,-1
 953 139 l 1,29,30
 771 -33 771 -33 523 -33 c 0,31,32
 320 -33 320 -33 214.5 73 c 128,-1,33
 109 179 109 179 109 372 c 0,34,35
 109 418 109 418 115 467 c 0,36,37
 143 703 143 703 278 840 c 128,-1,38
 413 977 413 977 625 977 c 0,16,17
751 703 m 0,39,40
 751 800 751 800 619 800 c 0,41,42
 516 800 516 800 441.5 742 c 128,-1,43
 367 684 367 684 343 581 c 1,44,-1
 671 628 l 2,45,46
 711 633 711 633 731 653.5 c 128,-1,47
 751 674 751 674 751 703 c 0,39,40
EndSplineSet
EndChar

StartChar: igrave
Encoding: 236 236 176
Width: 1126
GlyphClass: 2
Flags: W
LayerCount: 2
Fore
SplineSet
638 1029 m 1,0,-1
 442 1340 l 1,1,-1
 621 1452 l 1,2,-1
 760 1096 l 1,3,-1
 638 1029 l 1,0,-1
114 0 m 1,4,-1
 137 186 l 1,5,-1
 412 186 l 1,6,-1
 484 770 l 1,7,-1
 214 770 l 1,8,-1
 237 956 l 1,9,-1
 738 956 l 1,10,-1
 643 186 l 1,11,-1
 918 186 l 1,12,-1
 895 0 l 1,13,-1
 114 0 l 1,4,-1
EndSplineSet
EndChar

StartChar: iacute
Encoding: 237 237 177
Width: 1126
GlyphClass: 2
Flags: W
LayerCount: 2
Fore
SplineSet
589 1019 m 1,0,-1
 480 1076 l 1,1,-1
 683 1446 l 1,2,-1
 841 1350 l 1,3,-1
 589 1019 l 1,0,-1
114 0 m 1,4,-1
 137 186 l 1,5,-1
 412 186 l 1,6,-1
 484 770 l 1,7,-1
 214 770 l 1,8,-1
 237 956 l 1,9,-1
 738 956 l 1,10,-1
 643 186 l 1,11,-1
 918 186 l 1,12,-1
 895 0 l 1,13,-1
 114 0 l 1,4,-1
EndSplineSet
EndChar

StartChar: icircumflex
Encoding: 238 238 178
Width: 1126
GlyphClass: 2
Flags: W
LayerCount: 2
Fore
SplineSet
432 1066 m 1,0,-1
 332 1153 l 1,1,-1
 606 1457 l 1,2,-1
 680 1457 l 1,3,-1
 898 1138 l 1,4,-1
 768 1052 l 1,5,-1
 670 1188 l 1,6,-1
 625 1275 l 1,7,-1
 545 1181 l 1,8,-1
 432 1066 l 1,0,-1
114 0 m 1,9,-1
 137 186 l 1,10,-1
 412 186 l 1,11,-1
 484 770 l 1,12,-1
 214 770 l 1,13,-1
 237 956 l 1,14,-1
 738 956 l 1,15,-1
 643 186 l 1,16,-1
 918 186 l 1,17,-1
 895 0 l 1,18,-1
 114 0 l 1,9,-1
EndSplineSet
EndChar

StartChar: idieresis
Encoding: 239 239 179
Width: 1126
GlyphClass: 2
Flags: W
LayerCount: 2
Fore
SplineSet
938.5 1161.5 m 128,-1,1
 897 1122 897 1122 838.5 1122 c 128,-1,2
 780 1122 780 1122 738.5 1159.5 c 128,-1,3
 697 1197 697 1197 697 1252 c 128,-1,4
 697 1307 697 1307 738 1346.5 c 128,-1,5
 779 1386 779 1386 836 1386 c 128,-1,6
 893 1386 893 1386 936.5 1349 c 128,-1,7
 980 1312 980 1312 980 1256.5 c 128,-1,0
 980 1201 980 1201 938.5 1161.5 c 128,-1,1
563 1162 m 128,-1,9
 521 1122 521 1122 462.5 1122 c 128,-1,10
 404 1122 404 1122 362 1160 c 128,-1,11
 320 1198 320 1198 320 1252 c 128,-1,12
 320 1306 320 1306 361.5 1346 c 128,-1,13
 403 1386 403 1386 460 1386 c 128,-1,14
 517 1386 517 1386 561 1349 c 128,-1,15
 605 1312 605 1312 605 1257 c 128,-1,8
 605 1202 605 1202 563 1162 c 128,-1,9
114 0 m 1,16,-1
 137 186 l 1,17,-1
 412 186 l 1,18,-1
 484 770 l 1,19,-1
 214 770 l 1,20,-1
 237 956 l 1,21,-1
 738 956 l 1,22,-1
 643 186 l 1,23,-1
 918 186 l 1,24,-1
 895 0 l 1,25,-1
 114 0 l 1,16,-1
EndSplineSet
EndChar

StartChar: eth
Encoding: 240 240 180
Width: 1126
GlyphClass: 2
Flags: W
LayerCount: 2
Fore
SplineSet
443 -33 m 0,0,1
 254 -33 254 -33 148 84.5 c 128,-1,2
 42 202 42 202 42 387 c 0,3,4
 42 537 42 537 103 669.5 c 128,-1,5
 164 802 164 802 274 883.5 c 128,-1,6
 384 965 384 965 517 965 c 0,7,8
 669 965 669 965 757 859 c 1,9,10
 708 1020 708 1020 643 1122 c 1,11,-1
 406 1053 l 1,12,-1
 358 1187 l 1,13,-1
 551 1240 l 1,14,15
 498 1297 498 1297 406 1376 c 1,16,-1
 621 1410 l 1,17,18
 689 1349 689 1349 738 1291 c 1,19,-1
 905 1337 l 1,20,-1
 950 1212 l 1,21,-1
 822 1175 l 1,22,23
 954 959 954 959 954 693 c 0,24,25
 954 362 954 362 816 164.5 c 128,-1,26
 678 -33 678 -33 443 -33 c 0,0,1
460 154 m 0,27,28
 564 154 564 154 637.5 260.5 c 128,-1,29
 711 367 711 367 711 552 c 0,30,31
 711 669 711 669 664 724.5 c 128,-1,32
 617 780 617 780 535 780 c 0,33,34
 429 780 429 780 354.5 678 c 128,-1,35
 280 576 280 576 280 407 c 0,36,37
 280 294 280 294 327.5 224 c 128,-1,38
 375 154 375 154 460 154 c 0,27,28
EndSplineSet
EndChar

StartChar: ntilde
Encoding: 241 241 181
Width: 1126
GlyphClass: 2
Flags: W
LayerCount: 2
Fore
SplineSet
587 1420 m 0,0,1
 632 1420 632 1420 674.5 1402 c 128,-1,2
 717 1384 717 1384 744 1363 c 0,3,4
 815 1306 815 1306 867 1306 c 0,5,6
 898 1306 898 1306 924.5 1327 c 128,-1,7
 951 1348 951 1348 988 1402 c 1,8,-1
 1087 1297 l 1,9,10
 1027 1204 1027 1204 979 1171 c 128,-1,11
 931 1138 931 1138 884 1138 c 128,-1,12
 837 1138 837 1138 794.5 1156 c 128,-1,13
 752 1174 752 1174 724 1196 c 0,14,15
 648 1254 648 1254 592 1254 c 0,16,17
 555 1254 555 1254 515.5 1225.5 c 128,-1,18
 476 1197 476 1197 424 1132 c 1,19,-1
 323 1217 l 1,20,21
 406 1330 406 1330 461.5 1375 c 128,-1,22
 517 1420 517 1420 587 1420 c 0,0,1
762 977 m 0,23,24
 887 977 887 977 953.5 919.5 c 128,-1,25
 1020 862 1020 862 1020 720 c 0,26,27
 1020 680 1020 680 1014 630 c 2,28,-1
 958 175 l 2,29,30
 953 130 953 130 953 85.5 c 128,-1,31
 953 41 953 41 961 0 c 1,32,-1
 731 0 l 1,33,34
 720 41 720 41 720 81.5 c 128,-1,35
 720 122 720 122 724 149 c 2,36,-1
 783 628 l 2,37,38
 786 649 786 649 786 668 c 0,39,40
 786 788 786 788 666 788 c 0,41,42
 562 788 562 788 468 724 c 128,-1,43
 374 660 374 660 364 573 c 2,44,-1
 294 0 l 1,45,-1
 63 0 l 1,46,-1
 178 956 l 1,47,-1
 424 956 l 1,48,49
 423 932 423 932 411.5 911.5 c 128,-1,50
 400 891 400 891 398 869 c 2,51,-1
 395 838 l 1,52,-1
 398 838 l 1,53,54
 554 977 554 977 762 977 c 0,23,24
EndSplineSet
EndChar

StartChar: ograve
Encoding: 242 242 182
Width: 1126
GlyphClass: 2
Flags: W
LayerCount: 2
Fore
SplineSet
574 1039 m 1,0,-1
 383 1358 l 1,1,-1
 563 1472 l 1,2,-1
 697 1106 l 1,3,-1
 574 1039 l 1,0,-1
629 977 m 0,4,5
 826 977 826 977 932.5 870.5 c 128,-1,6
 1039 764 1039 764 1039 569 c 0,7,8
 1039 288 1039 288 895 127.5 c 128,-1,9
 751 -33 751 -33 503 -33 c 0,10,11
 308 -33 308 -33 196.5 72 c 128,-1,12
 85 177 85 177 85 375 c 0,13,14
 85 420 85 420 91 469 c 0,15,16
 121 709 121 709 260 843 c 128,-1,17
 399 977 399 977 629 977 c 0,4,5
522 154 m 0,18,19
 642 154 642 154 722 259.5 c 128,-1,20
 802 365 802 365 802 550 c 0,21,22
 802 666 802 666 750 728 c 128,-1,23
 698 790 698 790 603 790 c 0,24,25
 484 790 484 790 403.5 687.5 c 128,-1,26
 323 585 323 585 323 395 c 0,27,28
 323 279 323 279 375 216.5 c 128,-1,29
 427 154 427 154 522 154 c 0,18,19
EndSplineSet
EndChar

StartChar: oacute
Encoding: 243 243 183
Width: 1126
GlyphClass: 2
Flags: W
LayerCount: 2
Fore
SplineSet
599 1019 m 1,0,-1
 490 1076 l 1,1,-1
 693 1446 l 1,2,-1
 851 1350 l 1,3,-1
 599 1019 l 1,0,-1
629 977 m 0,4,5
 826 977 826 977 932.5 870.5 c 128,-1,6
 1039 764 1039 764 1039 569 c 0,7,8
 1039 288 1039 288 895 127.5 c 128,-1,9
 751 -33 751 -33 503 -33 c 0,10,11
 308 -33 308 -33 196.5 72 c 128,-1,12
 85 177 85 177 85 375 c 0,13,14
 85 420 85 420 91 469 c 0,15,16
 121 709 121 709 260 843 c 128,-1,17
 399 977 399 977 629 977 c 0,4,5
522 154 m 0,18,19
 642 154 642 154 722 259.5 c 128,-1,20
 802 365 802 365 802 550 c 0,21,22
 802 666 802 666 750 728 c 128,-1,23
 698 790 698 790 603 790 c 0,24,25
 484 790 484 790 403.5 687.5 c 128,-1,26
 323 585 323 585 323 395 c 0,27,28
 323 279 323 279 375 216.5 c 128,-1,29
 427 154 427 154 522 154 c 0,18,19
EndSplineSet
EndChar

StartChar: ocircumflex
Encoding: 244 244 184
Width: 1126
GlyphClass: 2
Flags: W
LayerCount: 2
Fore
SplineSet
442 1066 m 1,0,-1
 342 1153 l 1,1,-1
 616 1457 l 1,2,-1
 690 1457 l 1,3,-1
 908 1138 l 1,4,-1
 778 1052 l 1,5,-1
 680 1188 l 1,6,-1
 635 1275 l 1,7,-1
 555 1181 l 1,8,-1
 442 1066 l 1,0,-1
629 977 m 0,9,10
 826 977 826 977 932.5 870.5 c 128,-1,11
 1039 764 1039 764 1039 569 c 0,12,13
 1039 288 1039 288 895 127.5 c 128,-1,14
 751 -33 751 -33 503 -33 c 0,15,16
 308 -33 308 -33 196.5 72 c 128,-1,17
 85 177 85 177 85 375 c 0,18,19
 85 420 85 420 91 469 c 0,20,21
 121 709 121 709 260 843 c 128,-1,22
 399 977 399 977 629 977 c 0,9,10
522 154 m 0,23,24
 642 154 642 154 722 259.5 c 128,-1,25
 802 365 802 365 802 550 c 0,26,27
 802 666 802 666 750 728 c 128,-1,28
 698 790 698 790 603 790 c 0,29,30
 484 790 484 790 403.5 687.5 c 128,-1,31
 323 585 323 585 323 395 c 0,32,33
 323 279 323 279 375 216.5 c 128,-1,34
 427 154 427 154 522 154 c 0,23,24
EndSplineSet
EndChar

StartChar: otilde
Encoding: 245 245 185
Width: 1126
GlyphClass: 2
Flags: W
LayerCount: 2
Fore
SplineSet
518 1420 m 0,0,1
 563 1420 563 1420 605.5 1402 c 128,-1,2
 648 1384 648 1384 674 1363 c 0,3,4
 746 1306 746 1306 798 1306 c 0,5,6
 829 1306 829 1306 855.5 1327 c 128,-1,7
 882 1348 882 1348 919 1402 c 1,8,-1
 1018 1297 l 1,9,10
 958 1204 958 1204 910 1171 c 128,-1,11
 862 1138 862 1138 815 1138 c 128,-1,12
 768 1138 768 1138 725.5 1156 c 128,-1,13
 683 1174 683 1174 654 1196 c 0,14,15
 579 1254 579 1254 523 1254 c 0,16,17
 486 1254 486 1254 446.5 1225.5 c 128,-1,18
 407 1197 407 1197 355 1132 c 1,19,-1
 254 1217 l 1,20,21
 337 1330 337 1330 392.5 1375 c 128,-1,22
 448 1420 448 1420 518 1420 c 0,0,1
629 977 m 0,23,24
 826 977 826 977 932.5 870.5 c 128,-1,25
 1039 764 1039 764 1039 569 c 0,26,27
 1039 288 1039 288 895 127.5 c 128,-1,28
 751 -33 751 -33 503 -33 c 0,29,30
 308 -33 308 -33 196.5 72 c 128,-1,31
 85 177 85 177 85 375 c 0,32,33
 85 420 85 420 91 469 c 0,34,35
 121 709 121 709 260 843 c 128,-1,36
 399 977 399 977 629 977 c 0,23,24
522 154 m 0,37,38
 642 154 642 154 722 259.5 c 128,-1,39
 802 365 802 365 802 550 c 0,40,41
 802 666 802 666 750 728 c 128,-1,42
 698 790 698 790 603 790 c 0,43,44
 484 790 484 790 403.5 687.5 c 128,-1,45
 323 585 323 585 323 395 c 0,46,47
 323 279 323 279 375 216.5 c 128,-1,48
 427 154 427 154 522 154 c 0,37,38
EndSplineSet
EndChar

StartChar: odieresis
Encoding: 246 246 186
Width: 1126
GlyphClass: 2
Flags: W
LayerCount: 2
Fore
SplineSet
948.5 1161.5 m 128,-1,1
 907 1122 907 1122 848.5 1122 c 128,-1,2
 790 1122 790 1122 748.5 1159.5 c 128,-1,3
 707 1197 707 1197 707 1252 c 128,-1,4
 707 1307 707 1307 748 1346.5 c 128,-1,5
 789 1386 789 1386 846 1386 c 128,-1,6
 903 1386 903 1386 946.5 1349 c 128,-1,7
 990 1312 990 1312 990 1256.5 c 128,-1,0
 990 1201 990 1201 948.5 1161.5 c 128,-1,1
573 1162 m 128,-1,9
 531 1122 531 1122 472.5 1122 c 128,-1,10
 414 1122 414 1122 372 1160 c 128,-1,11
 330 1198 330 1198 330 1252 c 128,-1,12
 330 1306 330 1306 371.5 1346 c 128,-1,13
 413 1386 413 1386 470 1386 c 128,-1,14
 527 1386 527 1386 571 1349 c 128,-1,15
 615 1312 615 1312 615 1257 c 128,-1,8
 615 1202 615 1202 573 1162 c 128,-1,9
629 977 m 0,16,17
 826 977 826 977 932.5 870.5 c 128,-1,18
 1039 764 1039 764 1039 569 c 0,19,20
 1039 288 1039 288 895 127.5 c 128,-1,21
 751 -33 751 -33 503 -33 c 0,22,23
 308 -33 308 -33 196.5 72 c 128,-1,24
 85 177 85 177 85 375 c 0,25,26
 85 420 85 420 91 469 c 0,27,28
 121 709 121 709 260 843 c 128,-1,29
 399 977 399 977 629 977 c 0,16,17
522 154 m 0,30,31
 642 154 642 154 722 259.5 c 128,-1,32
 802 365 802 365 802 550 c 0,33,34
 802 666 802 666 750 728 c 128,-1,35
 698 790 698 790 603 790 c 0,36,37
 484 790 484 790 403.5 687.5 c 128,-1,38
 323 585 323 585 323 395 c 0,39,40
 323 279 323 279 375 216.5 c 128,-1,41
 427 154 427 154 522 154 c 0,30,31
EndSplineSet
EndChar

StartChar: divide
Encoding: 247 247 187
Width: 1126
GlyphClass: 2
Flags: W
LayerCount: 2
Fore
SplineSet
746 863 m 128,-1,1
 699 819 699 819 630.5 819 c 128,-1,2
 562 819 562 819 519 857 c 128,-1,3
 476 895 476 895 476 957.5 c 128,-1,4
 476 1020 476 1020 522.5 1065 c 128,-1,5
 569 1110 569 1110 637.5 1110 c 128,-1,6
 706 1110 706 1110 749.5 1071.5 c 128,-1,7
 793 1033 793 1033 793 970 c 128,-1,0
 793 907 793 907 746 863 c 128,-1,1
137 563 m 1,8,-1
 160 750 l 1,9,-1
 988 750 l 1,10,-1
 965 563 l 1,11,-1
 137 563 l 1,8,-1
440.5 438.5 m 128,-1,13
 486 480 486 480 553 480 c 128,-1,14
 620 480 620 480 663.5 441.5 c 128,-1,15
 707 403 707 403 707 340 c 128,-1,16
 707 277 707 277 660 233 c 128,-1,17
 613 189 613 189 544.5 189 c 128,-1,18
 476 189 476 189 433 227 c 128,-1,19
 390 265 390 265 390 323 c 2,20,-1
 390 333 l 1,21,12
 395 397 395 397 440.5 438.5 c 128,-1,13
EndSplineSet
EndChar

StartChar: oslash
Encoding: 248 248 188
Width: 1126
GlyphClass: 2
Flags: W
LayerCount: 2
Fore
SplineSet
85 374 m 0,0,1
 85 653 85 653 232 815 c 128,-1,2
 379 977 379 977 629 977 c 0,3,4
 722 977 722 977 796 953 c 1,5,-1
 885 1076 l 1,6,-1
 1015 1004 l 1,7,-1
 925 878 l 1,8,9
 1039 770 1039 770 1039 568 c 0,10,11
 1039 288 1039 288 894.5 127.5 c 128,-1,12
 750 -33 750 -33 503 -33 c 0,13,14
 385 -33 385 -33 298 6 c 1,15,-1
 203 -126 l 1,16,-1
 73 -53 l 1,17,-1
 177 92 l 1,18,19
 85 196 85 196 85 374 c 0,0,1
603 790 m 0,20,21
 484 790 484 790 403.5 687 c 128,-1,22
 323 584 323 584 323 393 c 0,23,24
 323 346 323 346 332 308 c 1,25,-1
 672 780 l 1,26,27
 642 790 642 790 603 790 c 0,20,21
522 154 m 0,28,29
 643 154 643 154 722.5 259.5 c 128,-1,30
 802 365 802 365 802 551 c 0,31,32
 802 624 802 624 780 677 c 1,33,-1
 421 178 l 1,34,35
 463 154 463 154 522 154 c 0,28,29
EndSplineSet
EndChar

StartChar: ugrave
Encoding: 249 249 189
Width: 1126
GlyphClass: 2
Flags: W
LayerCount: 2
Fore
SplineSet
587 1039 m 1,0,-1
 396 1358 l 1,1,-1
 576 1472 l 1,2,-1
 710 1106 l 1,3,-1
 587 1039 l 1,0,-1
329 288 m 0,4,5
 329 168 329 168 452 168 c 0,6,7
 554 168 554 168 647 232 c 128,-1,8
 740 296 740 296 751 383 c 2,9,-1
 821 956 l 1,10,-1
 1051 956 l 1,11,-1
 954 149 l 2,12,13
 952 131 952 131 952 86 c 128,-1,14
 952 41 952 41 960 0 c 1,15,-1
 738 0 l 1,16,17
 727 41 727 41 727 74.5 c 128,-1,18
 727 108 727 108 728 117 c 1,19,-1
 717 118 l 1,20,21
 561 -21 561 -21 353 -21 c 0,22,23
 228 -21 228 -21 161.5 36.5 c 128,-1,24
 95 94 95 94 95 236 c 0,25,26
 95 276 95 276 101 326 c 2,27,-1
 179 956 l 1,28,-1
 410 956 l 1,29,-1
 332 328 l 2,30,31
 329 306 329 306 329 288 c 0,4,5
EndSplineSet
EndChar

StartChar: uacute
Encoding: 250 250 190
Width: 1126
GlyphClass: 2
Flags: W
LayerCount: 2
Fore
SplineSet
503 1076 m 1,0,-1
 706 1446 l 1,1,-1
 864 1350 l 1,2,-1
 612 1019 l 1,3,-1
 503 1076 l 1,0,-1
329 288 m 0,4,5
 329 168 329 168 452 168 c 0,6,7
 554 168 554 168 647 232 c 128,-1,8
 740 296 740 296 751 383 c 2,9,-1
 821 956 l 1,10,-1
 1051 956 l 1,11,-1
 954 149 l 2,12,13
 952 131 952 131 952 86 c 128,-1,14
 952 41 952 41 960 0 c 1,15,-1
 738 0 l 1,16,17
 727 41 727 41 727 74.5 c 128,-1,18
 727 108 727 108 728 117 c 1,19,-1
 717 118 l 1,20,21
 561 -21 561 -21 353 -21 c 0,22,23
 228 -21 228 -21 161.5 36.5 c 128,-1,24
 95 94 95 94 95 236 c 0,25,26
 95 276 95 276 101 326 c 2,27,-1
 179 956 l 1,28,-1
 410 956 l 1,29,-1
 332 328 l 2,30,31
 329 306 329 306 329 288 c 0,4,5
EndSplineSet
EndChar

StartChar: ucircumflex
Encoding: 251 251 191
Width: 1126
GlyphClass: 2
Flags: W
LayerCount: 2
Fore
SplineSet
455 1066 m 1,0,-1
 355 1153 l 1,1,-1
 629 1457 l 1,2,-1
 703 1457 l 1,3,-1
 921 1138 l 1,4,-1
 791 1052 l 1,5,-1
 693 1188 l 1,6,-1
 648 1275 l 1,7,-1
 568 1181 l 1,8,-1
 455 1066 l 1,0,-1
329 288 m 0,9,10
 329 168 329 168 452 168 c 0,11,12
 554 168 554 168 647 232 c 128,-1,13
 740 296 740 296 751 383 c 2,14,-1
 821 956 l 1,15,-1
 1051 956 l 1,16,-1
 954 149 l 2,17,18
 952 131 952 131 952 86 c 128,-1,19
 952 41 952 41 960 0 c 1,20,-1
 738 0 l 1,21,22
 727 41 727 41 727 74.5 c 128,-1,23
 727 108 727 108 728 117 c 1,24,-1
 717 118 l 1,25,26
 561 -21 561 -21 353 -21 c 0,27,28
 228 -21 228 -21 161.5 36.5 c 128,-1,29
 95 94 95 94 95 236 c 0,30,31
 95 276 95 276 101 326 c 2,32,-1
 179 956 l 1,33,-1
 410 956 l 1,34,-1
 332 328 l 2,35,36
 329 306 329 306 329 288 c 0,9,10
EndSplineSet
EndChar

StartChar: udieresis
Encoding: 252 252 192
Width: 1126
GlyphClass: 2
Flags: W
LayerCount: 2
Fore
SplineSet
961.5 1161.5 m 128,-1,1
 920 1122 920 1122 861.5 1122 c 128,-1,2
 803 1122 803 1122 761.5 1159.5 c 128,-1,3
 720 1197 720 1197 720 1252 c 128,-1,4
 720 1307 720 1307 761 1346.5 c 128,-1,5
 802 1386 802 1386 859 1386 c 128,-1,6
 916 1386 916 1386 959.5 1349 c 128,-1,7
 1003 1312 1003 1312 1003 1256.5 c 128,-1,0
 1003 1201 1003 1201 961.5 1161.5 c 128,-1,1
586 1162 m 128,-1,9
 544 1122 544 1122 485.5 1122 c 128,-1,10
 427 1122 427 1122 385 1160 c 128,-1,11
 343 1198 343 1198 343 1252 c 128,-1,12
 343 1306 343 1306 384.5 1346 c 128,-1,13
 426 1386 426 1386 483 1386 c 128,-1,14
 540 1386 540 1386 584 1349 c 128,-1,15
 628 1312 628 1312 628 1257 c 128,-1,8
 628 1202 628 1202 586 1162 c 128,-1,9
329 288 m 0,16,17
 329 168 329 168 452 168 c 0,18,19
 554 168 554 168 647 232 c 128,-1,20
 740 296 740 296 751 383 c 2,21,-1
 821 956 l 1,22,-1
 1051 956 l 1,23,-1
 954 149 l 2,24,25
 952 131 952 131 952 86 c 128,-1,26
 952 41 952 41 960 0 c 1,27,-1
 738 0 l 1,28,29
 727 41 727 41 727 74.5 c 128,-1,30
 727 108 727 108 728 117 c 1,31,-1
 717 118 l 1,32,33
 561 -21 561 -21 353 -21 c 0,34,35
 228 -21 228 -21 161.5 36.5 c 128,-1,36
 95 94 95 94 95 236 c 0,37,38
 95 276 95 276 101 326 c 2,39,-1
 179 956 l 1,40,-1
 410 956 l 1,41,-1
 332 328 l 2,42,43
 329 306 329 306 329 288 c 0,16,17
EndSplineSet
EndChar

StartChar: yacute
Encoding: 253 253 193
Width: 1126
GlyphClass: 2
Flags: W
LayerCount: 2
Fore
SplineSet
548 1076 m 1,0,-1
 751 1446 l 1,1,-1
 909 1350 l 1,2,-1
 657 1019 l 1,3,-1
 548 1076 l 1,0,-1
109 -86 m 2,4,-1
 109 -98 l 2,5,6
 109 -135 109 -135 138.5 -155.5 c 128,-1,7
 168 -176 168 -176 213 -176 c 128,-1,8
 258 -176 258 -176 308 -140 c 0,9,10
 391 -80 391 -80 443 30 c 1,11,12
 189 481 189 481 140 956 c 1,13,-1
 418 956 l 1,14,-1
 418 949 l 2,15,16
 418 933 418 933 408.5 913 c 128,-1,17
 399 893 399 893 399 874 c 0,18,19
 416 539 416 539 585 202 c 1,20,21
 708 395 708 395 761 561 c 128,-1,22
 814 727 814 727 843 956 c 1,23,-1
 1073 956 l 1,24,25
 1043 779 1043 779 1010 671 c 0,26,27
 936 436 936 436 591 -104 c 0,28,29
 426 -362 426 -362 202 -362 c 0,30,31
 119 -362 119 -362 55 -338 c 128,-1,32
 -9 -314 -9 -314 -75 -254 c 1,33,-1
 91 -46 l 1,34,35
 109 -64 109 -64 109 -86 c 2,4,-1
EndSplineSet
EndChar

StartChar: thorn
Encoding: 254 254 194
Width: 1126
GlyphClass: 2
Flags: W
LayerCount: 2
Fore
SplineSet
722 967 m 0,0,1
 879 967 879 967 966.5 862.5 c 128,-1,2
 1054 758 1054 758 1054 576 c 0,3,4
 1054 450 1054 450 1023 347 c 128,-1,5
 992 244 992 244 940.5 175 c 128,-1,6
 889 106 889 106 819 59 c 0,7,8
 686 -30 686 -30 519 -30 c 0,9,10
 413 -30 413 -30 311 3 c 1,11,-1
 270 -330 l 1,12,-1
 39 -330 l 1,13,-1
 247 1362 l 1,14,-1
 497 1362 l 1,15,16
 494 1334 494 1334 481 1311 c 128,-1,17
 468 1288 468 1288 466 1269 c 2,18,-1
 410 815 l 1,19,20
 472 894 472 894 554 930.5 c 128,-1,21
 636 967 636 967 722 967 c 0,0,1
330 159 m 1,22,23
 396 140 396 140 461.5 140 c 128,-1,24
 527 140 527 140 588 163 c 128,-1,25
 649 186 649 186 702 233 c 128,-1,26
 755 280 755 280 787 363.5 c 128,-1,27
 819 447 819 447 819 554.5 c 128,-1,28
 819 662 819 662 773.5 723 c 128,-1,29
 728 784 728 784 633.5 784 c 128,-1,30
 539 784 539 784 465.5 701.5 c 128,-1,31
 392 619 392 619 373 514 c 1,32,-1
 330 159 l 1,22,23
EndSplineSet
EndChar

StartChar: ydieresis
Encoding: 255 255 195
Width: 1126
GlyphClass: 2
Flags: W
LayerCount: 2
Fore
SplineSet
1006.5 1161.5 m 128,-1,1
 965 1122 965 1122 906.5 1122 c 128,-1,2
 848 1122 848 1122 806.5 1159.5 c 128,-1,3
 765 1197 765 1197 765 1252 c 128,-1,4
 765 1307 765 1307 806 1346.5 c 128,-1,5
 847 1386 847 1386 904 1386 c 128,-1,6
 961 1386 961 1386 1004.5 1349 c 128,-1,7
 1048 1312 1048 1312 1048 1256.5 c 128,-1,0
 1048 1201 1048 1201 1006.5 1161.5 c 128,-1,1
631 1162 m 128,-1,9
 589 1122 589 1122 530.5 1122 c 128,-1,10
 472 1122 472 1122 430 1160 c 128,-1,11
 388 1198 388 1198 388 1252 c 128,-1,12
 388 1306 388 1306 429.5 1346 c 128,-1,13
 471 1386 471 1386 528 1386 c 128,-1,14
 585 1386 585 1386 629 1349 c 128,-1,15
 673 1312 673 1312 673 1257 c 128,-1,8
 673 1202 673 1202 631 1162 c 128,-1,9
109 -86 m 2,16,-1
 109 -98 l 2,17,18
 109 -135 109 -135 138.5 -155.5 c 128,-1,19
 168 -176 168 -176 213 -176 c 128,-1,20
 258 -176 258 -176 308 -140 c 0,21,22
 391 -80 391 -80 443 30 c 1,23,24
 189 481 189 481 140 956 c 1,25,-1
 418 956 l 1,26,-1
 418 949 l 2,27,28
 418 933 418 933 408.5 913 c 128,-1,29
 399 893 399 893 399 874 c 0,30,31
 416 539 416 539 585 202 c 1,32,33
 708 395 708 395 761 561 c 128,-1,34
 814 727 814 727 843 956 c 1,35,-1
 1073 956 l 1,36,37
 1043 779 1043 779 1010 671 c 0,38,39
 936 436 936 436 591 -104 c 0,40,41
 426 -362 426 -362 202 -362 c 0,42,43
 119 -362 119 -362 55 -338 c 128,-1,44
 -9 -314 -9 -314 -75 -254 c 1,45,-1
 91 -46 l 1,46,47
 109 -64 109 -64 109 -86 c 2,16,-1
EndSplineSet
EndChar

StartChar: Amacron
Encoding: 256 256 196
Width: 1126
GlyphClass: 2
Flags: W
LayerCount: 2
Fore
SplineSet
384 1434 m 1,0,-1
 404 1594 l 1,1,-1
 958 1594 l 1,2,-1
 938 1434 l 1,3,-1
 384 1434 l 1,0,-1
-30 0 m 1,4,-1
 580 1298 l 1,5,-1
 725 1298 l 1,6,-1
 1026 0 l 1,7,-1
 796 0 l 1,8,-1
 727 319 l 1,9,-1
 336 319 l 1,10,-1
 196 0 l 1,11,-1
 -30 0 l 1,4,-1
420 510 m 1,12,-1
 685 510 l 1,13,-1
 598 915 l 1,14,-1
 420 510 l 1,12,-1
EndSplineSet
EndChar

StartChar: amacron
Encoding: 257 257 197
Width: 1126
GlyphClass: 2
Flags: W
LayerCount: 2
Fore
SplineSet
396 1133 m 1,0,-1
 416 1293 l 1,1,-1
 970 1293 l 1,2,-1
 950 1133 l 1,3,-1
 396 1133 l 1,0,-1
404 -21 m 0,4,5
 245 -21 245 -21 156.5 88 c 128,-1,6
 68 197 68 197 68 376 c 0,7,8
 68 501 68 501 99.5 603.5 c 128,-1,9
 131 706 131 706 183 774 c 128,-1,10
 235 842 235 842 305 889 c 0,11,12
 436 977 436 977 603 977 c 0,13,14
 721 977 721 977 824 939 c 1,15,-1
 1054 962 l 1,16,17
 1051 941 1051 941 1041 915 c 128,-1,18
 1031 889 1031 889 1029 869 c 2,19,-1
 946 175 l 2,20,21
 941 130 941 130 941 85.5 c 128,-1,22
 941 41 941 41 949 0 c 1,23,-1
 726 0 l 1,24,25
 715 40 715 40 715 76 c 128,-1,26
 715 112 715 112 718 137 c 1,27,28
 692 92 692 92 652 59 c 128,-1,29
 612 26 612 26 568 10 c 0,30,31
 485 -21 485 -21 404 -21 c 0,4,5
348.5 225.5 m 128,-1,33
 395 163 395 163 491.5 163 c 128,-1,34
 588 163 588 163 658 242 c 128,-1,35
 728 321 728 321 748 453 c 1,36,-1
 789 788 l 1,37,38
 723 807 723 807 666 807 c 128,-1,39
 609 807 609 807 559.5 793.5 c 128,-1,40
 510 780 510 780 463 748 c 128,-1,41
 416 716 416 716 380.5 669.5 c 128,-1,42
 345 623 345 623 323.5 551.5 c 128,-1,43
 302 480 302 480 302 384 c 128,-1,32
 302 288 302 288 348.5 225.5 c 128,-1,33
EndSplineSet
EndChar

StartChar: Abreve
Encoding: 258 258 198
Width: 1126
GlyphClass: 2
Flags: W
LayerCount: 2
Fore
SplineSet
836.5 1397 m 128,-1,1
 754 1361 754 1361 652 1361 c 128,-1,2
 550 1361 550 1361 473.5 1395 c 128,-1,3
 397 1429 397 1429 328 1512 c 1,4,-1
 451 1624 l 1,5,6
 496 1567 496 1567 546 1541 c 128,-1,7
 596 1515 596 1515 668 1515 c 128,-1,8
 740 1515 740 1515 796.5 1540.5 c 128,-1,9
 853 1566 853 1566 910 1628 c 1,10,-1
 997 1517 l 1,11,0
 919 1433 919 1433 836.5 1397 c 128,-1,1
-30 0 m 1,12,-1
 580 1298 l 1,13,-1
 725 1298 l 1,14,-1
 1026 0 l 1,15,-1
 796 0 l 1,16,-1
 727 319 l 1,17,-1
 336 319 l 1,18,-1
 196 0 l 1,19,-1
 -30 0 l 1,12,-1
420 510 m 1,20,-1
 685 510 l 1,21,-1
 598 915 l 1,22,-1
 420 510 l 1,20,-1
EndSplineSet
EndChar

StartChar: abreve
Encoding: 259 259 199
Width: 1126
GlyphClass: 2
Flags: W
LayerCount: 2
Fore
SplineSet
661 1061 m 0,0,1
 457 1061 457 1061 323 1222 c 1,2,-1
 452 1345 l 1,3,4
 526 1227 526 1227 675 1227 c 0,5,6
 744 1227 744 1227 795 1254.5 c 128,-1,7
 846 1282 846 1282 908 1352 c 1,8,-1
 1003 1229 l 1,9,10
 922 1139 922 1139 844.5 1100 c 128,-1,11
 767 1061 767 1061 661 1061 c 0,0,1
404 -21 m 0,12,13
 245 -21 245 -21 156.5 88 c 128,-1,14
 68 197 68 197 68 376 c 0,15,16
 68 501 68 501 99.5 603.5 c 128,-1,17
 131 706 131 706 183 774 c 128,-1,18
 235 842 235 842 305 889 c 0,19,20
 436 977 436 977 603 977 c 0,21,22
 721 977 721 977 824 939 c 1,23,-1
 1054 962 l 1,24,25
 1051 941 1051 941 1041 915 c 128,-1,26
 1031 889 1031 889 1029 869 c 2,27,-1
 946 175 l 2,28,29
 941 130 941 130 941 85.5 c 128,-1,30
 941 41 941 41 949 0 c 1,31,-1
 726 0 l 1,32,33
 715 40 715 40 715 76 c 128,-1,34
 715 112 715 112 718 137 c 1,35,36
 692 92 692 92 652 59 c 128,-1,37
 612 26 612 26 568 10 c 0,38,39
 485 -21 485 -21 404 -21 c 0,12,13
348.5 225.5 m 128,-1,41
 395 163 395 163 491.5 163 c 128,-1,42
 588 163 588 163 658 242 c 128,-1,43
 728 321 728 321 748 453 c 1,44,-1
 789 788 l 1,45,46
 723 807 723 807 666 807 c 128,-1,47
 609 807 609 807 559.5 793.5 c 128,-1,48
 510 780 510 780 463 748 c 128,-1,49
 416 716 416 716 380.5 669.5 c 128,-1,50
 345 623 345 623 323.5 551.5 c 128,-1,51
 302 480 302 480 302 384 c 128,-1,40
 302 288 302 288 348.5 225.5 c 128,-1,41
EndSplineSet
EndChar

StartChar: Aogonek
Encoding: 260 260 200
Width: 1126
GlyphClass: 2
Flags: W
LayerCount: 2
Fore
SplineSet
764 -195 m 128,-1,1
 764 -234 764 -234 826 -234 c 128,-1,2
 888 -234 888 -234 965 -178 c 1,3,-1
 948 -297 l 1,4,5
 861 -373 861 -373 766.5 -373 c 128,-1,6
 672 -373 672 -373 624.5 -332 c 128,-1,7
 577 -291 577 -291 577 -221.5 c 128,-1,8
 577 -152 577 -152 629 -105.5 c 128,-1,9
 681 -59 681 -59 797 0 c 1,10,-1
 727 319 l 1,11,-1
 336 319 l 1,12,-1
 196 0 l 1,13,-1
 -30 0 l 1,14,-1
 580 1298 l 1,15,-1
 725 1298 l 1,16,-1
 1026 0 l 1,17,-1
 1025 0 l 1,18,19
 896 -49 896 -49 830 -102.5 c 128,-1,0
 764 -156 764 -156 764 -195 c 128,-1,1
420 510 m 1,20,-1
 685 510 l 1,21,-1
 598 915 l 1,22,-1
 420 510 l 1,20,-1
EndSplineSet
EndChar

StartChar: aogonek
Encoding: 261 261 201
Width: 1126
GlyphClass: 2
Flags: W
LayerCount: 2
Fore
SplineSet
404 -21 m 0,0,1
 245 -21 245 -21 156.5 88 c 128,-1,2
 68 197 68 197 68 376 c 0,3,4
 68 501 68 501 99.5 603.5 c 128,-1,5
 131 706 131 706 183 774 c 128,-1,6
 235 842 235 842 305 889 c 0,7,8
 436 977 436 977 603 977 c 0,9,10
 721 977 721 977 824 939 c 1,11,-1
 1054 962 l 1,12,13
 1051 941 1051 941 1041 915 c 128,-1,14
 1031 889 1031 889 1029 869 c 2,15,-1
 946 175 l 2,16,17
 941 130 941 130 941 85.5 c 128,-1,18
 941 41 941 41 949 0 c 1,19,-1
 947 0 l 1,20,21
 880 -18 880 -18 832 -45.5 c 128,-1,22
 784 -73 784 -73 762 -101 c 0,23,24
 722 -152 722 -152 722 -182.5 c 128,-1,25
 722 -213 722 -213 735 -222 c 128,-1,26
 748 -231 748 -231 778 -231 c 0,27,28
 845 -231 845 -231 917 -172 c 1,29,-1
 900 -307 l 1,30,31
 851 -341 851 -341 808 -357 c 128,-1,32
 765 -373 765 -373 710 -373 c 0,33,34
 625 -373 625 -373 577 -336.5 c 128,-1,35
 529 -300 529 -300 529 -231 c 0,36,37
 529 -93 529 -93 728 0 c 1,38,-1
 726 0 l 1,39,40
 715 40 715 40 715 76 c 128,-1,41
 715 112 715 112 718 137 c 1,42,43
 692 92 692 92 652 59 c 128,-1,44
 612 26 612 26 568 10 c 0,45,46
 485 -21 485 -21 404 -21 c 0,0,1
348.5 225.5 m 128,-1,48
 395 163 395 163 491.5 163 c 128,-1,49
 588 163 588 163 658 242 c 128,-1,50
 728 321 728 321 748 453 c 1,51,-1
 789 788 l 1,52,53
 723 807 723 807 666 807 c 128,-1,54
 609 807 609 807 559.5 793.5 c 128,-1,55
 510 780 510 780 463 748 c 128,-1,56
 416 716 416 716 380.5 669.5 c 128,-1,57
 345 623 345 623 323.5 551.5 c 128,-1,58
 302 480 302 480 302 384 c 128,-1,47
 302 288 302 288 348.5 225.5 c 128,-1,48
EndSplineSet
EndChar

StartChar: Cacute
Encoding: 262 262 202
Width: 1126
GlyphClass: 2
Flags: W
LayerCount: 2
Fore
SplineSet
620 1339 m 1,0,-1
 578 1440 l 1,1,-1
 950 1679 l 1,2,-1
 1030 1500 l 1,3,-1
 620 1339 l 1,0,-1
835 933 m 1,4,-1
 841 977 l 1,5,6
 841 1042 841 1042 799 1078.5 c 128,-1,7
 757 1115 757 1115 691 1115 c 0,8,9
 555 1115 555 1115 469.5 994 c 128,-1,10
 384 873 384 873 354 641 c 0,11,12
 343 553 343 553 343 487 c 0,13,14
 343 321 343 321 401 238.5 c 128,-1,15
 459 156 459 156 565 156 c 0,16,17
 708 156 708 156 811 326 c 1,18,-1
 971 213 l 1,19,20
 809 -37 809 -37 526 -37 c 0,21,22
 318 -37 318 -37 209.5 93.5 c 128,-1,23
 101 224 101 224 101 468 c 0,24,25
 101 540 101 540 112 631 c 0,26,27
 153 953 153 953 308.5 1131 c 128,-1,28
 464 1309 464 1309 711 1309 c 0,29,30
 867 1309 867 1309 953.5 1233 c 128,-1,31
 1040 1157 1040 1157 1072 997 c 1,32,-1
 840 910 l 1,33,34
 835 921 835 921 835 933 c 1,4,-1
EndSplineSet
EndChar

StartChar: cacute
Encoding: 263 263 203
Width: 1126
GlyphClass: 2
Flags: W
LayerCount: 2
Fore
SplineSet
524 1076 m 1,0,-1
 727 1446 l 1,1,-1
 885 1350 l 1,2,-1
 633 1019 l 1,3,-1
 524 1076 l 1,0,-1
648 977 m 0,4,5
 777 977 777 977 872 927.5 c 128,-1,6
 967 878 967 878 1014 790 c 1,7,-1
 842 616 l 1,8,9
 830 632 830 632 830 648 c 2,10,-1
 830 665 l 2,11,12
 830 716 830 716 774 752 c 128,-1,13
 718 788 718 788 636 788 c 0,14,15
 499 788 499 788 417.5 686 c 128,-1,16
 336 584 336 584 336 407 c 0,17,18
 336 291 336 291 391 224 c 128,-1,19
 446 157 446 157 555 157 c 0,20,21
 693 157 693 157 820 280 c 1,22,-1
 926 119 l 1,23,24
 761 -33 761 -33 547 -33 c 128,-1,25
 333 -33 333 -33 221 84 c 128,-1,26
 109 201 109 201 109 395 c 0,27,28
 109 436 109 436 113 469 c 0,29,30
 138 694 138 694 281.5 835.5 c 128,-1,31
 425 977 425 977 648 977 c 0,4,5
EndSplineSet
EndChar

StartChar: Ccircumflex
Encoding: 264 264 204
Width: 1126
GlyphClass: 2
Flags: W
LayerCount: 2
Fore
SplineSet
479 1325 m 1,0,-1
 419 1407 l 1,1,-1
 731 1648 l 1,2,-1
 794 1648 l 1,3,-1
 1033 1411 l 1,4,-1
 944 1319 l 1,5,-1
 738 1474 l 1,6,-1
 479 1325 l 1,0,-1
835 933 m 1,7,-1
 841 977 l 1,8,9
 841 1042 841 1042 799 1078.5 c 128,-1,10
 757 1115 757 1115 691 1115 c 0,11,12
 555 1115 555 1115 469.5 994 c 128,-1,13
 384 873 384 873 354 641 c 0,14,15
 343 553 343 553 343 487 c 0,16,17
 343 321 343 321 401 238.5 c 128,-1,18
 459 156 459 156 565 156 c 0,19,20
 708 156 708 156 811 326 c 1,21,-1
 971 213 l 1,22,23
 809 -37 809 -37 526 -37 c 0,24,25
 318 -37 318 -37 209.5 93.5 c 128,-1,26
 101 224 101 224 101 468 c 0,27,28
 101 540 101 540 112 631 c 0,29,30
 153 953 153 953 308.5 1131 c 128,-1,31
 464 1309 464 1309 711 1309 c 0,32,33
 867 1309 867 1309 953.5 1233 c 128,-1,34
 1040 1157 1040 1157 1072 997 c 1,35,-1
 840 910 l 1,36,37
 835 921 835 921 835 933 c 1,7,-1
EndSplineSet
EndChar

StartChar: ccircumflex
Encoding: 265 265 205
Width: 1126
GlyphClass: 2
Flags: W
LayerCount: 2
Fore
SplineSet
476 1066 m 1,0,-1
 376 1153 l 1,1,-1
 650 1457 l 1,2,-1
 724 1457 l 1,3,-1
 942 1138 l 1,4,-1
 812 1052 l 1,5,-1
 714 1188 l 1,6,-1
 669 1275 l 1,7,-1
 589 1181 l 1,8,-1
 476 1066 l 1,0,-1
648 977 m 0,9,10
 777 977 777 977 872 927.5 c 128,-1,11
 967 878 967 878 1014 790 c 1,12,-1
 842 616 l 1,13,14
 830 632 830 632 830 648 c 2,15,-1
 830 665 l 2,16,17
 830 716 830 716 774 752 c 128,-1,18
 718 788 718 788 636 788 c 0,19,20
 499 788 499 788 417.5 686 c 128,-1,21
 336 584 336 584 336 407 c 0,22,23
 336 291 336 291 391 224 c 128,-1,24
 446 157 446 157 555 157 c 0,25,26
 693 157 693 157 820 280 c 1,27,-1
 926 119 l 1,28,29
 761 -33 761 -33 547 -33 c 128,-1,30
 333 -33 333 -33 221 84 c 128,-1,31
 109 201 109 201 109 395 c 0,32,33
 109 436 109 436 113 469 c 0,34,35
 138 694 138 694 281.5 835.5 c 128,-1,36
 425 977 425 977 648 977 c 0,9,10
EndSplineSet
EndChar

StartChar: Cdotaccent
Encoding: 266 266 206
Width: 1126
GlyphClass: 2
Flags: W
LayerCount: 2
Fore
SplineSet
841.5 1442.5 m 128,-1,1
 795 1401 795 1401 737 1401 c 128,-1,2
 679 1401 679 1401 639 1437.5 c 128,-1,3
 599 1474 599 1474 599 1527 c 128,-1,4
 599 1580 599 1580 641.5 1623.5 c 128,-1,5
 684 1667 684 1667 745.5 1667 c 128,-1,6
 807 1667 807 1667 847.5 1630.5 c 128,-1,7
 888 1594 888 1594 888 1539 c 128,-1,0
 888 1484 888 1484 841.5 1442.5 c 128,-1,1
835 933 m 1,8,-1
 841 977 l 1,9,10
 841 1042 841 1042 799 1078.5 c 128,-1,11
 757 1115 757 1115 691 1115 c 0,12,13
 555 1115 555 1115 469.5 994 c 128,-1,14
 384 873 384 873 354 641 c 0,15,16
 343 553 343 553 343 487 c 0,17,18
 343 321 343 321 401 238.5 c 128,-1,19
 459 156 459 156 565 156 c 0,20,21
 708 156 708 156 811 326 c 1,22,-1
 971 213 l 1,23,24
 809 -37 809 -37 526 -37 c 0,25,26
 318 -37 318 -37 209.5 93.5 c 128,-1,27
 101 224 101 224 101 468 c 0,28,29
 101 540 101 540 112 631 c 0,30,31
 153 953 153 953 308.5 1131 c 128,-1,32
 464 1309 464 1309 711 1309 c 0,33,34
 867 1309 867 1309 953.5 1233 c 128,-1,35
 1040 1157 1040 1157 1072 997 c 1,36,-1
 840 910 l 1,37,38
 835 921 835 921 835 933 c 1,8,-1
EndSplineSet
EndChar

StartChar: cdotaccent
Encoding: 267 267 207
Width: 1126
GlyphClass: 2
Flags: W
LayerCount: 2
Fore
SplineSet
765 1153 m 128,-1,1
 721 1112 721 1112 663 1112 c 128,-1,2
 605 1112 605 1112 563.5 1151.5 c 128,-1,3
 522 1191 522 1191 522 1247.5 c 128,-1,4
 522 1304 522 1304 563.5 1343.5 c 128,-1,5
 605 1383 605 1383 664 1383 c 128,-1,6
 723 1383 723 1383 766 1343 c 128,-1,7
 809 1303 809 1303 809 1248.5 c 128,-1,0
 809 1194 809 1194 765 1153 c 128,-1,1
648 977 m 0,8,9
 777 977 777 977 872 927.5 c 128,-1,10
 967 878 967 878 1014 790 c 1,11,-1
 842 616 l 1,12,13
 830 632 830 632 830 648 c 2,14,-1
 830 665 l 2,15,16
 830 716 830 716 774 752 c 128,-1,17
 718 788 718 788 636 788 c 0,18,19
 499 788 499 788 417.5 686 c 128,-1,20
 336 584 336 584 336 407 c 0,21,22
 336 291 336 291 391 224 c 128,-1,23
 446 157 446 157 555 157 c 0,24,25
 693 157 693 157 820 280 c 1,26,-1
 926 119 l 1,27,28
 761 -33 761 -33 547 -33 c 128,-1,29
 333 -33 333 -33 221 84 c 128,-1,30
 109 201 109 201 109 395 c 0,31,32
 109 436 109 436 113 469 c 0,33,34
 138 694 138 694 281.5 835.5 c 128,-1,35
 425 977 425 977 648 977 c 0,8,9
EndSplineSet
EndChar

StartChar: Ccaron
Encoding: 268 268 208
Width: 1126
GlyphClass: 2
Flags: W
LayerCount: 2
Fore
SplineSet
695 1339 m 1,0,-1
 456 1576 l 1,1,-1
 545 1668 l 1,2,-1
 751 1513 l 1,3,-1
 1010 1662 l 1,4,-1
 1070 1580 l 1,5,-1
 758 1339 l 1,6,-1
 695 1339 l 1,0,-1
835 933 m 1,7,-1
 841 977 l 1,8,9
 841 1042 841 1042 799 1078.5 c 128,-1,10
 757 1115 757 1115 691 1115 c 0,11,12
 555 1115 555 1115 469.5 994 c 128,-1,13
 384 873 384 873 354 641 c 0,14,15
 343 553 343 553 343 487 c 0,16,17
 343 321 343 321 401 238.5 c 128,-1,18
 459 156 459 156 565 156 c 0,19,20
 708 156 708 156 811 326 c 1,21,-1
 971 213 l 1,22,23
 809 -37 809 -37 526 -37 c 0,24,25
 318 -37 318 -37 209.5 93.5 c 128,-1,26
 101 224 101 224 101 468 c 0,27,28
 101 540 101 540 112 631 c 0,29,30
 153 953 153 953 308.5 1131 c 128,-1,31
 464 1309 464 1309 711 1309 c 0,32,33
 867 1309 867 1309 953.5 1233 c 128,-1,34
 1040 1157 1040 1157 1072 997 c 1,35,-1
 840 910 l 1,36,37
 835 921 835 921 835 933 c 1,7,-1
EndSplineSet
EndChar

StartChar: ccaron
Encoding: 269 269 209
Width: 1126
GlyphClass: 2
Flags: W
LayerCount: 2
Fore
SplineSet
634 1040 m 1,0,-1
 426 1349 l 1,1,-1
 546 1437 l 1,2,-1
 644 1309 l 1,3,-1
 695 1216 l 1,4,-1
 770 1306 l 1,5,-1
 896 1435 l 1,6,-1
 983 1347 l 1,7,-1
 700 1040 l 1,8,-1
 634 1040 l 1,0,-1
648 977 m 0,9,10
 777 977 777 977 872 927.5 c 128,-1,11
 967 878 967 878 1014 790 c 1,12,-1
 842 616 l 1,13,14
 830 632 830 632 830 648 c 2,15,-1
 830 665 l 2,16,17
 830 716 830 716 774 752 c 128,-1,18
 718 788 718 788 636 788 c 0,19,20
 499 788 499 788 417.5 686 c 128,-1,21
 336 584 336 584 336 407 c 0,22,23
 336 291 336 291 391 224 c 128,-1,24
 446 157 446 157 555 157 c 0,25,26
 693 157 693 157 820 280 c 1,27,-1
 926 119 l 1,28,29
 761 -33 761 -33 547 -33 c 128,-1,30
 333 -33 333 -33 221 84 c 128,-1,31
 109 201 109 201 109 395 c 0,32,33
 109 436 109 436 113 469 c 0,34,35
 138 694 138 694 281.5 835.5 c 128,-1,36
 425 977 425 977 648 977 c 0,9,10
EndSplineSet
EndChar

StartChar: Dcaron
Encoding: 270 270 210
Width: 1126
GlyphClass: 2
Flags: W
LayerCount: 2
Fore
SplineSet
573 1339 m 1,0,-1
 334 1576 l 1,1,-1
 423 1668 l 1,2,-1
 629 1513 l 1,3,-1
 888 1662 l 1,4,-1
 948 1580 l 1,5,-1
 636 1339 l 1,6,-1
 573 1339 l 1,0,-1
578 1276 m 2,7,8
 811 1276 811 1276 937.5 1142 c 128,-1,9
 1064 1008 1064 1008 1064 764 c 0,10,11
 1064 588 1064 588 1015 444 c 128,-1,12
 966 300 966 300 878.5 203 c 128,-1,13
 791 106 791 106 667.5 53 c 128,-1,14
 544 0 544 0 397 0 c 2,15,-1
 59 0 l 1,16,-1
 215 1276 l 1,17,-1
 578 1276 l 2,7,8
437 201 m 2,18,19
 608 201 608 201 719.5 345.5 c 128,-1,20
 831 490 831 490 831 734 c 0,21,22
 831 896 831 896 758.5 985.5 c 128,-1,23
 686 1075 686 1075 556 1075 c 2,24,-1
 427 1075 l 1,25,-1
 319 201 l 1,26,-1
 437 201 l 2,18,19
EndSplineSet
EndChar

StartChar: dcaron
Encoding: 271 271 211
Width: 1126
GlyphClass: 2
Flags: W
LayerCount: 2
Fore
SplineSet
976 1030 m 1,0,-1
 1081 1412 l 1,1,-1
 1266 1412 l 1,2,-1
 1077 998 l 1,3,-1
 976 1030 l 1,0,-1
318 -21 m 0,4,5
 172 -21 172 -21 96.5 80.5 c 128,-1,6
 21 182 21 182 21 353 c 0,7,8
 21 428 21 428 34 503 c 0,9,10
 75 744 75 744 205.5 860.5 c 128,-1,11
 336 977 336 977 517 977 c 0,12,13
 623 977 623 977 721 945 c 1,14,-1
 772 1362 l 1,15,-1
 1021 1362 l 1,16,17
 1020 1339 1020 1339 1004.5 1317 c 128,-1,18
 989 1295 989 1295 987 1275 c 2,19,-1
 855 175 l 2,20,21
 850 130 850 130 850 85.5 c 128,-1,22
 850 41 850 41 858 0 c 1,23,-1
 640 0 l 1,24,25
 629 40 629 40 629 76 c 128,-1,26
 629 112 629 112 632 137 c 1,27,28
 606 92 606 92 566 59 c 128,-1,29
 526 26 526 26 482 10 c 0,30,31
 399 -21 399 -21 318 -21 c 0,4,5
400 163 m 0,32,33
 502 163 502 163 572 242 c 128,-1,34
 642 321 642 321 662 453 c 1,35,-1
 702 789 l 1,36,37
 642 807 642 807 577.5 807 c 128,-1,38
 513 807 513 807 454.5 782 c 128,-1,39
 396 757 396 757 347.5 705 c 128,-1,40
 299 653 299 653 271 562.5 c 128,-1,41
 243 472 243 472 243 365.5 c 128,-1,42
 243 259 243 259 280 211 c 128,-1,43
 317 163 317 163 400 163 c 0,32,33
EndSplineSet
EndChar

StartChar: Dcroat
Encoding: 272 272 212
Width: 1126
GlyphClass: 2
Flags: W
LayerCount: 2
Fore
SplineSet
578 1276 m 2,0,1
 811 1276 811 1276 937.5 1142 c 128,-1,2
 1064 1008 1064 1008 1064 764 c 0,3,4
 1064 588 1064 588 1015 444 c 128,-1,5
 966 300 966 300 878.5 203 c 128,-1,6
 791 106 791 106 667.5 53 c 128,-1,7
 544 0 544 0 397 0 c 2,8,-1
 59 0 l 1,9,-1
 128 563 l 1,10,-1
 29 563 l 1,11,-1
 52 750 l 1,12,-1
 151 750 l 1,13,-1
 215 1276 l 1,14,-1
 578 1276 l 2,0,1
437 201 m 2,15,16
 608 201 608 201 719.5 345.5 c 128,-1,17
 831 490 831 490 831 734 c 0,18,19
 831 896 831 896 758.5 985.5 c 128,-1,20
 686 1075 686 1075 556 1075 c 2,21,-1
 427 1075 l 1,22,-1
 387 750 l 1,23,-1
 650 750 l 1,24,-1
 627 563 l 1,25,-1
 364 563 l 1,26,-1
 319 201 l 1,27,-1
 437 201 l 2,15,16
EndSplineSet
EndChar

StartChar: dcroat
Encoding: 273 273 213
Width: 1126
GlyphClass: 2
Flags: W
LayerCount: 2
Fore
SplineSet
404 -21 m 0,0,1
 245 -21 245 -21 156.5 88 c 128,-1,2
 68 197 68 197 68 376 c 0,3,4
 68 501 68 501 99.5 603.5 c 128,-1,5
 131 706 131 706 183 774 c 128,-1,6
 235 842 235 842 305 889 c 0,7,8
 436 977 436 977 603 977 c 0,9,10
 709 977 709 977 807 945 c 1,11,-1
 822 1067 l 1,12,-1
 533 1067 l 1,13,-1
 550 1207 l 1,14,-1
 839 1207 l 1,15,-1
 858 1362 l 1,16,-1
 1104 1362 l 1,17,18
 1103 1338 1103 1338 1091.5 1316.5 c 128,-1,19
 1080 1295 1080 1295 1078 1275 c 2,20,-1
 1070 1207 l 1,21,-1
 1174 1207 l 1,22,-1
 1157 1067 l 1,23,-1
 1054 1067 l 1,24,-1
 946 175 l 2,25,26
 941 130 941 130 941 85.5 c 128,-1,27
 941 41 941 41 949 0 c 1,28,-1
 726 0 l 1,29,30
 715 40 715 40 715 76 c 128,-1,31
 715 112 715 112 718 137 c 1,32,33
 692 92 692 92 652 59 c 128,-1,34
 612 26 612 26 568 10 c 0,35,36
 485 -21 485 -21 404 -21 c 0,0,1
348.5 225.5 m 128,-1,38
 395 163 395 163 491.5 163 c 128,-1,39
 588 163 588 163 658 242 c 128,-1,40
 728 321 728 321 748 453 c 1,41,-1
 788 789 l 1,42,43
 726 807 726 807 661 807 c 128,-1,44
 596 807 596 807 535 784 c 128,-1,45
 474 761 474 761 420.5 714.5 c 128,-1,46
 367 668 367 668 334.5 584.5 c 128,-1,47
 302 501 302 501 302 394.5 c 128,-1,37
 302 288 302 288 348.5 225.5 c 128,-1,38
EndSplineSet
EndChar

StartChar: Emacron
Encoding: 274 274 214
Width: 1126
GlyphClass: 2
Flags: W
LayerCount: 2
Fore
SplineSet
384 1434 m 1,0,-1
 404 1594 l 1,1,-1
 958 1594 l 1,2,-1
 938 1434 l 1,3,-1
 384 1434 l 1,0,-1
64 0 m 1,4,-1
 220 1276 l 1,5,-1
 1054 1276 l 1,6,-1
 1030 1075 l 1,7,-1
 422 1075 l 1,8,-1
 383 764 l 1,9,-1
 887 764 l 1,10,-1
 863 563 l 1,11,-1
 359 563 l 1,12,-1
 314 201 l 1,13,-1
 918 201 l 1,14,-1
 894 0 l 1,15,-1
 64 0 l 1,4,-1
EndSplineSet
EndChar

StartChar: emacron
Encoding: 275 275 215
Width: 1126
GlyphClass: 2
Flags: W
LayerCount: 2
Fore
SplineSet
369 1133 m 1,0,-1
 389 1293 l 1,1,-1
 943 1293 l 1,2,-1
 923 1133 l 1,3,-1
 369 1133 l 1,0,-1
625 977 m 0,4,5
 788 977 788 977 875 896 c 128,-1,6
 962 815 962 815 962 677 c 0,7,8
 962 581 962 581 914 534.5 c 128,-1,9
 866 488 866 488 751 469 c 1,10,-1
 322 408 l 1,11,12
 322 277 322 277 382.5 213.5 c 128,-1,13
 443 150 443 150 553 150 c 0,14,15
 714 150 714 150 830 266 c 1,16,-1
 953 139 l 1,17,18
 771 -33 771 -33 523 -33 c 0,19,20
 320 -33 320 -33 214.5 73 c 128,-1,21
 109 179 109 179 109 372 c 0,22,23
 109 418 109 418 115 467 c 0,24,25
 143 703 143 703 278 840 c 128,-1,26
 413 977 413 977 625 977 c 0,4,5
751 703 m 0,27,28
 751 800 751 800 619 800 c 0,29,30
 516 800 516 800 441.5 742 c 128,-1,31
 367 684 367 684 343 581 c 1,32,-1
 671 628 l 2,33,34
 711 633 711 633 731 653.5 c 128,-1,35
 751 674 751 674 751 703 c 0,27,28
EndSplineSet
EndChar

StartChar: Ebreve
Encoding: 276 276 216
Width: 1126
GlyphClass: 2
Flags: W
LayerCount: 2
Fore
SplineSet
836.5 1397 m 128,-1,1
 754 1361 754 1361 652 1361 c 128,-1,2
 550 1361 550 1361 473.5 1395 c 128,-1,3
 397 1429 397 1429 328 1512 c 1,4,-1
 451 1624 l 1,5,6
 496 1567 496 1567 546 1541 c 128,-1,7
 596 1515 596 1515 668 1515 c 128,-1,8
 740 1515 740 1515 796.5 1540.5 c 128,-1,9
 853 1566 853 1566 910 1628 c 1,10,-1
 997 1517 l 1,11,0
 919 1433 919 1433 836.5 1397 c 128,-1,1
64 0 m 1,12,-1
 220 1276 l 1,13,-1
 1054 1276 l 1,14,-1
 1030 1075 l 1,15,-1
 422 1075 l 1,16,-1
 383 764 l 1,17,-1
 887 764 l 1,18,-1
 863 563 l 1,19,-1
 359 563 l 1,20,-1
 314 201 l 1,21,-1
 918 201 l 1,22,-1
 894 0 l 1,23,-1
 64 0 l 1,12,-1
EndSplineSet
EndChar

StartChar: ebreve
Encoding: 277 277 217
Width: 1126
GlyphClass: 2
Flags: W
LayerCount: 2
Fore
SplineSet
634 1061 m 0,0,1
 430 1061 430 1061 296 1222 c 1,2,-1
 425 1345 l 1,3,4
 499 1227 499 1227 648 1227 c 0,5,6
 717 1227 717 1227 768 1254.5 c 128,-1,7
 819 1282 819 1282 881 1352 c 1,8,-1
 976 1229 l 1,9,10
 895 1139 895 1139 817.5 1100 c 128,-1,11
 740 1061 740 1061 634 1061 c 0,0,1
625 977 m 0,12,13
 788 977 788 977 875 896 c 128,-1,14
 962 815 962 815 962 677 c 0,15,16
 962 581 962 581 914 534.5 c 128,-1,17
 866 488 866 488 751 469 c 1,18,-1
 322 408 l 1,19,20
 322 277 322 277 382.5 213.5 c 128,-1,21
 443 150 443 150 553 150 c 0,22,23
 714 150 714 150 830 266 c 1,24,-1
 953 139 l 1,25,26
 771 -33 771 -33 523 -33 c 0,27,28
 320 -33 320 -33 214.5 73 c 128,-1,29
 109 179 109 179 109 372 c 0,30,31
 109 418 109 418 115 467 c 0,32,33
 143 703 143 703 278 840 c 128,-1,34
 413 977 413 977 625 977 c 0,12,13
751 703 m 0,35,36
 751 800 751 800 619 800 c 0,37,38
 516 800 516 800 441.5 742 c 128,-1,39
 367 684 367 684 343 581 c 1,40,-1
 671 628 l 2,41,42
 711 633 711 633 731 653.5 c 128,-1,43
 751 674 751 674 751 703 c 0,35,36
EndSplineSet
EndChar

StartChar: Edotaccent
Encoding: 278 278 218
Width: 1126
GlyphClass: 2
Flags: W
LayerCount: 2
Fore
SplineSet
769.5 1442.5 m 128,-1,1
 723 1401 723 1401 665 1401 c 128,-1,2
 607 1401 607 1401 567 1437.5 c 128,-1,3
 527 1474 527 1474 527 1527 c 128,-1,4
 527 1580 527 1580 569.5 1623.5 c 128,-1,5
 612 1667 612 1667 673.5 1667 c 128,-1,6
 735 1667 735 1667 775.5 1630.5 c 128,-1,7
 816 1594 816 1594 816 1539 c 128,-1,0
 816 1484 816 1484 769.5 1442.5 c 128,-1,1
64 0 m 1,8,-1
 220 1276 l 1,9,-1
 1054 1276 l 1,10,-1
 1030 1075 l 1,11,-1
 422 1075 l 1,12,-1
 383 764 l 1,13,-1
 887 764 l 1,14,-1
 863 563 l 1,15,-1
 359 563 l 1,16,-1
 314 201 l 1,17,-1
 918 201 l 1,18,-1
 894 0 l 1,19,-1
 64 0 l 1,8,-1
EndSplineSet
EndChar

StartChar: edotaccent
Encoding: 279 279 219
Width: 1126
GlyphClass: 2
Flags: W
LayerCount: 2
Fore
SplineSet
730 1153 m 128,-1,1
 686 1112 686 1112 628 1112 c 128,-1,2
 570 1112 570 1112 528.5 1151.5 c 128,-1,3
 487 1191 487 1191 487 1247.5 c 128,-1,4
 487 1304 487 1304 528.5 1343.5 c 128,-1,5
 570 1383 570 1383 629 1383 c 128,-1,6
 688 1383 688 1383 731 1343 c 128,-1,7
 774 1303 774 1303 774 1248.5 c 128,-1,0
 774 1194 774 1194 730 1153 c 128,-1,1
625 977 m 0,8,9
 788 977 788 977 875 896 c 128,-1,10
 962 815 962 815 962 677 c 0,11,12
 962 581 962 581 914 534.5 c 128,-1,13
 866 488 866 488 751 469 c 1,14,-1
 322 408 l 1,15,16
 322 277 322 277 382.5 213.5 c 128,-1,17
 443 150 443 150 553 150 c 0,18,19
 714 150 714 150 830 266 c 1,20,-1
 953 139 l 1,21,22
 771 -33 771 -33 523 -33 c 0,23,24
 320 -33 320 -33 214.5 73 c 128,-1,25
 109 179 109 179 109 372 c 0,26,27
 109 418 109 418 115 467 c 0,28,29
 143 703 143 703 278 840 c 128,-1,30
 413 977 413 977 625 977 c 0,8,9
751 703 m 0,31,32
 751 800 751 800 619 800 c 0,33,34
 516 800 516 800 441.5 742 c 128,-1,35
 367 684 367 684 343 581 c 1,36,-1
 671 628 l 2,37,38
 711 633 711 633 731 653.5 c 128,-1,39
 751 674 751 674 751 703 c 0,31,32
EndSplineSet
EndChar

StartChar: Eogonek
Encoding: 280 280 220
Width: 1126
GlyphClass: 2
Flags: W
LayerCount: 2
Fore
SplineSet
688 -188 m 0,0,1
 688 -231 688 -231 745 -231 c 128,-1,2
 802 -231 802 -231 874 -172 c 1,3,-1
 857 -307 l 1,4,5
 763 -373 763 -373 673.5 -373 c 128,-1,6
 584 -373 584 -373 534.5 -336 c 128,-1,7
 485 -299 485 -299 485 -235 c 128,-1,8
 485 -171 485 -171 542 -115 c 128,-1,9
 599 -59 599 -59 736 0 c 1,10,-1
 64 0 l 1,11,-1
 220 1276 l 1,12,-1
 1054 1276 l 1,13,-1
 1030 1075 l 1,14,-1
 422 1075 l 1,15,-1
 383 764 l 1,16,-1
 887 764 l 1,17,-1
 863 563 l 1,18,-1
 359 563 l 1,19,-1
 314 201 l 1,20,-1
 918 201 l 1,21,-1
 894 0 l 1,22,-1
 895 0 l 1,23,24
 768 -79 768 -79 728 -117 c 128,-1,25
 688 -155 688 -155 688 -188 c 0,0,1
EndSplineSet
EndChar

StartChar: eogonek
Encoding: 281 281 221
Width: 1126
GlyphClass: 2
Flags: W
LayerCount: 2
Fore
SplineSet
320 -237 m 0,0,1
 320 -122 320 -122 500 -33 c 1,2,3
 308 -26 308 -26 208.5 79.5 c 128,-1,4
 109 185 109 185 109 372 c 0,5,6
 109 645 109 645 251 811 c 128,-1,7
 393 977 393 977 625 977 c 0,8,9
 788 977 788 977 875 896 c 128,-1,10
 962 815 962 815 962 677 c 0,11,12
 962 581 962 581 914 534.5 c 128,-1,13
 866 488 866 488 751 469 c 1,14,-1
 322 408 l 1,15,16
 322 277 322 277 382.5 213.5 c 128,-1,17
 443 150 443 150 553 150 c 0,18,19
 714 150 714 150 830 266 c 1,20,-1
 953 139 l 1,21,22
 849 41 849 41 730 0 c 1,23,24
 603 -79 603 -79 563 -117 c 128,-1,25
 523 -155 523 -155 523 -188 c 0,26,27
 523 -231 523 -231 580 -231 c 128,-1,28
 637 -231 637 -231 709 -172 c 1,29,-1
 692 -307 l 1,30,31
 598 -373 598 -373 508.5 -373 c 128,-1,32
 419 -373 419 -373 369.5 -336 c 128,-1,33
 320 -299 320 -299 320 -237 c 0,0,1
751 703 m 0,34,35
 751 800 751 800 619 800 c 0,36,37
 516 800 516 800 441.5 742 c 128,-1,38
 367 684 367 684 343 581 c 1,39,-1
 671 628 l 2,40,41
 711 633 711 633 731 653.5 c 128,-1,42
 751 674 751 674 751 703 c 0,34,35
EndSplineSet
EndChar

StartChar: Ecaron
Encoding: 282 282 222
Width: 1126
GlyphClass: 2
Flags: W
LayerCount: 2
Fore
SplineSet
623 1339 m 1,0,-1
 384 1576 l 1,1,-1
 473 1668 l 1,2,-1
 679 1513 l 1,3,-1
 938 1662 l 1,4,-1
 998 1580 l 1,5,-1
 686 1339 l 1,6,-1
 623 1339 l 1,0,-1
64 0 m 1,7,-1
 220 1276 l 1,8,-1
 1054 1276 l 1,9,-1
 1030 1075 l 1,10,-1
 422 1075 l 1,11,-1
 383 764 l 1,12,-1
 887 764 l 1,13,-1
 863 563 l 1,14,-1
 359 563 l 1,15,-1
 314 201 l 1,16,-1
 918 201 l 1,17,-1
 894 0 l 1,18,-1
 64 0 l 1,7,-1
EndSplineSet
EndChar

StartChar: ecaron
Encoding: 283 283 223
Width: 1126
GlyphClass: 2
Flags: W
LayerCount: 2
Fore
SplineSet
599 1040 m 1,0,-1
 391 1349 l 1,1,-1
 511 1437 l 1,2,-1
 609 1309 l 1,3,-1
 660 1216 l 1,4,-1
 735 1306 l 1,5,-1
 861 1435 l 1,6,-1
 948 1347 l 1,7,-1
 665 1040 l 1,8,-1
 599 1040 l 1,0,-1
109 372 m 0,9,10
 109 603 109 603 235 784 c 0,11,12
 296 871 296 871 397.5 924 c 128,-1,13
 499 977 499 977 625 977 c 0,14,15
 788 977 788 977 875 896 c 128,-1,16
 962 815 962 815 962 677 c 0,17,18
 962 581 962 581 914 534.5 c 128,-1,19
 866 488 866 488 751 469 c 1,20,-1
 322 408 l 1,21,22
 322 277 322 277 382.5 213.5 c 128,-1,23
 443 150 443 150 553 150 c 0,24,25
 714 150 714 150 830 266 c 1,26,-1
 953 139 l 1,27,28
 771 -33 771 -33 523 -33 c 0,29,30
 320 -33 320 -33 214.5 73 c 128,-1,31
 109 179 109 179 109 372 c 0,9,10
751 703 m 0,32,33
 751 800 751 800 619 800 c 0,34,35
 516 800 516 800 441.5 742 c 128,-1,36
 367 684 367 684 343 581 c 1,37,-1
 671 628 l 2,38,39
 711 633 711 633 731 653.5 c 128,-1,40
 751 674 751 674 751 703 c 0,32,33
EndSplineSet
EndChar

StartChar: Gcircumflex
Encoding: 284 284 224
Width: 1126
GlyphClass: 2
Flags: W
LayerCount: 2
Fore
SplineSet
466 1325 m 1,0,-1
 406 1407 l 1,1,-1
 718 1648 l 1,2,-1
 781 1648 l 1,3,-1
 1020 1411 l 1,4,-1
 931 1319 l 1,5,-1
 725 1474 l 1,6,-1
 466 1325 l 1,0,-1
835 936 m 1,7,-1
 841 979 l 1,8,9
 841 1041 841 1041 798 1078 c 128,-1,10
 755 1115 755 1115 681 1115 c 0,11,12
 542 1115 542 1115 435 997.5 c 128,-1,13
 328 880 328 880 293 653 c 0,14,15
 281 578 281 578 281 512 c 0,16,17
 281 350 281 350 346.5 254 c 128,-1,18
 412 158 412 158 534 158 c 0,19,20
 583 158 583 158 641.5 172.5 c 128,-1,21
 700 187 700 187 733 211 c 1,22,-1
 762 451 l 1,23,-1
 525 451 l 1,24,-1
 550 652 l 1,25,-1
 1023 652 l 1,26,-1
 956 109 l 1,27,28
 875 42 875 42 744 2.5 c 128,-1,29
 613 -37 613 -37 495 -37 c 0,30,31
 284 -37 284 -37 163.5 100.5 c 128,-1,32
 43 238 43 238 43 493 c 0,33,34
 43 873 43 873 222.5 1091 c 128,-1,35
 402 1309 402 1309 710 1309 c 0,36,37
 1050 1309 1050 1309 1065 997 c 1,38,-1
 840 910 l 1,39,40
 835 924 835 924 835 936 c 1,7,-1
EndSplineSet
EndChar

StartChar: gcircumflex
Encoding: 285 285 225
Width: 1126
GlyphClass: 2
Flags: W
LayerCount: 2
Fore
SplineSet
465 1066 m 1,0,-1
 365 1153 l 1,1,-1
 639 1457 l 1,2,-1
 713 1457 l 1,3,-1
 931 1138 l 1,4,-1
 801 1052 l 1,5,-1
 703 1188 l 1,6,-1
 658 1275 l 1,7,-1
 578 1181 l 1,8,-1
 465 1066 l 1,0,-1
553 -261 m 0,9,10
 638 -209 638 -209 680 -95 c 0,11,12
 703 -32 703 -32 710 48 c 2,13,-1
 718 137 l 1,14,15
 692 92 692 92 652 59 c 128,-1,16
 612 26 612 26 568 10 c 0,17,18
 485 -21 485 -21 404 -21 c 0,19,20
 245 -21 245 -21 156.5 88 c 128,-1,21
 68 197 68 197 68 376 c 0,22,23
 68 500 68 500 99.5 602.5 c 128,-1,24
 131 705 131 705 183 773.5 c 128,-1,25
 235 842 235 842 304 888 c 0,26,27
 437 977 437 977 602 977 c 0,28,29
 721 977 721 977 824 939 c 1,30,-1
 1054 962 l 1,31,32
 1051 941 1051 941 1041 915 c 128,-1,33
 1031 889 1031 889 1029 869 c 2,34,-1
 931 48 l 1,35,36
 911 -102 911 -102 861.5 -211.5 c 128,-1,37
 812 -321 812 -321 740 -384 c 0,38,39
 600 -505 600 -505 392 -505 c 128,-1,40
 184 -505 184 -505 11 -380 c 1,41,-1
 107 -130 l 1,42,43
 131 -145 131 -145 134 -169 c 128,-1,44
 137 -193 137 -193 147 -206 c 0,45,46
 174 -240 174 -240 240 -273 c 128,-1,47
 306 -306 306 -306 392.5 -306 c 128,-1,48
 479 -306 479 -306 553 -261 c 0,9,10
348.5 231 m 128,-1,50
 395 171 395 171 491.5 171 c 128,-1,51
 588 171 588 171 658 247 c 128,-1,52
 728 323 728 323 748 453 c 1,53,-1
 789 788 l 1,54,55
 723 807 723 807 659.5 807 c 128,-1,56
 596 807 596 807 535 784 c 128,-1,57
 474 761 474 761 420.5 714.5 c 128,-1,58
 367 668 367 668 334.5 585 c 128,-1,59
 302 502 302 502 302 396.5 c 128,-1,49
 302 291 302 291 348.5 231 c 128,-1,50
EndSplineSet
EndChar

StartChar: Gbreve
Encoding: 286 286 226
Width: 1126
GlyphClass: 2
Flags: W
LayerCount: 2
Fore
SplineSet
895.5 1397 m 128,-1,1
 813 1361 813 1361 711 1361 c 128,-1,2
 609 1361 609 1361 532.5 1395 c 128,-1,3
 456 1429 456 1429 387 1512 c 1,4,-1
 510 1624 l 1,5,6
 555 1567 555 1567 605 1541 c 128,-1,7
 655 1515 655 1515 727 1515 c 128,-1,8
 799 1515 799 1515 855.5 1540.5 c 128,-1,9
 912 1566 912 1566 969 1628 c 1,10,-1
 1056 1517 l 1,11,0
 978 1433 978 1433 895.5 1397 c 128,-1,1
835 936 m 1,12,-1
 841 979 l 1,13,14
 841 1041 841 1041 798 1078 c 128,-1,15
 755 1115 755 1115 681 1115 c 0,16,17
 542 1115 542 1115 435 997.5 c 128,-1,18
 328 880 328 880 293 653 c 0,19,20
 281 578 281 578 281 512 c 0,21,22
 281 350 281 350 346.5 254 c 128,-1,23
 412 158 412 158 534 158 c 0,24,25
 583 158 583 158 641.5 172.5 c 128,-1,26
 700 187 700 187 733 211 c 1,27,-1
 762 451 l 1,28,-1
 525 451 l 1,29,-1
 550 652 l 1,30,-1
 1023 652 l 1,31,-1
 956 109 l 1,32,33
 875 42 875 42 744 2.5 c 128,-1,34
 613 -37 613 -37 495 -37 c 0,35,36
 284 -37 284 -37 163.5 100.5 c 128,-1,37
 43 238 43 238 43 493 c 0,38,39
 43 873 43 873 222.5 1091 c 128,-1,40
 402 1309 402 1309 710 1309 c 0,41,42
 1050 1309 1050 1309 1065 997 c 1,43,-1
 840 910 l 1,44,45
 835 924 835 924 835 936 c 1,12,-1
EndSplineSet
EndChar

StartChar: gbreve
Encoding: 287 287 227
Width: 1126
GlyphClass: 2
Flags: W
LayerCount: 2
Fore
SplineSet
658 1061 m 0,0,1
 454 1061 454 1061 320 1222 c 1,2,-1
 449 1345 l 1,3,4
 523 1227 523 1227 672 1227 c 0,5,6
 741 1227 741 1227 792 1254.5 c 128,-1,7
 843 1282 843 1282 905 1352 c 1,8,-1
 1000 1229 l 1,9,10
 919 1139 919 1139 841.5 1100 c 128,-1,11
 764 1061 764 1061 658 1061 c 0,0,1
553 -261 m 0,12,13
 638 -209 638 -209 680 -95 c 0,14,15
 703 -32 703 -32 710 48 c 2,16,-1
 718 137 l 1,17,18
 692 92 692 92 652 59 c 128,-1,19
 612 26 612 26 568 10 c 0,20,21
 485 -21 485 -21 404 -21 c 0,22,23
 245 -21 245 -21 156.5 88 c 128,-1,24
 68 197 68 197 68 376 c 0,25,26
 68 500 68 500 99.5 602.5 c 128,-1,27
 131 705 131 705 183 773.5 c 128,-1,28
 235 842 235 842 304 888 c 0,29,30
 437 977 437 977 602 977 c 0,31,32
 721 977 721 977 824 939 c 1,33,-1
 1054 962 l 1,34,35
 1051 941 1051 941 1041 915 c 128,-1,36
 1031 889 1031 889 1029 869 c 2,37,-1
 931 48 l 1,38,39
 911 -102 911 -102 861.5 -211.5 c 128,-1,40
 812 -321 812 -321 740 -384 c 0,41,42
 600 -505 600 -505 392 -505 c 128,-1,43
 184 -505 184 -505 11 -380 c 1,44,-1
 107 -130 l 1,45,46
 131 -145 131 -145 134 -169 c 128,-1,47
 137 -193 137 -193 147 -206 c 0,48,49
 174 -240 174 -240 240 -273 c 128,-1,50
 306 -306 306 -306 392.5 -306 c 128,-1,51
 479 -306 479 -306 553 -261 c 0,12,13
348.5 231 m 128,-1,53
 395 171 395 171 491.5 171 c 128,-1,54
 588 171 588 171 658 247 c 128,-1,55
 728 323 728 323 748 453 c 1,56,-1
 789 788 l 1,57,58
 723 807 723 807 659.5 807 c 128,-1,59
 596 807 596 807 535 784 c 128,-1,60
 474 761 474 761 420.5 714.5 c 128,-1,61
 367 668 367 668 334.5 585 c 128,-1,62
 302 502 302 502 302 396.5 c 128,-1,52
 302 291 302 291 348.5 231 c 128,-1,53
EndSplineSet
EndChar

StartChar: Gdotaccent
Encoding: 288 288 228
Width: 1126
GlyphClass: 2
Flags: W
LayerCount: 2
Fore
SplineSet
828.5 1442.5 m 128,-1,1
 782 1401 782 1401 724 1401 c 128,-1,2
 666 1401 666 1401 626 1437.5 c 128,-1,3
 586 1474 586 1474 586 1527 c 128,-1,4
 586 1580 586 1580 628.5 1623.5 c 128,-1,5
 671 1667 671 1667 732.5 1667 c 128,-1,6
 794 1667 794 1667 834.5 1630.5 c 128,-1,7
 875 1594 875 1594 875 1539 c 128,-1,0
 875 1484 875 1484 828.5 1442.5 c 128,-1,1
835 936 m 1,8,-1
 841 979 l 1,9,10
 841 1041 841 1041 798 1078 c 128,-1,11
 755 1115 755 1115 681 1115 c 0,12,13
 542 1115 542 1115 435 997.5 c 128,-1,14
 328 880 328 880 293 653 c 0,15,16
 281 578 281 578 281 512 c 0,17,18
 281 350 281 350 346.5 254 c 128,-1,19
 412 158 412 158 534 158 c 0,20,21
 583 158 583 158 641.5 172.5 c 128,-1,22
 700 187 700 187 733 211 c 1,23,-1
 762 451 l 1,24,-1
 525 451 l 1,25,-1
 550 652 l 1,26,-1
 1023 652 l 1,27,-1
 956 109 l 1,28,29
 875 42 875 42 744 2.5 c 128,-1,30
 613 -37 613 -37 495 -37 c 0,31,32
 284 -37 284 -37 163.5 100.5 c 128,-1,33
 43 238 43 238 43 493 c 0,34,35
 43 873 43 873 222.5 1091 c 128,-1,36
 402 1309 402 1309 710 1309 c 0,37,38
 1050 1309 1050 1309 1065 997 c 1,39,-1
 840 910 l 1,40,41
 835 924 835 924 835 936 c 1,8,-1
EndSplineSet
EndChar

StartChar: gdotaccent
Encoding: 289 289 229
Width: 1126
GlyphClass: 2
Flags: W
LayerCount: 2
Fore
SplineSet
754 1153 m 128,-1,1
 710 1112 710 1112 652 1112 c 128,-1,2
 594 1112 594 1112 552.5 1151.5 c 128,-1,3
 511 1191 511 1191 511 1247.5 c 128,-1,4
 511 1304 511 1304 552.5 1343.5 c 128,-1,5
 594 1383 594 1383 653 1383 c 128,-1,6
 712 1383 712 1383 755 1343 c 128,-1,7
 798 1303 798 1303 798 1248.5 c 128,-1,0
 798 1194 798 1194 754 1153 c 128,-1,1
553 -261 m 0,8,9
 638 -209 638 -209 680 -95 c 0,10,11
 703 -32 703 -32 710 48 c 2,12,-1
 718 137 l 1,13,14
 692 92 692 92 652 59 c 128,-1,15
 612 26 612 26 568 10 c 0,16,17
 485 -21 485 -21 404 -21 c 0,18,19
 245 -21 245 -21 156.5 88 c 128,-1,20
 68 197 68 197 68 376 c 0,21,22
 68 500 68 500 99.5 602.5 c 128,-1,23
 131 705 131 705 183 773.5 c 128,-1,24
 235 842 235 842 304 888 c 0,25,26
 437 977 437 977 602 977 c 0,27,28
 721 977 721 977 824 939 c 1,29,-1
 1054 962 l 1,30,31
 1051 941 1051 941 1041 915 c 128,-1,32
 1031 889 1031 889 1029 869 c 2,33,-1
 931 48 l 1,34,35
 911 -102 911 -102 861.5 -211.5 c 128,-1,36
 812 -321 812 -321 740 -384 c 0,37,38
 600 -505 600 -505 392 -505 c 128,-1,39
 184 -505 184 -505 11 -380 c 1,40,-1
 107 -130 l 1,41,42
 131 -145 131 -145 134 -169 c 128,-1,43
 137 -193 137 -193 147 -206 c 0,44,45
 174 -240 174 -240 240 -273 c 128,-1,46
 306 -306 306 -306 392.5 -306 c 128,-1,47
 479 -306 479 -306 553 -261 c 0,8,9
348.5 231 m 128,-1,49
 395 171 395 171 491.5 171 c 128,-1,50
 588 171 588 171 658 247 c 128,-1,51
 728 323 728 323 748 453 c 1,52,-1
 789 788 l 1,53,54
 723 807 723 807 659.5 807 c 128,-1,55
 596 807 596 807 535 784 c 128,-1,56
 474 761 474 761 420.5 714.5 c 128,-1,57
 367 668 367 668 334.5 585 c 128,-1,58
 302 502 302 502 302 396.5 c 128,-1,48
 302 291 302 291 348.5 231 c 128,-1,49
EndSplineSet
EndChar

StartChar: uni0122
Encoding: 290 290 230
Width: 1126
GlyphClass: 2
Flags: W
LayerCount: 2
Fore
SplineSet
835 936 m 1,0,-1
 841 979 l 1,1,2
 841 1041 841 1041 798 1078 c 128,-1,3
 755 1115 755 1115 681 1115 c 0,4,5
 542 1115 542 1115 435 997.5 c 128,-1,6
 328 880 328 880 293 653 c 0,7,8
 281 578 281 578 281 512 c 0,9,10
 281 350 281 350 346.5 254 c 128,-1,11
 412 158 412 158 534 158 c 0,12,13
 583 158 583 158 641.5 172.5 c 128,-1,14
 700 187 700 187 733 211 c 1,15,-1
 762 451 l 1,16,-1
 525 451 l 1,17,-1
 550 652 l 1,18,-1
 1023 652 l 1,19,-1
 956 109 l 1,20,21
 875 42 875 42 744 2.5 c 128,-1,22
 613 -37 613 -37 495 -37 c 0,23,24
 284 -37 284 -37 163.5 100.5 c 128,-1,25
 43 238 43 238 43 493 c 0,26,27
 43 873 43 873 222.5 1091 c 128,-1,28
 402 1309 402 1309 710 1309 c 0,29,30
 1050 1309 1050 1309 1065 997 c 1,31,-1
 840 910 l 1,32,33
 835 924 835 924 835 936 c 1,0,-1
394 -68 m 1,34,-1
 600 -120 l 1,35,-1
 356 -478 l 1,36,-1
 242 -411 l 1,37,-1
 394 -68 l 1,34,-1
EndSplineSet
EndChar

StartChar: uni0123
Encoding: 291 291 231
Width: 1126
GlyphClass: 2
Flags: W
LayerCount: 2
Fore
SplineSet
547 1065 m 1,0,-1
 791 1423 l 1,1,-1
 905 1356 l 1,2,-1
 753 1013 l 1,3,-1
 547 1065 l 1,0,-1
553 -261 m 0,4,5
 638 -209 638 -209 680 -95 c 0,6,7
 703 -32 703 -32 710 48 c 2,8,-1
 718 137 l 1,9,10
 692 92 692 92 652 59 c 128,-1,11
 612 26 612 26 568 10 c 0,12,13
 485 -21 485 -21 404 -21 c 0,14,15
 245 -21 245 -21 156.5 88 c 128,-1,16
 68 197 68 197 68 376 c 0,17,18
 68 500 68 500 99.5 602.5 c 128,-1,19
 131 705 131 705 183 773.5 c 128,-1,20
 235 842 235 842 304 888 c 0,21,22
 437 977 437 977 602 977 c 0,23,24
 721 977 721 977 824 939 c 1,25,-1
 1054 962 l 1,26,27
 1051 941 1051 941 1041 915 c 128,-1,28
 1031 889 1031 889 1029 869 c 2,29,-1
 931 48 l 1,30,31
 911 -102 911 -102 861.5 -211.5 c 128,-1,32
 812 -321 812 -321 740 -384 c 0,33,34
 600 -505 600 -505 392 -505 c 128,-1,35
 184 -505 184 -505 11 -380 c 1,36,-1
 107 -130 l 1,37,38
 131 -145 131 -145 134 -169 c 128,-1,39
 137 -193 137 -193 147 -206 c 0,40,41
 174 -240 174 -240 240 -273 c 128,-1,42
 306 -306 306 -306 392.5 -306 c 128,-1,43
 479 -306 479 -306 553 -261 c 0,4,5
348.5 231 m 128,-1,45
 395 171 395 171 491.5 171 c 128,-1,46
 588 171 588 171 658 247 c 128,-1,47
 728 323 728 323 748 453 c 1,48,-1
 789 788 l 1,49,50
 723 807 723 807 659.5 807 c 128,-1,51
 596 807 596 807 535 784 c 128,-1,52
 474 761 474 761 420.5 714.5 c 128,-1,53
 367 668 367 668 334.5 585 c 128,-1,54
 302 502 302 502 302 396.5 c 128,-1,44
 302 291 302 291 348.5 231 c 128,-1,45
EndSplineSet
EndChar

StartChar: Hcircumflex
Encoding: 292 292 232
Width: 1126
GlyphClass: 2
Flags: W
LayerCount: 2
Fore
SplineSet
397 1325 m 1,0,-1
 337 1407 l 1,1,-1
 649 1648 l 1,2,-1
 712 1648 l 1,3,-1
 951 1411 l 1,4,-1
 862 1319 l 1,5,-1
 656 1474 l 1,6,-1
 397 1325 l 1,0,-1
10 0 m 1,7,-1
 166 1276 l 1,8,-1
 418 1276 l 1,9,10
 415 1253 415 1253 405 1237.5 c 128,-1,11
 395 1222 395 1222 393 1204 c 2,12,-1
 339 762 l 1,13,-1
 805 762 l 1,14,-1
 868 1276 l 1,15,-1
 1120 1276 l 1,16,17
 1117 1253 1117 1253 1107 1237.5 c 128,-1,18
 1097 1222 1097 1222 1095 1204 c 2,19,-1
 948 0 l 1,20,-1
 712 0 l 1,21,-1
 781 561 l 1,22,-1
 315 561 l 1,23,-1
 246 0 l 1,24,-1
 10 0 l 1,7,-1
EndSplineSet
EndChar

StartChar: hcircumflex
Encoding: 293 293 233
Width: 1126
GlyphClass: 2
Flags: W
LayerCount: 2
Fore
SplineSet
272 1382 m 1,0,-1
 212 1464 l 1,1,-1
 524 1705 l 1,2,-1
 587 1705 l 1,3,-1
 826 1468 l 1,4,-1
 737 1376 l 1,5,-1
 531 1531 l 1,6,-1
 272 1382 l 1,0,-1
761 977 m 0,7,8
 886 977 886 977 951 917.5 c 128,-1,9
 1016 858 1016 858 1016 718 c 0,10,11
 1016 670 1016 670 1011 630 c 2,12,-1
 956 175 l 2,13,14
 951 130 951 130 951 85.5 c 128,-1,15
 951 41 951 41 959 0 c 1,16,-1
 729 0 l 1,17,18
 718 41 718 41 718 81.5 c 128,-1,19
 718 122 718 122 722 149 c 2,20,-1
 779 628 l 2,21,22
 782 649 782 649 782 668 c 0,23,24
 782 788 782 788 662 788 c 0,25,26
 563 788 563 788 467.5 723.5 c 128,-1,27
 372 659 372 659 361 573 c 2,28,-1
 290 0 l 1,29,-1
 59 0 l 1,30,-1
 226 1362 l 1,31,-1
 472 1362 l 1,32,33
 471 1338 471 1338 459.5 1316.5 c 128,-1,34
 448 1295 448 1295 446 1275 c 2,35,-1
 395 835 l 1,36,37
 546 977 546 977 761 977 c 0,7,8
EndSplineSet
EndChar

StartChar: Hbar
Encoding: 294 294 234
Width: 1126
GlyphClass: 2
Flags: W
LayerCount: 2
Fore
SplineSet
50 0 m 1,0,-1
 166 947 l 1,1,-1
 62 947 l 1,2,-1
 81 1104 l 1,3,-1
 185 1104 l 1,4,-1
 206 1276 l 1,5,-1
 458 1276 l 1,6,7
 456 1253 456 1253 445.5 1237 c 128,-1,8
 435 1221 435 1221 433 1204 c 2,9,-1
 421 1104 l 1,10,-1
 807 1104 l 1,11,-1
 828 1276 l 1,12,-1
 1080 1276 l 1,13,14
 1078 1253 1078 1253 1067.5 1237 c 128,-1,15
 1057 1221 1057 1221 1055 1204 c 2,16,-1
 1043 1104 l 1,17,-1
 1145 1104 l 1,18,-1
 1126 947 l 1,19,-1
 1024 947 l 1,20,-1
 908 0 l 1,21,-1
 672 0 l 1,22,-1
 741 561 l 1,23,-1
 355 561 l 1,24,-1
 286 0 l 1,25,-1
 50 0 l 1,0,-1
379 762 m 1,26,-1
 765 762 l 1,27,-1
 788 947 l 1,28,-1
 402 947 l 1,29,-1
 379 762 l 1,26,-1
EndSplineSet
EndChar

StartChar: hbar
Encoding: 295 295 235
Width: 1126
GlyphClass: 2
Flags: W
LayerCount: 2
Fore
SplineSet
760 930 m 0,0,1
 885 930 885 930 950 870.5 c 128,-1,2
 1015 811 1015 811 1015 671 c 0,3,4
 1015 622 1015 622 1010 583 c 2,5,-1
 974 324 l 1,6,-1
 956 175 l 2,7,8
 951 130 951 130 951 85.5 c 128,-1,9
 951 41 951 41 959 0 c 1,10,-1
 729 0 l 1,11,12
 718 41 718 41 718 81.5 c 128,-1,13
 718 122 718 122 722 149 c 2,14,-1
 743 324 l 1,15,-1
 778 581 l 2,16,17
 781 605 781 605 781 621 c 0,18,19
 781 741 781 741 661 741 c 0,20,21
 598 741 598 741 531.5 712.5 c 128,-1,22
 465 684 465 684 416 633.5 c 128,-1,23
 367 583 367 583 360 526 c 2,24,-1
 290 0 l 1,25,-1
 59 0 l 1,26,-1
 185 1021 l 1,27,-1
 79 1021 l 1,28,-1
 100 1195 l 1,29,-1
 206 1195 l 1,30,-1
 226 1362 l 1,31,-1
 472 1362 l 1,32,33
 471 1338 471 1338 459.5 1316.5 c 128,-1,34
 448 1295 448 1295 446 1275 c 2,35,-1
 437 1195 l 1,36,-1
 784 1195 l 1,37,-1
 763 1021 l 1,38,-1
 419 1021 l 1,39,-1
 394 788 l 1,40,41
 545 930 545 930 760 930 c 0,0,1
EndSplineSet
EndChar

StartChar: Itilde
Encoding: 296 296 236
Width: 1126
GlyphClass: 2
Flags: W
LayerCount: 2
Fore
SplineSet
456 1618 m 128,-1,1
 520 1661 520 1661 581.5 1661 c 128,-1,2
 643 1661 643 1661 696.5 1635.5 c 128,-1,3
 750 1610 750 1610 791.5 1584.5 c 128,-1,4
 833 1559 833 1559 863.5 1559 c 128,-1,5
 894 1559 894 1559 917.5 1576.5 c 128,-1,6
 941 1594 941 1594 972 1636 c 1,7,-1
 1081 1530 l 1,8,9
 1020 1459 1020 1459 972.5 1429.5 c 128,-1,10
 925 1400 925 1400 873 1400 c 128,-1,11
 821 1400 821 1400 772 1425 c 128,-1,12
 723 1450 723 1450 677 1474.5 c 128,-1,13
 631 1499 631 1499 594.5 1499 c 128,-1,14
 558 1499 558 1499 519.5 1475 c 128,-1,15
 481 1451 481 1451 423 1386 c 1,16,-1
 318 1474 l 1,17,0
 392 1575 392 1575 456 1618 c 128,-1,1
129 0 m 1,18,-1
 154 203 l 1,19,-1
 385 203 l 1,20,-1
 492 1075 l 1,21,-1
 261 1075 l 1,22,-1
 285 1276 l 1,23,-1
 997 1276 l 1,24,-1
 973 1075 l 1,25,-1
 728 1075 l 1,26,-1
 620 201 l 1,27,-1
 865 201 l 1,28,-1
 841 0 l 1,29,-1
 129 0 l 1,18,-1
EndSplineSet
EndChar

StartChar: itilde
Encoding: 297 297 237
Width: 1126
GlyphClass: 2
Flags: W
LayerCount: 2
Fore
SplineSet
508 1420 m 0,0,1
 553 1420 553 1420 595.5 1402 c 128,-1,2
 638 1384 638 1384 664 1363 c 0,3,4
 736 1306 736 1306 788 1306 c 0,5,6
 819 1306 819 1306 845.5 1327 c 128,-1,7
 872 1348 872 1348 909 1402 c 1,8,-1
 1008 1297 l 1,9,10
 948 1204 948 1204 900 1171 c 128,-1,11
 852 1138 852 1138 805 1138 c 128,-1,12
 758 1138 758 1138 715.5 1156 c 128,-1,13
 673 1174 673 1174 644 1196 c 0,14,15
 569 1254 569 1254 513 1254 c 0,16,17
 476 1254 476 1254 436.5 1225.5 c 128,-1,18
 397 1197 397 1197 345 1132 c 1,19,-1
 244 1217 l 1,20,21
 327 1330 327 1330 382.5 1375 c 128,-1,22
 438 1420 438 1420 508 1420 c 0,0,1
114 0 m 1,23,-1
 137 186 l 1,24,-1
 412 186 l 1,25,-1
 484 770 l 1,26,-1
 214 770 l 1,27,-1
 237 956 l 1,28,-1
 738 956 l 1,29,-1
 643 186 l 1,30,-1
 918 186 l 1,31,-1
 895 0 l 1,32,-1
 114 0 l 1,23,-1
EndSplineSet
EndChar

StartChar: Imacron
Encoding: 298 298 238
Width: 1126
GlyphClass: 2
Flags: W
LayerCount: 2
Fore
SplineSet
385 1434 m 1,0,-1
 405 1594 l 1,1,-1
 959 1594 l 1,2,-1
 939 1434 l 1,3,-1
 385 1434 l 1,0,-1
129 0 m 1,4,-1
 154 203 l 1,5,-1
 385 203 l 1,6,-1
 492 1075 l 1,7,-1
 261 1075 l 1,8,-1
 285 1276 l 1,9,-1
 997 1276 l 1,10,-1
 973 1075 l 1,11,-1
 728 1075 l 1,12,-1
 620 201 l 1,13,-1
 865 201 l 1,14,-1
 841 0 l 1,15,-1
 129 0 l 1,4,-1
EndSplineSet
EndChar

StartChar: imacron
Encoding: 299 299 239
Width: 1126
GlyphClass: 2
Flags: W
LayerCount: 2
Fore
SplineSet
287 1133 m 1,0,-1
 307 1293 l 1,1,-1
 861 1293 l 1,2,-1
 841 1133 l 1,3,-1
 287 1133 l 1,0,-1
114 0 m 1,4,-1
 137 186 l 1,5,-1
 412 186 l 1,6,-1
 484 770 l 1,7,-1
 214 770 l 1,8,-1
 237 956 l 1,9,-1
 738 956 l 1,10,-1
 643 186 l 1,11,-1
 918 186 l 1,12,-1
 895 0 l 1,13,-1
 114 0 l 1,4,-1
EndSplineSet
EndChar

